<?xml version="1.0" encoding="utf-8"?>
<!-- Generator: Adobe Illustrator 21.0.2, SVG Export Plug-In . SVG Version: 6.00 Build 0)  -->
<svg version="1.1" id="Layer_1" xmlns="http://www.w3.org/2000/svg" xmlns:xlink="http://www.w3.org/1999/xlink" x="0px" y="0px"
	 width="36px" height="33px" viewBox="0 0 36 33" enable-background="new 0 0 36 33" xml:space="preserve">
<g id="Shape_4">
	<g id="Shape_4-2">
		<path fill="#FFFFFF" d="M30,8H6v4h24V8z M8,26h14c1.1,0,2-0.9,2-2v-1.1c0-1.1-0.9-2-2-2H8c-1.1,0-2,0.9-2,2V24C6,25.1,6.9,26,8,26
			z M30,14H6v4h24V14z M33,1H3C1.3,1,0,2.3,0,4v26c0,1.7,1.3,3,3,3h30c1.7,0,3-1.3,3-3V4C36,2.3,34.7,1,33,1z M33,30H3V4h30V30z"/>
	</g>
	<g id="Shape_4-3">
		<path fill="#9DA6BB" d="M30,7H6v4h24V7z M8,25h14c1.1,0,2-0.9,2-2v-1.1c0-1.1-0.9-2-2-2H8c-1.1,0-2,0.9-2,2V23C6,24.1,6.9,25,8,25
			z M30,13H6v4h24V13z M33,0H3C1.3,0,0,1.3,0,3v26c0,1.7,1.3,3,3,3l0,0h30c1.7,0,3-1.3,3-3l0,0V3C36,1.3,34.7,0,33,0z M33,29H3V3h30
			V29z"/>
	</g>
</g>
</svg>
