<?xml version="1.0" encoding="utf-8"?>
<!-- Generator: Adobe Illustrator 16.0.0, SVG Export Plug-In . SVG Version: 6.00 Build 0)  -->
<!DOCTYPE svg PUBLIC "-//W3C//DTD SVG 1.1//EN" "http://www.w3.org/Graphics/SVG/1.1/DTD/svg11.dtd">
<svg version="1.1" id="Layer_1" xmlns="http://www.w3.org/2000/svg" xmlns:xlink="http://www.w3.org/1999/xlink" x="0px" y="0px"
	 width="20px" height="21px" viewBox="0 0 20 21" enable-background="new 0 0 20 21" xml:space="preserve">
<g>
	<g>
		<path fill="#485061" d="M18.333,1H1.667C0.746,1,0,1.747,0,2.667v16.666C0,20.254,0.746,21,1.667,21h16.667
			C19.255,21,20,20.254,20,19.332V2.667C20,1.747,19.255,1,18.333,1z M18.333,19.332H1.667V2.667h16.667V19.332z"/>
		<rect x="3.333" y="7.667" fill="#485061" width="13.333" height="1.667"/>
		<rect x="3.333" y="11" fill="#485061" width="13.333" height="1.666"/>
		<rect x="3.333" y="14.334" fill="#485061" width="6.667" height="1.666"/>
	</g>
	<g>
		<path fill="#FFFFFF" d="M18.333,0H1.667C0.746,0,0,0.747,0,1.667v16.666C0,19.254,0.746,20,1.667,20h16.667
			C19.255,20,20,19.254,20,18.332V1.667C20,0.747,19.255,0,18.333,0z M18.333,18.332H1.667V1.667h16.667V18.332z"/>
		<rect x="3.333" y="6.667" fill="#FFFFFF" width="13.333" height="1.667"/>
		<rect x="3.333" y="10" fill="#FFFFFF" width="13.333" height="1.666"/>
		<rect x="3.333" y="13.334" fill="#FFFFFF" width="6.667" height="1.666"/>
	</g>
</g>
</svg>
