<?xml version="1.0" encoding="utf-8"?>
<!-- Generator: Adobe Illustrator 17.0.0, SVG Export Plug-In . SVG Version: 6.00 Build 0)  -->
<!DOCTYPE svg PUBLIC "-//W3C//DTD SVG 1.1//EN" "http://www.w3.org/Graphics/SVG/1.1/DTD/svg11.dtd">
<svg version="1.1" id="layer" xmlns="http://www.w3.org/2000/svg" xmlns:xlink="http://www.w3.org/1999/xlink" x="0px" y="0px"
	 width="36.004px" height="35.002px" viewBox="0 0 36.004 35.002" enable-background="new 0 0 36.004 35.002" xml:space="preserve">
<g id="Rounded_Rectangle_2_copy_2_3_" opacity="0.5">
	<g>
		<path fill="#FFFFFF" d="M36.001,13c0.001-0.022-0.004-0.051-0.004-0.074h0.005C36.002,9.994,36.001,4,36.001,4
			c0-1.427-1.574-3-3-3h-7c-0.7,0-1.433,0.381-2,0.935c-0.567-0.554-1.3-0.935-2-0.935h-7c-0.934,0-1.923,0.678-2.5,1.545
			C11.924,1.678,10.936,1,10.001,1h-7c-1.426,0-3,1.573-3,3l-0.004,28.414c0,1.427,1.161,2.588,2.587,2.588h30.833
			c1.426,0,2.587-1.161,2.587-2.588C36.004,32.414,36.002,18.607,36.001,13z M14.001,6c-0.128-1.236,1.448-2,2-2h4
			c1.536-0.043,2,1.448,2,2v2.996l1-0.023V9h-9C14.001,9,14.001,6,14.001,6z M33.001,32h-30V6c0-0.552,0.464-2.043,2-2h4
			c0.552,0,2.128,0.764,2,2v6c0,0,14.276,0,19,0c2.313,0.118,2.961,1.126,3,3C33.001,20.102,33.001,32,33.001,32z M33.001,9h-8
			V8.926h0.001c0-1.142,0-2.136,0-2.931C24.878,4.762,26.45,4,27.001,4h4c1.536-0.043,2,1.448,2,2V9z M27.001,21h-18
			c-0.552,0-1,0.448-1,1s0.448,1,1,1h18c0.552,0,1-0.448,1-1S27.554,21,27.001,21z M27.001,16h-18c-0.552,0-1,0.448-1,1s0.448,1,1,1
			h18c0.552,0,1-0.448,1-1S27.554,16,27.001,16z M27.001,26h-18c-0.552,0-1,0.448-1,1s0.448,1,1,1h18c0.552,0,1-0.448,1-1
			S27.554,26,27.001,26z"/>
	</g>
</g>
<g id="Rounded_Rectangle_2_copy_2">
	<g>
		<path fill="#9DA6BB" d="M36.004,12C36.005,11.978,36,11.949,36,11.926h0.005C36.004,8.994,36.004,3,36.004,3c0-1.427-1.574-3-3-3
			h-7c-0.7,0-1.433,0.381-2,0.935c-0.567-0.554-1.3-0.935-2-0.935h-7c-0.934,0-1.923,0.678-2.5,1.545
			C11.927,0.678,10.938,0,10.004,0h-7c-1.426,0-3,1.573-3,3L0,31.414c0,1.427,1.161,2.588,2.587,2.588H33.42
			c1.426,0,2.587-1.161,2.587-2.588C36.007,31.414,36.005,17.607,36.004,12z M14.004,5c-0.128-1.236,1.448-2,2-2h4
			c1.536-0.043,2,1.448,2,2v2.996l1-0.023V8h-9V5z M33.004,31h-30V5c0-0.552,0.464-2.043,2-2h4c0.552,0,2.128,0.764,2,2v6
			c0,0,14.276,0,19,0c2.313,0.118,2.961,1.126,3,3C33.004,19.102,33.004,31,33.004,31z M33.004,8h-8V7.926h0.001
			c0-1.142,0-2.136,0-2.931C24.881,3.762,26.452,3,27.004,3h4c1.536-0.043,2,1.448,2,2C33.004,5,33.004,8,33.004,8z M27.004,20h-18
			c-0.552,0-1,0.448-1,1s0.448,1,1,1h18c0.552,0,1-0.448,1-1S27.556,20,27.004,20z M27.004,15h-18c-0.552,0-1,0.448-1,1s0.448,1,1,1
			h18c0.552,0,1-0.448,1-1S27.556,15,27.004,15z M27.004,25h-18c-0.552,0-1,0.448-1,1s0.448,1,1,1h18c0.552,0,1-0.448,1-1
			S27.556,25,27.004,25z"/>
	</g>
</g>
</svg>
