<?xml version="1.0" encoding="utf-8"?>
<!-- Generator: Adobe Illustrator 21.0.2, SVG Export Plug-In . SVG Version: 6.00 Build 0)  -->
<svg version="1.1" id="Layer_1" xmlns="http://www.w3.org/2000/svg" xmlns:xlink="http://www.w3.org/1999/xlink" x="0px" y="0px"
	 width="24px" height="24px" viewBox="0 0 24 24" enable-background="new 0 0 24 24" xml:space="preserve">
<g id="Rounded_Rectangle_2_copy_2">
	<g id="Rounded_Rectangle_2_copy_2-2" opacity="0.2">
		<path d="M24,9.3L24,9.3L24,9.3c0-1.9,0-5.8,0-5.8c-0.1-1.1-0.9-1.9-2-2h-4.7c-0.5,0-1,0.2-1.3,0.6c-0.4-0.4-0.8-0.6-1.3-0.6H10
			c-0.7,0.1-1.3,0.4-1.7,1c-0.4-0.6-1-0.9-1.7-1H2C1,1.6,0.1,2.4,0,3.4v18.4c0,0.9,0.8,1.7,1.7,1.7h20.6c0.9,0,1.7-0.7,1.7-1.7
			C24,21.8,24,12.9,24,9.3z M9.3,4.7c-0.1-0.8,1-1.3,1.3-1.3h2.7c0.7,0,1.3,0.6,1.3,1.3v1.9h0.7l0,0h-6V4.7z M22,21.6H2V4.7
			C2,4,2.6,3.4,3.3,3.4H6c0.4,0,1.4,0.5,1.3,1.3v3.9H20c1.5,0.1,2,0.7,2,1.9V21.6z M22,6.7h-5.3l0,0l0,0c0-0.7,0-1.4,0-1.9
			c-0.1-0.8,1-1.3,1.3-1.3h2.7C21.4,3.5,22,4,22,4.7V6.7z M18,14.4H6c-0.4,0-0.7,0.2-0.7,0.6c0,0.4,0.2,0.7,0.6,0.7
			c0.1,0,0.1,0,0.2,0h12c0.4,0,0.7-0.2,0.7-0.6c0-0.4-0.2-0.7-0.6-0.7C18.1,14.4,18.1,14.4,18,14.4z M18,11.2H6
			c-0.4,0-0.7,0.3-0.7,0.6c0,0.4,0.3,0.7,0.6,0.7l0,0h12c0.4,0,0.7-0.2,0.7-0.6C18.6,11.5,18.4,11.2,18,11.2
			C18.1,11.2,18.1,11.2,18,11.2L18,11.2z M18,17.7H6c-0.4,0-0.7,0.3-0.7,0.7C5.3,18.7,5.6,19,6,19l0,0h12c0.4,0,0.7-0.2,0.7-0.6
			s-0.2-0.7-0.6-0.7C18.1,17.7,18.1,17.7,18,17.7L18,17.7z"/>
	</g>
	<g id="Rounded_Rectangle_2_copy_2-3">
		<path fill="#FFFFFF" d="M24,8.3L24,8.3L24,8.3c0-1.9,0-5.8,0-5.8c-0.1-1.1-0.9-1.9-2-2h-4.7c-0.5,0-1,0.2-1.3,0.6
			c-0.4-0.4-0.8-0.6-1.3-0.6H10c-0.7,0.1-1.3,0.4-1.7,1c-0.4-0.6-1-0.9-1.7-1H2C1,0.6,0.1,1.4,0,2.4v18.4c0,0.9,0.8,1.7,1.7,1.7
			h20.6c0.9,0,1.7-0.7,1.7-1.7C24,20.8,24,11.9,24,8.3z M9.3,3.7c-0.1-0.8,1-1.3,1.3-1.3h2.7c0.7,0,1.3,0.6,1.3,1.3v1.9h0.7l0,0h-6
			V3.7z M22,20.6H2V3.7C2,3,2.6,2.4,3.3,2.4H6c0.4,0,1.4,0.5,1.3,1.3v3.9H20c1.5,0.1,2,0.7,2,1.9V20.6z M22,5.7h-5.3l0,0l0,0
			c0-0.7,0-1.4,0-1.9c-0.1-0.8,1-1.3,1.3-1.3h2.7C21.4,2.5,22,3,22,3.7V5.7z M18,13.4H6c-0.4,0-0.7,0.2-0.7,0.6
			c0,0.4,0.2,0.7,0.6,0.7c0.1,0,0.1,0,0.2,0h12c0.4,0,0.7-0.2,0.7-0.6c0-0.4-0.2-0.7-0.6-0.7C18.1,13.4,18.1,13.4,18,13.4z M18,10.2
			H6c-0.4,0-0.7,0.3-0.7,0.6c0,0.4,0.3,0.7,0.6,0.7l0,0h12c0.4,0,0.7-0.2,0.7-0.6C18.6,10.5,18.4,10.2,18,10.2
			C18.1,10.2,18.1,10.2,18,10.2L18,10.2z M18,16.7H6c-0.4,0-0.7,0.3-0.7,0.7C5.3,17.7,5.6,18,6,18l0,0h12c0.4,0,0.7-0.2,0.7-0.6
			s-0.2-0.7-0.6-0.7C18.1,16.7,18.1,16.7,18,16.7L18,16.7z"/>
	</g>
</g>
</svg>
