<?xml version="1.0" encoding="utf-8"?>
<!-- Generator: Adobe Illustrator 21.0.2, SVG Export Plug-In . SVG Version: 6.00 Build 0)  -->
<svg version="1.1" id="Forma_1_1_" xmlns="http://www.w3.org/2000/svg" xmlns:xlink="http://www.w3.org/1999/xlink" x="0px" y="0px"
	 width="40px" height="33px" viewBox="0 0 40 33" enable-background="new 0 0 40 33" xml:space="preserve">
<g id="Forma_1">
	<g>
		<path fill="#FFFFFF" d="M35.8,19.8l-1.4,2.7l2.3,4.5l-5.8,2.8L29,20.3l0.3-0.3l0,0l-1.2-2.3l-0.6,0.6l-7.5-5l-7.5,4.9l-5-4.9
			L0,28.1L10,33l10-4.9L30,33l10-4.9L35.8,19.8z M9.1,29.8L3.4,27l4.8-9.5l2.5,2.5l0.3,0.3L9.1,29.8z M18.8,25.9l-7,3.4l1.8-8.9
			l0.3-0.2l4.9-3.2V25.9z M21.2,25.9V17l4.9,3.2l0.3,0.2l1.8,8.9L21.2,25.9z M32.5,20.7l5.7-11c0.4-0.8,0.6-1.7,0.6-2.6
			C38.7,3.8,36,1,32.5,1s-6.3,2.8-6.3,6.2c0,0.9,0.2,1.8,0.6,2.6L32.5,20.7z M32.5,3.5c2.1,0,3.8,1.7,3.8,3.7s-1.7,3.7-3.8,3.7
			s-3.8-1.7-3.8-3.7C28.8,5.1,30.4,3.5,32.5,3.5z"/>
	</g>
</g>
<g id="Forma_1_3_">
	<g>
		<path fill="#9EA6BB" d="M32.5,19.7l5.7-11c0.4-0.8,0.6-1.7,0.6-2.6C38.7,2.8,36,0,32.5,0s-6.3,2.8-6.3,6.2c0,0.9,0.2,1.8,0.6,2.6
			L32.5,19.7z M32.5,2.5c2.1,0,3.8,1.7,3.8,3.7s-1.7,3.7-3.8,3.7s-3.8-1.7-3.8-3.7C28.8,4.1,30.4,2.5,32.5,2.5z M35.8,18.8l-1.4,2.7
			l2.3,4.5l-5.8,2.8L29,19.3l0.3-0.3l0,0l-1.2-2.3l-0.6,0.6l-7.5-5l-7.5,4.9l-5-4.9L0,27.1L10,32l10-4.9L30,32l10-4.9L35.8,18.8z
			 M9.1,28.8L3.4,26l4.8-9.5l2.5,2.5l0.3,0.3L9.1,28.8z M18.8,24.9l-7,3.4l1.8-8.9l0.3-0.2l4.9-3.2V24.9z M21.2,24.9V16l4.9,3.2
			l0.3,0.2l1.8,8.9L21.2,24.9z"/>
	</g>
</g>
</svg>
