<svg xmlns="http://www.w3.org/2000/svg" viewBox="0 0 56 31" width="56px" height="34px">
    <g>
        <g>
            <path fill="#fff" d="M42.27,17.28a4.86,4.86,0,0,0-.9.21,1.38,1.38,0,0,0-.58.4,1.12,1.12,0,0,0-.2.69l.27.52a1.53,1.53,0,0,0,.77.15,1.91,1.91,0,0,0,.71-.16l.53-.28.22-.29c.08-.34.26-1.09.27-1.18l-.09-.17Zm-24.72,0a4.92,4.92,0,0,0-.9.21l-.58.41a1.07,1.07,0,0,0-.2.68l.26.53a1.57,1.57,0,0,0,.78.15,1.89,1.89,0,0,0,.71-.16l.54-.29.21-.29c.08-.34.26-1.09.28-1.19l-.09-.17Zm-7.44-4.59H9.66a.69.69,0,0,0-.65.53L8.6,15a.42.42,0,0,0,.41.54h.33a2.8,2.8,0,0,0,1.72-.47,1.54,1.54,0,0,0,.61-1.32.94.94,0,0,0-.39-.84A2.12,2.12,0,0,0,10.11,12.68Zm24.71,0h-.44a.7.7,0,0,0-.65.53l-.41,1.82a.42.42,0,0,0,.42.53h.34a2.83,2.83,0,0,0,1.72-.46,1.56,1.56,0,0,0,.61-1.32A1,1,0,0,0,36,13,2.15,2.15,0,0,0,34.81,12.72ZM53,1H3A3,3,0,0,0,0,4V28a3,3,0,0,0,3,3H53a3,3,0,0,0,3-3V4A3,3,0,0,0,53,1ZM12.88,16.35A6.3,6.3,0,0,1,9,17.41H8.61a.7.7,0,0,0-.65.53L7.49,20a.7.7,0,0,1-.65.54H5.47A.41.41,0,0,1,5.06,20L7,11.44a.72.72,0,0,1,.65-.54h2.84a9.37,9.37,0,0,1,1.61.13,3.41,3.41,0,0,1,1.18.45,2.07,2.07,0,0,1,.74.83,2.68,2.68,0,0,1,.26,1.27A3.32,3.32,0,0,1,12.88,16.35Zm8.44-1.09-.05.36-1,4.43a.71.71,0,0,1-.59.53H18.4a.41.41,0,0,1-.36-.53h0l.05-.22h0l-.51.35-.56.32-.66.23a3.81,3.81,0,0,1-.85.08,2,2,0,0,1-1.43-.51A1.76,1.76,0,0,1,13.51,19a2.66,2.66,0,0,1,.39-1.47,2.7,2.7,0,0,1,1.17-1A6.07,6.07,0,0,1,16.8,16c.68-.1,1.24-.17,2-.23l.2-.12,0-.2a.65.65,0,0,0-.41-.64,3.26,3.26,0,0,0-1.24-.18,5.64,5.64,0,0,0-1.27.18,6.83,6.83,0,0,0-.81.25c-.11,0-.36.05-.26-.4l.17-.71a.82.82,0,0,1,.6-.65c.25-.06.29-.07.7-.13a10.43,10.43,0,0,1,1.65-.13,5,5,0,0,1,2.43.45,1.49,1.49,0,0,1,.77,1.39ZM23.5,24H22.09c-.29,0-.39-.24-.21-.54l1.21-2.17s.1-.13,0-.83C22.91,19.17,22,13.74,22,13.74a.41.41,0,0,1,.41-.54h1.22a.75.75,0,0,1,.74.55L25,17.52h.23c.19-.35,2.14-3.8,2.14-3.8a1.17,1.17,0,0,1,.86-.54h1.63c.48,0,0,.8,0,.8l-5.42,9.46A1.13,1.13,0,0,1,23.5,24Zm14.09-7.6a6.33,6.33,0,0,1-3.89,1.05h-.39a.71.71,0,0,0-.65.53l-.46,2.09a.71.71,0,0,1-.65.53H30.19a.41.41,0,0,1-.41-.53l1.91-8.6a.71.71,0,0,1,.65-.53h2.85a9.07,9.07,0,0,1,1.6.13,3.27,3.27,0,0,1,1.18.45,2.14,2.14,0,0,1,.75.83A2.81,2.81,0,0,1,39,13.6,3.36,3.36,0,0,1,37.59,16.39ZM46,15.26l-.05.36-1,4.43a.7.7,0,0,1-.58.53H43.12a.41.41,0,0,1-.36-.53h0l0-.23h0l-.51.35-.56.32-.66.23a3.7,3.7,0,0,1-.85.08,2,2,0,0,1-1.43-.51A1.74,1.74,0,0,1,38.23,19a2.64,2.64,0,0,1,.39-1.46,2.7,2.7,0,0,1,1.17-1A6.08,6.08,0,0,1,41.52,16c.67-.1,1.23-.17,2-.22l.2-.13,0-.2a.64.64,0,0,0-.41-.64,3.26,3.26,0,0,0-1.24-.18,5.92,5.92,0,0,0-1.28.18,7.76,7.76,0,0,0-.81.25c-.11,0-.36.05-.27-.4l.17-.71a.81.81,0,0,1,.6-.65c.25-.06.29-.07.7-.13a10.07,10.07,0,0,1,1.65-.13,5,5,0,0,1,2.43.45,1.49,1.49,0,0,1,.78,1.39Zm4.36-3.73-1.82,8.52-.07.1a.69.69,0,0,1-.59.43H46.65l0,0a.4.4,0,0,1-.34-.5h0l.05-.25,1.7-8,.06-.28.07-.11a.69.69,0,0,1,.58-.43H50a.41.41,0,0,1,.41.53Z" transform="translate(0 0)"/>
        </g>
        <g>
            <path fill="#9da6bb" d="M53,0H3A3,3,0,0,0,0,3V27a3,3,0,0,0,3,3H53a3,3,0,0,0,3-3V3A3,3,0,0,0,53,0ZM12.88,15.35A6.3,6.3,0,0,1,9,16.41H8.61a.7.7,0,0,0-.65.53L7.49,19a.7.7,0,0,1-.65.54H5.47A.41.41,0,0,1,5.06,19L7,10.44a.72.72,0,0,1,.65-.54h2.84a9.37,9.37,0,0,1,1.61.13,3.41,3.41,0,0,1,1.18.45,2.07,2.07,0,0,1,.74.83,2.68,2.68,0,0,1,.26,1.27A3.32,3.32,0,0,1,12.88,15.35Zm8.44-1.09-.05.36-1,4.43a.71.71,0,0,1-.59.53H18.4a.41.41,0,0,1-.36-.53h0l.05-.22h0l-.51.35-.56.32-.66.23a3.81,3.81,0,0,1-.85.08,2,2,0,0,1-1.43-.51A1.76,1.76,0,0,1,13.51,18a2.66,2.66,0,0,1,.39-1.47,2.7,2.7,0,0,1,1.17-1A6.07,6.07,0,0,1,16.8,15c.68-.1,1.24-.17,2-.23l.2-.12,0-.2a.65.65,0,0,0-.41-.64,3.26,3.26,0,0,0-1.24-.18,5.64,5.64,0,0,0-1.27.18,6.83,6.83,0,0,0-.81.25c-.11,0-.36.05-.26-.4l.17-.71a.82.82,0,0,1,.6-.65c.25-.06.29-.07.7-.13a10.43,10.43,0,0,1,1.65-.13,5,5,0,0,1,2.43.45,1.49,1.49,0,0,1,.77,1.39ZM23.5,23H22.09c-.29,0-.39-.24-.21-.54l1.21-2.17s.1-.13,0-.83C22.91,18.17,22,12.74,22,12.74a.41.41,0,0,1,.41-.54h1.22a.75.75,0,0,1,.74.55L25,16.52h.23c.19-.35,2.14-3.8,2.14-3.8a1.17,1.17,0,0,1,.86-.54h1.63c.48,0,0,.8,0,.8l-5.42,9.46A1.13,1.13,0,0,1,23.5,23Zm14.09-7.6a6.33,6.33,0,0,1-3.89,1.05h-.39a.71.71,0,0,0-.65.53l-.46,2.09a.71.71,0,0,1-.65.53H30.19a.41.41,0,0,1-.41-.53l1.91-8.6a.71.71,0,0,1,.65-.53h2.85a9.07,9.07,0,0,1,1.6.13,3.27,3.27,0,0,1,1.18.45,2.14,2.14,0,0,1,.75.83A2.81,2.81,0,0,1,39,12.6,3.36,3.36,0,0,1,37.59,15.39ZM46,14.26l-.05.36-1,4.43a.7.7,0,0,1-.58.53H43.12a.41.41,0,0,1-.36-.53h0l0-.23h0l-.51.35-.56.32-.66.23a3.7,3.7,0,0,1-.85.08,2,2,0,0,1-1.43-.51A1.74,1.74,0,0,1,38.23,18a2.64,2.64,0,0,1,.39-1.46,2.7,2.7,0,0,1,1.17-1A6.08,6.08,0,0,1,41.52,15c.67-.1,1.23-.17,2-.22l.2-.13,0-.2a.64.64,0,0,0-.41-.64,3.26,3.26,0,0,0-1.24-.18,5.92,5.92,0,0,0-1.28.18,7.76,7.76,0,0,0-.81.25c-.11,0-.36.05-.27-.4l.17-.71a.81.81,0,0,1,.6-.65c.25-.06.29-.07.7-.13a10.07,10.07,0,0,1,1.65-.13,5,5,0,0,1,2.43.45,1.49,1.49,0,0,1,.78,1.39Zm4.36-3.73-1.82,8.52-.07.1a.69.69,0,0,1-.59.43H46.65l0,0a.4.4,0,0,1-.34-.5h0l.05-.25,1.7-8,.06-.28.07-.11a.69.69,0,0,1,.58-.43H50a.41.41,0,0,1,.41.53Zm-8.12,5.74a4.86,4.86,0,0,0-.9.21,1.38,1.38,0,0,0-.58.4,1.12,1.12,0,0,0-.2.69l.27.52a1.53,1.53,0,0,0,.77.15,1.91,1.91,0,0,0,.71-.16l.53-.28.22-.29c.08-.34.26-1.09.27-1.18l-.09-.17Zm-24.72,0a4.92,4.92,0,0,0-.9.21l-.58.41a1.07,1.07,0,0,0-.2.68l.26.53a1.57,1.57,0,0,0,.78.15,1.89,1.89,0,0,0,.71-.16l.54-.29.21-.29c.08-.34.26-1.09.28-1.19l-.09-.17Zm17.27-4.56h-.44a.7.7,0,0,0-.65.53l-.41,1.82a.42.42,0,0,0,.42.53h.34a2.83,2.83,0,0,0,1.72-.46,1.56,1.56,0,0,0,.61-1.32A1,1,0,0,0,36,12,2.15,2.15,0,0,0,34.81,11.72Zm-24.71,0H9.66a.69.69,0,0,0-.65.53L8.6,14a.42.42,0,0,0,.41.54h.33a2.8,2.8,0,0,0,1.72-.47,1.54,1.54,0,0,0,.61-1.32.94.94,0,0,0-.39-.84A2.12,2.12,0,0,0,10.11,11.68Z" transform="translate(0 0)"/>
        </g>
    </g>
</svg>
