<?xml version="1.0" encoding="utf-8"?>
<!-- Generator: Adobe Illustrator 22.1.0, SVG Export Plug-In . SVG Version: 6.00 Build 0)  -->
<svg version="1.1" id="Group_1_1_" xmlns="http://www.w3.org/2000/svg" xmlns:xlink="http://www.w3.org/1999/xlink" x="0px" y="0px"
	 width="36px" height="33px" viewBox="0 0 36 33" enable-background="new 0 0 36 33" xml:space="preserve">
<g id="_x33_1">
	<g>
		<path fill="#FFFFFF" d="M22.6,14.7c-0.3,0.3-0.7,0.5-1,0.7c-0.4,0.2-0.7,0.4-1.1,0.6s-0.8,0.4-1.1,0.5l0.8,2.2
			c0.4-0.1,0.9-0.3,1.3-0.5s0.9-0.4,1.2-0.7v9.3h2.7v-13h-1.9C23.2,14.2,22.9,14.4,22.6,14.7z M36,10c0-1.1-0.9-2-2-2h-1V6
			c0-1.1-0.9-2-2-2h-3V2.5C28,1.7,27.1,1,26,1s-2,0.7-2,1.5V4H12V2.5C12,1.7,11.1,1,10,1S8,1.7,8,2.5V4H5C3.9,4,3,4.9,3,6v2H2
			c-1.1,0-2,0.9-2,2l3,10.9L1,32c0,1.1,0.9,2,2,2h30c1.1,0,2-0.9,2-2l-2-11L36,10z M5,6h26v2H5V6z M3,32l1.9-10c0,0,0,0,0.1,0h3
			c0.6,0,1-0.4,1-1s-0.4-1-1-1H5H4.9L2,10h32l-3.3,10H29c-0.6,0-1,0.4-1,1s0.4,1,1,1h1.6L33,32H3z M16.2,19.8
			c0.5-0.2,0.9-0.6,1.1-1.1c0.3-0.5,0.4-1,0.4-1.5s-0.1-1-0.3-1.4c-0.2-0.4-0.4-0.8-0.8-1.2c-0.4-0.3-0.8-0.6-1.3-0.8
			s-1.2-0.3-1.9-0.3c-0.4,0-0.8,0-1.1,0.1c-0.4,0.1-0.7,0.2-1,0.3s-0.6,0.2-0.9,0.4c-0.3,0.1-0.5,0.3-0.7,0.4l1,2
			c0.4-0.2,0.8-0.4,1.2-0.6c0.4-0.2,0.9-0.2,1.5-0.2c0.2,0,0.4,0,0.6,0.1c0.2,0.1,0.4,0.1,0.5,0.3c0.2,0.1,0.3,0.3,0.4,0.4
			c0.1,0.2,0.1,0.4,0.1,0.6c0,0.3-0.1,0.6-0.2,0.8c-0.1,0.2-0.3,0.4-0.5,0.5s-0.4,0.2-0.7,0.3C13.4,19,13.1,19,12.8,19h-1.2v2.2h1.1
			c0.4,0,0.7,0,1.1,0.1c0.3,0.1,0.6,0.2,0.9,0.3c0.2,0.1,0.4,0.3,0.6,0.6c0.1,0.2,0.2,0.5,0.2,0.9c0,0.5-0.2,1-0.6,1.3
			s-1,0.5-1.8,0.5c-0.7,0-1.3-0.1-1.8-0.2c-0.5-0.2-0.9-0.3-1.2-0.4l-0.5,2.3c0.2,0.1,0.4,0.2,0.7,0.2c0.3,0.1,0.6,0.2,0.9,0.2
			c0.3,0.1,0.7,0.1,1.1,0.2c0.4,0,0.7,0.1,1,0.1c0.9,0,1.6-0.1,2.3-0.3c0.6-0.2,1.2-0.5,1.6-0.9s0.7-0.8,0.9-1.3
			c0.2-0.5,0.3-1.1,0.3-1.7c0-0.8-0.2-1.4-0.5-2C17.3,20.5,16.8,20.1,16.2,19.8z"/>
	</g>
</g>
<g id="_x33_1_2_">
	<g>
		<path fill="#9EA6BB" d="M22.6,13.7c-0.3,0.3-0.7,0.5-1,0.7c-0.4,0.2-0.7,0.4-1.1,0.6c-0.4,0.2-0.8,0.4-1.1,0.5l0.8,2.2
			c0.4-0.1,0.9-0.3,1.3-0.5s0.9-0.4,1.2-0.7v9.3h2.7v-13h-1.9C23.2,13.2,22.9,13.4,22.6,13.7z M36,9c0-1.1-0.9-2-2-2h-1V5
			c0-1.1-0.9-2-2-2h-3V1.5C28,0.7,27.1,0,26,0s-2,0.7-2,1.5V3H12V1.5C12,0.7,11.1,0,10,0S8,0.7,8,1.5V3H5C3.9,3,3,3.9,3,5v2H2
			C0.9,7,0,7.9,0,9l3,10.9L1,31c0,1.1,0.9,2,2,2h30c1.1,0,2-0.9,2-2l-2-11L36,9z M5,5h26v2H5V5z M3,31l1.9-10c0,0,0,0,0.1,0h3
			c0.6,0,1-0.4,1-1s-0.4-1-1-1H5H4.9L2,9h32l-3.3,10H29c-0.6,0-1,0.4-1,1s0.4,1,1,1h1.6L33,31H3z M16.2,18.8
			c0.5-0.2,0.9-0.6,1.1-1.1c0.3-0.5,0.4-1,0.4-1.5s-0.1-1-0.3-1.4c-0.2-0.4-0.4-0.8-0.8-1.2c-0.4-0.3-0.8-0.6-1.3-0.8
			s-1.2-0.3-1.9-0.3c-0.4,0-0.8,0-1.1,0.1c-0.4,0.1-0.7,0.2-1,0.3s-0.6,0.2-0.9,0.4c-0.3,0.1-0.5,0.3-0.7,0.4l1,2
			c0.4-0.2,0.8-0.4,1.2-0.6c0.4-0.2,0.9-0.2,1.5-0.2c0.2,0,0.4,0,0.6,0.1s0.4,0.1,0.5,0.3c0.2,0.1,0.3,0.3,0.4,0.4
			c0.1,0.2,0.1,0.4,0.1,0.6c0,0.3-0.1,0.6-0.2,0.8c-0.1,0.2-0.3,0.4-0.5,0.5s-0.4,0.2-0.7,0.3C13.4,18,13.1,18,12.8,18h-1.2v2.2h1.1
			c0.4,0,0.7,0,1.1,0.1c0.3,0.1,0.6,0.2,0.9,0.3c0.2,0.1,0.4,0.3,0.6,0.6c0.1,0.2,0.2,0.5,0.2,0.9c0,0.5-0.2,1-0.6,1.3
			s-1,0.5-1.8,0.5c-0.7,0-1.3-0.1-1.8-0.2c-0.5-0.2-0.9-0.3-1.2-0.4l-0.5,2.3c0.2,0.1,0.4,0.2,0.7,0.2c0.3,0.1,0.6,0.2,0.9,0.2
			c0.3,0.1,0.7,0.1,1.1,0.2c0.4,0,0.7,0.1,1,0.1c0.9,0,1.6-0.1,2.3-0.3c0.6-0.2,1.2-0.5,1.6-0.9s0.7-0.8,0.9-1.3
			c0.2-0.5,0.3-1.1,0.3-1.7c0-0.8-0.2-1.4-0.5-2C17.3,19.5,16.8,19.1,16.2,18.8z"/>
	</g>
</g>
</svg>
