<?xml version="1.0" encoding="utf-8"?>
<!-- Generator: Adobe Illustrator 16.0.0, SVG Export Plug-In . SVG Version: 6.00 Build 0)  -->
<!DOCTYPE svg PUBLIC "-//W3C//DTD SVG 1.1//EN" "http://www.w3.org/Graphics/SVG/1.1/DTD/svg11.dtd">
<svg version="1.1" id="Layer_1" xmlns="http://www.w3.org/2000/svg" xmlns:xlink="http://www.w3.org/1999/xlink" x="0px" y="0px"
	 width="46px" height="34px" viewBox="0 0 46 34" enable-background="new 0 0 46 34" xml:space="preserve">
<g>
	<g>
		<path fill="#9DA4B8" d="M34.629,24.568l-4.037-13.119l-5.045,9.083l-3.028-3.028l-5.046,8.072l-3.027-2.018l-3.028,5.046h23.211
			V24.568z M36.648,0.349H9.4c-1.672,0-3.027,1.356-3.027,3.027v27.249c0,1.67,1.355,3.026,3.027,3.026h27.249
			c1.672,0,3.027-1.356,3.027-3.026V3.376C39.676,1.705,38.319,0.349,36.648,0.349z M36.648,30.625H9.4V3.376h27.249V30.625
			L36.648,30.625z M15.96,14.477c1.951,0,3.532-1.581,3.532-3.532c0-1.952-1.582-3.532-3.532-3.532c-1.952,0-3.532,1.58-3.532,3.532
			C12.428,12.896,14.008,14.477,15.96,14.477z"/>
	</g>
</g>
<path fill="#9DA4B8" d="M41.568,20.203L44.771,17l-3.203-3.203V20.203z"/>
<path fill="#9DA4B8" d="M4.414,13.797L1.21,17l3.203,3.204V13.797z"/>
</svg>
