<?xml version="1.0" encoding="utf-8"?>
<!-- Generator: Adobe Illustrator 17.0.0, SVG Export Plug-In . SVG Version: 6.00 Build 0)  -->
<!DOCTYPE svg PUBLIC "-//W3C//DTD SVG 1.1//EN" "http://www.w3.org/Graphics/SVG/1.1/DTD/svg11.dtd">
<svg version="1.1" xmlns="http://www.w3.org/2000/svg" xmlns:xlink="http://www.w3.org/1999/xlink" x="0px" y="0px" width="24px"
	 height="24px" viewBox="0 0 24 24" enable-background="new 0 0 24 24" xml:space="preserve">
<g id="Background_xA0_Image_1_" display="none">
</g>
<g id="_x32__1_">
	<g id="Shape_5_copy_2_" opacity="0.3">
		<g>
			<path fill-rule="evenodd" clip-rule="evenodd" d="M1.727,18h20.545C23.227,18,24,17.226,24,16.272V2.727
				C24,1.773,23.227,1,22.273,1H1.727C0.773,1,0,1.773,0,2.727v13.545C0,17.226,0.773,18,1.727,18z M2,3h20v13H2V3z M6.989,9.007
				c1.105,0,2.001-0.898,2.001-2.006c0-1.108-0.896-2.006-2.001-2.006S4.989,5.893,4.989,7.001C4.989,8.109,5.884,9.007,6.989,9.007
				z M10,12l-2-2l-4,4h16l-5-9L10,12z M4,24v-4l-4,2L4,24z M20,20v4l4-2L20,20z"/>
		</g>
	</g>
	<g id="Shape_5_copy">
		<g>
			<path fill-rule="evenodd" clip-rule="evenodd" fill="#FFFFFF" d="M1.727,17h20.545C23.227,17,24,16.227,24,15.273V1.727
				C24,0.773,23.227,0,22.273,0H1.727C0.773,0,0,0.773,0,1.727v13.545C0,16.227,0.773,17,1.727,17z M2,2h20v13H2V2z M6.989,8.007
				c1.105,0,2.001-0.898,2.001-2.006c0-1.108-0.896-2.006-2.001-2.006S4.989,4.894,4.989,6.002C4.989,7.109,5.884,8.007,6.989,8.007
				z M10,11L8,9l-4,4h16l-5-9L10,11z M4,23v-4l-4,2L4,23z M20,19v4l4-2L20,19z"/>
		</g>
	</g>
</g>
</svg>
