<?xml version="1.0" encoding="utf-8"?>
<!-- Generator: Adobe Illustrator 21.0.2, SVG Export Plug-In . SVG Version: 6.00 Build 0)  -->
<svg version="1.1" id="shape" xmlns="http://www.w3.org/2000/svg" xmlns:xlink="http://www.w3.org/1999/xlink" x="0px" y="0px"
	 width="34px" height="33px" viewBox="0 0 34 33" enable-background="new 0 0 34 33" xml:space="preserve">
<path fill="#972825" d="M18.1,21.9l-5.8-1.4L10.9,12c-0.9,0.1-1.7,0.2-2.6,0.3c-0.2,0-1.3,0.2-1.4,0.1l0,0c0.7,2,1.7,3.9,2.3,6
	c0.3,1.3,0.2,2.7-1.3,3.1c-2,0.5-3.2-1.3-5.5-0.7c-2,0.5-2.7,2.3-2.2,4.2s2.1,3.3,4.2,2.8c2.4-0.6,2.9-2.6,4.2-2.9
	c0.7-0.2,1.3,0.1,1.9,0.4c0.7,0.4,1,1.2,1.2,1.9c0,0.1,0,0.1,0.1,0.2c1,3.6,0.6,6.1,0.8,5.6l8.4-1.3l-1.3-4.6L18.1,21.9z M33.3,23.7
	c-0.4-0.4-1-0.8-1.7-0.8c-1.3,0-2.4,1.8-4.8,1.8c-1.4,0-2.3-0.7-2.9-1.7l-1.4,8.8h10.8v-0.1v-0.2c0.1-0.3,0.1-0.7,0.2-1
	c0.2-1.5,0.5-3,0.5-4.5C33.9,25,33.8,24.2,33.3,23.7z M23.4,20.4c0.2-1.7,1.3-3,3.2-3c2.3,0,3,2,5.1,2c1.6,0,2.1-1.4,2.1-2.7
	c0-1.9-0.4-3.8-0.6-5.7c0-0.2,0-0.4,0-0.6h-0.1c-1.5,0-2.9,0.6-4.4,0.6c-1.4,0-2.4-0.6-2.4-2c0-2,2.1-2.6,2.1-4.9
	c0-2-1.7-3.1-3.6-3.1c-2,0-3.9,1.1-3.9,3.2c0,2.3,1.9,3.4,1.9,4.6c0,0.6-0.4,1.2-0.9,1.6c-0.6,0.5-1.4,0.6-2.3,0.6
	c-0.5,0-2.5-0.3-3-0.3l1.4,7L23.4,20.4z"/>
<path fill="#FFFFFF" d="M18.2,20.9l-5.8-1.4L11,11c-0.9,0.1-1.7,0.2-2.6,0.3c-0.2,0-1.3,0.2-1.4,0.1l0,0c0.7,2,1.7,3.9,2.3,6
	c0.3,1.3,0.2,2.7-1.3,3.1c-2,0.5-3.2-1.3-5.5-0.7c-2,0.5-2.7,2.3-2.2,4.2s2.1,3.3,4.2,2.8c2.4-0.6,2.9-2.6,4.2-2.9
	c0.7-0.2,1.3,0.1,1.9,0.4c0.7,0.4,1,1.2,1.2,1.9c0,0.1,0,0.1,0.1,0.2c1,3.6,0.6,6.1,0.8,5.6l8.4-1.3l-1.3-4.6L18.2,20.9z M23.5,19.4
	c0.2-1.7,1.3-3,3.2-3c2.3,0,3,2,5.1,2c1.6,0,2.1-1.4,2.1-2.7c0-1.9-0.4-3.8-0.6-5.7c0-0.2,0-0.4,0-0.6h-0.1c-1.5,0-2.9,0.6-4.4,0.6
	c-1.4,0-2.4-0.6-2.4-2c0-2,2.1-2.6,2.1-4.9c0-2-1.7-3.1-3.6-3.1c-2,0-3.9,1.1-3.9,3.2c0,2.3,1.9,3.4,1.9,4.6c0,0.6-0.4,1.2-0.9,1.6
	c-0.6,0.5-1.4,0.6-2.3,0.6c-0.5,0-2.5-0.3-3-0.3l1.4,7L23.5,19.4z M33.3,22.7c-0.4-0.4-1-0.8-1.7-0.8c-1.3,0-2.4,1.8-4.8,1.8
	c-1.4,0-2.3-0.7-2.9-1.7l-1.4,8.8h10.8v-0.1v-0.2c0.1-0.3,0.1-0.7,0.2-1c0.2-1.5,0.5-3,0.5-4.5C34,24,33.9,23.2,33.3,22.7z"/>
</svg>
