<?xml version="1.0" encoding="utf-8"?>
<!-- Generator: Adobe Illustrator 16.0.0, SVG Export Plug-In . SVG Version: 6.00 Build 0)  -->
<!DOCTYPE svg PUBLIC "-//W3C//DTD SVG 1.1//EN" "http://www.w3.org/Graphics/SVG/1.1/DTD/svg11.dtd">
<svg version="1.1" id="Layer_1" xmlns="http://www.w3.org/2000/svg" xmlns:xlink="http://www.w3.org/1999/xlink" x="0px" y="0px"
	 width="35px" height="35px" viewBox="0 0 35 35" enable-background="new 0 0 35 35" xml:space="preserve">
<g>
	<g>
		<path fill="#FFFFFF" d="M8.44,0.645h-6.04c-1.112,0-2.014,0.902-2.014,2.014v18.121c0,1.111,0.902,2.012,2.014,2.012h6.04
			c1.112,0,2.014-0.9,2.014-2.012V2.658C10.454,1.546,9.552,0.645,8.44,0.645z M20.521,0.645h-6.04
			c-1.112,0-2.013,0.902-2.013,2.014v18.121c0,1.111,0.901,2.012,2.013,2.012h6.04c1.112,0,2.013-0.9,2.013-2.012V2.658
			C22.533,1.546,21.633,0.645,20.521,0.645z M32.6,0.645h-6.04c-1.111,0-2.013,0.902-2.013,2.014v18.121
			c0,1.111,0.901,2.012,2.013,2.012h6.04c1.111,0,2.014-0.9,2.014-2.012V2.658C34.613,1.546,33.711,0.645,32.6,0.645z
			 M27.566,34.871l6.039-5.035l-6.039-5.033V34.871z M7.434,34.871V24.803l-7.046,5.033L7.434,34.871z"/>
	</g>
</g>
<g>
	<g>
		<path fill="#9DA6BC" d="M8.44,0.129h-6.04c-1.112,0-2.014,0.901-2.014,2.013v18.119c0,1.113,0.902,2.012,2.014,2.012h6.04
			c1.112,0,2.013-0.898,2.013-2.012V2.143C10.454,1.031,9.552,0.129,8.44,0.129z M20.521,0.129h-6.04
			c-1.112,0-2.013,0.901-2.013,2.013v18.119c0,1.113,0.901,2.012,2.013,2.012h6.04c1.112,0,2.013-0.898,2.013-2.012V2.143
			C22.533,1.031,21.633,0.129,20.521,0.129z M32.6,0.129h-6.04c-1.111,0-2.013,0.901-2.013,2.013v18.119
			c0,1.113,0.901,2.012,2.013,2.012h6.04c1.111,0,2.014-0.898,2.014-2.012V2.143C34.613,1.031,33.711,0.129,32.6,0.129z
			 M27.566,34.354l6.039-5.031l-6.039-5.033V34.354z M7.434,34.354V24.289l-7.046,5.033L7.434,34.354z"/>
	</g>
</g>
</svg>
