<?xml version="1.0" encoding="utf-8"?>
<!-- Generator: Adobe Illustrator 16.0.0, SVG Export Plug-In . SVG Version: 6.00 Build 0)  -->
<!DOCTYPE svg PUBLIC "-//W3C//DTD SVG 1.1//EN" "http://www.w3.org/Graphics/SVG/1.1/DTD/svg11.dtd">
<svg version="1.1" id="Layer_1" xmlns="http://www.w3.org/2000/svg" xmlns:xlink="http://www.w3.org/1999/xlink" x="0px" y="0px"
	 width="20px" height="21px" viewBox="0 0 20 21" enable-background="new 0 0 20 21" xml:space="preserve">
<g>
	<path fill="#485061" d="M6.435,8.448c-0.7,0-1.228,0.227-1.584,0.679s-0.535,1.116-0.535,1.992c0,0.879,0.177,1.546,0.532,1.999
		c0.355,0.455,0.88,0.682,1.577,0.682c0.693,0,1.217-0.225,1.57-0.674s0.53-1.118,0.53-2.007c0-0.876-0.175-1.54-0.525-1.992
		S7.128,8.448,6.435,8.448z"/>
	<path fill="#485061" d="M16.666,1H3.333C1.493,1,0,2.493,0,4.333v13.333C0,19.506,1.493,21,3.333,21h13.333
		C18.506,21,20,19.506,20,17.667V4.333C20,2.493,18.506,1,16.666,1z M8.894,13.829c-0.581,0.645-1.404,0.967-2.468,0.967
		c-1.078,0-1.905-0.32-2.483-0.959c-0.578-0.641-0.867-1.549-0.867-2.728s0.291-2.083,0.872-2.715s1.41-0.947,2.488-0.947
		c1.061,0,1.881,0.32,2.461,0.962s0.869,1.545,0.869,2.71C9.765,12.281,9.475,13.185,8.894,13.829z M15.396,15l-2.476-3.383
		L12,12.027V15h-1V8h1v2.968c1-0.391,0.869-0.546,1.184-0.908L15.347,8h1.328c-1.246,1-2.141,2.438-2.682,3.061L16.747,15H15.396z"
		/>
</g>
<g>
	<path fill="#FFFFFF" d="M6.435,7.448c-0.7,0-1.228,0.227-1.584,0.679s-0.535,1.116-0.535,1.992c0,0.879,0.177,1.546,0.532,1.999
		c0.355,0.455,0.88,0.682,1.577,0.682c0.693,0,1.217-0.225,1.57-0.674s0.53-1.118,0.53-2.007c0-0.876-0.175-1.54-0.525-1.992
		S7.128,7.448,6.435,7.448z"/>
	<path fill="#FFFFFF" d="M16.666,0H3.333C1.493,0,0,1.493,0,3.333v13.333C0,18.506,1.493,20,3.333,20h13.333
		C18.506,20,20,18.506,20,16.667V3.333C20,1.493,18.506,0,16.666,0z M8.894,12.829c-0.581,0.645-1.404,0.967-2.468,0.967
		c-1.078,0-1.905-0.32-2.483-0.959c-0.578-0.641-0.867-1.549-0.867-2.728s0.291-2.083,0.872-2.715s1.41-0.947,2.488-0.947
		c1.061,0,1.881,0.32,2.461,0.962s0.869,1.545,0.869,2.71C9.765,11.281,9.475,12.185,8.894,12.829z M15.396,14l-2.476-3.383
		L12,11.027V14h-1V7h1v2.968c1-0.391,0.869-0.546,1.184-0.908L15.347,7h1.328c-1.246,1-2.141,2.438-2.682,3.061L16.747,14H15.396z"
		/>
</g>
</svg>
