<?xml version="1.0" encoding="utf-8"?>
<!-- Generator: Adobe Illustrator 16.0.0, SVG Export Plug-In . SVG Version: 6.00 Build 0)  -->
<!DOCTYPE svg PUBLIC "-//W3C//DTD SVG 1.1//EN" "http://www.w3.org/Graphics/SVG/1.1/DTD/svg11.dtd">
<svg version="1.1" id="Layer_1" xmlns="http://www.w3.org/2000/svg" xmlns:xlink="http://www.w3.org/1999/xlink" x="0px" y="0px"
	 width="34px" height="34px" viewBox="0 0 34 34" enable-background="new 0 0 34 34" xml:space="preserve">
<g>
	<g>
		<path fill="#FFFFFF" d="M30.577,1.109H3.422c-1.666,0-3.017,1.351-3.017,3.017v26.149c0,1.665,1.351,3.017,3.017,3.017h27.155
			c1.665,0,3.017-1.352,3.017-3.017V4.126C33.594,2.46,32.242,1.109,30.577,1.109z M6.439,31.28H2.417v-4.023h4.023V31.28z
			 M6.439,25.246H2.417v-4.023h4.023V25.246z M6.439,19.212H2.417v-4.023h4.023V19.212z M6.439,13.177H2.417V9.155h4.023V13.177z
			 M6.439,7.144H2.417V3.121h4.023V7.144z M25.548,31.28H8.451V3.121h17.097V31.28L25.548,31.28z M31.582,31.28H27.56v-4.023h4.022
			V31.28z M31.582,25.246H27.56v-4.023h4.022V25.246z M31.582,19.212H27.56v-4.023h4.022V19.212z M31.582,13.177H27.56V9.155h4.022
			V13.177z M31.582,7.144H27.56V3.121h4.022V7.144z M12.871,22.638c0.104,0.056,0.218,0.083,0.333,0.083
			c0.129,0,0.258-0.034,0.371-0.106l7.591-4.831c0.2-0.128,0.321-0.348,0.321-0.584c0-0.236-0.121-0.455-0.321-0.582l-7.591-4.831
			c-0.212-0.135-0.482-0.144-0.703-0.023c-0.22,0.121-0.357,0.354-0.357,0.605v9.661C12.514,22.283,12.651,22.515,12.871,22.638z
			 M13.894,13.626l5.615,3.573l-5.615,3.576V13.626z"/>
	</g>
</g>
<g>
	<g>
		<path fill="#9DA3B7" d="M30.577,0.709H3.422c-1.666,0-3.017,1.351-3.017,3.017v26.147c0,1.668,1.351,3.02,3.017,3.02h27.155
			c1.665,0,3.017-1.352,3.017-3.02V3.726C33.594,2.06,32.242,0.709,30.577,0.709z M6.439,30.879H2.417v-4.021h4.023V30.879z
			 M6.439,24.845H2.417v-4.021h4.023V24.845z M6.439,18.812H2.417v-4.023h4.023V18.812z M6.439,12.778H2.417V8.755h4.023V12.778z
			 M6.439,6.743H2.417V2.72h4.023V6.743z M25.548,30.879H8.451V2.72h17.097V30.879L25.548,30.879z M31.582,30.879H27.56v-4.021
			h4.022V30.879z M31.582,24.845H27.56v-4.021h4.022V24.845z M31.582,18.812H27.56v-4.023h4.022V18.812z M31.582,12.778H27.56V8.755
			h4.022V12.778z M31.582,6.743H27.56V2.72h4.022V6.743z M12.871,22.235c0.104,0.057,0.218,0.085,0.333,0.085
			c0.129,0,0.258-0.036,0.371-0.106l7.591-4.831c0.2-0.127,0.321-0.347,0.321-0.582c0-0.237-0.121-0.456-0.321-0.583l-7.591-4.831
			c-0.212-0.135-0.482-0.144-0.703-0.023c-0.22,0.122-0.357,0.354-0.357,0.605v9.663C12.514,21.882,12.651,22.115,12.871,22.235z
			 M13.894,13.226l5.615,3.575l-5.615,3.572V13.226z"/>
	</g>
</g>
</svg>
