<?xml version="1.0" encoding="utf-8"?>
<!-- Generator: Adobe Illustrator 22.0.1, SVG Export Plug-In . SVG Version: 6.00 Build 0)  -->
<svg version="1.1" id="Layer_1" xmlns="http://www.w3.org/2000/svg" xmlns:xlink="http://www.w3.org/1999/xlink" x="0px" y="0px"
	 width="24px" height="24px" viewBox="0 0 24 24" enable-background="new 0 0 24 24" xml:space="preserve">
<g>
	<g>
		<g>
			<path fill="#FFFFFF" d="M21.6,9.6H24c-0.2-3.9-2.1-7.2-5-9.4l-1.7,1.7C19.8,3.6,21.4,6.4,21.6,9.6z"/>
			<path fill="#FFFFFF" d="M6.7,1.9L5,0.2C2.1,2.4,0.2,5.8,0,9.6h2.4C2.6,6.4,4.2,3.6,6.7,1.9z"/>
			<path fill="#FFFFFF" d="M19.2,10.2c0-3.7-2-6.8-5.4-7.6V1.8C13.8,0.8,13,0,12,0s-1.8,0.8-1.8,1.8v0.8c-3.4,0.8-5.4,3.9-5.4,7.6v6
				l-2.4,2.4v1.2h19.2v-1.2l-2.4-2.4L19.2,10.2L19.2,10.2z"/>
			<path fill="#FFFFFF" d="M12,23.5L12,23.5c0.2,0,0.3,0,0.5-0.1c0.8-0.2,1.4-0.7,1.7-1.4c0.1-0.3,0.2-0.6,0.2-0.9H9.6
				C9.6,22.4,10.7,23.5,12,23.5z"/>
		</g>
	</g>
</g>
</svg>
