<?xml version="1.0" encoding="utf-8"?>
<!-- Generator: Adobe Illustrator 17.0.0, SVG Export Plug-In . SVG Version: 6.00 Build 0)  -->
<!DOCTYPE svg PUBLIC "-//W3C//DTD SVG 1.1//EN" "http://www.w3.org/Graphics/SVG/1.1/DTD/svg11.dtd">
<svg version="1.1" id="Group" xmlns="http://www.w3.org/2000/svg" xmlns:xlink="http://www.w3.org/1999/xlink" x="0px" y="0px"
	 width="86px" height="52px" viewBox="0 0 86 52" enable-background="new 0 0 86 52" xml:space="preserve">
<g id="icon">
	<path id="_x33_" fill="#5A6378" d="M49.076,29.936l3.814-5.297l4.104-0.88v4.171c0,1.108-0.894,2.006-1.997,2.006H49.076
		 M59,19.936l-2.656,2.172L52,22.936l-3.234,4.984L46,28.936l-2,3l0.402-0.004L44.4,31.936h10.595c2.209,0,4-1.791,4-4V23.25
		L59,23.248V19.936"/>
	<path id="_x32_" fill="#5A6378" d="M30.992,29.936c-1.103,0-1.997-0.898-1.997-2.006v-0.968l7.997-7.08l5.792,5.843l-2.779,4.169
		l0.021,0.042H30.992 M44.027,23.948l-1.521-1.429l8.5-8.625l3.2,3.2l-4.2,1.8L47.594,23.9L44.027,23.948 M28.995,24.236V3.942
		c0-1.108,0.894-2.006,1.997-2.006h24.006c1.103,0,1.997,0.898,1.997,2.006v11.957l-0.757,0.324l-5.235-5.294L41.084,21.02
		l-4.078-4.125L28.995,24.236 M54.995-0.064h-24c-2.209,0-4,1.791-4,4v24c0,2.209,1.791,4,4,4H41.03l3.876-6.078l3.547-0.031
		l2.693-5.729l4.859-1.203l1.333-1.333l0.997,0.199l0.66,0.187v-0.056l0.01,0.002l-0.01-0.01V3.936
		C58.995,1.727,57.204-0.064,54.995-0.064"/>
	<path id="_x31_" fill="#5A6378" d="M36,10.931c-1.105,0-2-0.895-2-2s0.895-2,2-2s2,0.895,2,2S37.105,10.931,36,10.931 M36,4.931
		c-2.209,0-4,1.791-4,4s1.791,4,4,4s4-1.791,4-4S38.209,4.931,36,4.931"/>
</g>
<g id="title">
	<path id="_x30__11_" fill="#434F53" d="M3.684,51.936H2.18v-9.28h5.237v1.282H3.685v2.9h3.498v1.289H3.685L3.684,51.936
		L3.684,51.936z"/>
	<path id="_x30__10_" fill="#434F53" d="M8.617,43.055c0-0.267,0.073-0.472,0.219-0.615c0.146-0.145,0.354-0.216,0.625-0.216
		c0.262,0,0.466,0.071,0.613,0.216c0.146,0.144,0.219,0.349,0.219,0.615c0,0.254-0.073,0.454-0.219,0.601
		c-0.146,0.146-0.351,0.219-0.613,0.219c-0.271,0-0.479-0.073-0.625-0.219C8.69,43.509,8.617,43.309,8.617,43.055z M10.198,51.936
		H8.706v-7.021h1.492V51.936z"/>
	<path id="_x30__9_" fill="#434F53" d="M13.588,51.936h-1.492v-9.877h1.492V51.936z"/>
	<path id="_x30__8_" fill="#434F53" d="M18.553,52.063c-1.092,0-1.946-0.318-2.561-0.955c-0.616-0.637-0.924-1.515-0.924-2.632
		c0-1.146,0.286-2.048,0.857-2.704c0.571-0.655,1.356-0.983,2.355-0.983c0.927,0,1.659,0.281,2.196,0.844
		c0.538,0.563,0.806,1.338,0.806,2.323v0.807h-4.678c0.021,0.681,0.205,1.205,0.552,1.571s0.836,0.549,1.466,0.549
		c0.415,0,0.801-0.039,1.158-0.117c0.358-0.078,0.742-0.209,1.152-0.391v1.212c-0.364,0.174-0.732,0.297-1.104,0.369
		C19.456,52.027,19.031,52.063,18.553,52.063z M18.28,45.918c-0.474,0-0.854,0.15-1.14,0.45c-0.285,0.301-0.456,0.738-0.511,1.314
		h3.187c-0.008-0.58-0.148-1.019-0.419-1.317C19.126,46.068,18.754,45.918,18.28,45.918z"/>
	<path id="_x30__7_" fill="#434F53" d="M32.062,51.936h-1.498V47.62c0-0.542-0.109-0.946-0.327-1.213s-0.564-0.399-1.038-0.399
		c-0.63,0-1.092,0.186-1.384,0.559c-0.292,0.372-0.438,0.996-0.438,1.872v3.498h-1.492v-7.021h1.169l0.209,0.92h0.076
		c0.211-0.334,0.512-0.592,0.901-0.774s0.821-0.272,1.295-0.272c1.684,0,2.526,0.856,2.526,2.57L32.062,51.936L32.062,51.936z"/>
	<path id="_x30__6_" fill="#434F53" d="M40.131,48.413c0,1.147-0.294,2.042-0.882,2.686c-0.588,0.644-1.407,0.965-2.456,0.965
		c-0.656,0-1.236-0.148-1.74-0.444c-0.504-0.296-0.891-0.722-1.162-1.276c-0.271-0.554-0.406-1.197-0.406-1.93
		c0-1.138,0.292-2.026,0.876-2.666c0.584-0.639,1.407-0.958,2.469-0.958c1.016,0,1.82,0.327,2.412,0.98
		C39.835,46.423,40.131,47.304,40.131,48.413z M35.021,48.413c0,1.621,0.599,2.432,1.797,2.432c1.185,0,1.777-0.811,1.777-2.432
		c0-1.604-0.598-2.405-1.791-2.405c-0.626,0-1.079,0.207-1.361,0.622C35.162,47.043,35.021,47.638,35.021,48.413z"/>
	<path id="_x30__5_" fill="#434F53" d="M44.226,50.857c0.364,0,0.728-0.058,1.092-0.171v1.123c-0.165,0.072-0.378,0.132-0.638,0.181
		c-0.261,0.049-0.53,0.073-0.81,0.073c-1.413,0-2.12-0.745-2.12-2.234v-3.783h-0.958v-0.66l1.027-0.546l0.508-1.485h0.921v1.562
		h1.999v1.13h-1.999v3.758c0,0.359,0.089,0.625,0.269,0.797C43.698,50.771,43.934,50.857,44.226,50.857z"/>
	<path id="_x30__4_" fill="#434F53" d="M53.153,46.045h-1.715v5.891H49.94v-5.891h-1.154v-0.698l1.154-0.457v-0.457
		c0-0.83,0.195-1.444,0.584-1.844c0.39-0.4,0.984-0.601,1.784-0.601c0.524,0,1.041,0.087,1.549,0.261l-0.394,1.13
		c-0.368-0.119-0.72-0.178-1.054-0.178c-0.339,0-0.585,0.104-0.739,0.314c-0.154,0.209-0.232,0.523-0.232,0.942v0.457h1.715V46.045z
		"/>
	<path id="_x30__3_" fill="#434F53" d="M60.338,48.413c0,1.147-0.294,2.042-0.882,2.686c-0.588,0.644-1.407,0.965-2.456,0.965
		c-0.656,0-1.236-0.148-1.74-0.444c-0.503-0.296-0.891-0.722-1.161-1.276c-0.271-0.554-0.406-1.197-0.406-1.93
		c0-1.138,0.292-2.026,0.876-2.666c0.584-0.639,1.407-0.958,2.469-0.958c1.016,0,1.82,0.327,2.412,0.98S60.338,47.304,60.338,48.413
		z M55.229,48.413c0,1.621,0.599,2.432,1.797,2.432c1.185,0,1.777-0.811,1.777-2.432c0-1.604-0.598-2.405-1.791-2.405
		c-0.626,0-1.08,0.207-1.361,0.622C55.369,47.043,55.229,47.638,55.229,48.413z"/>
	<path id="_x30__2_" fill="#434F53" d="M66.77,51.936l-0.209-0.92h-0.076c-0.208,0.325-0.503,0.581-0.886,0.768
		c-0.383,0.187-0.82,0.279-1.312,0.279c-0.85,0-1.484-0.212-1.904-0.635c-0.418-0.423-0.628-1.064-0.628-1.923v-4.59h1.505v4.329
		c0,0.538,0.109,0.94,0.33,1.209c0.22,0.269,0.564,0.403,1.034,0.403c0.626,0,1.087-0.188,1.381-0.562
		c0.294-0.375,0.44-1.002,0.44-1.883v-3.497h1.498v7.021L66.77,51.936L66.77,51.936z"/>
	<path id="_x30__1_" fill="#434F53" d="M76.012,51.936h-1.498V47.62c0-0.542-0.108-0.946-0.326-1.213
		c-0.218-0.267-0.564-0.399-1.038-0.399c-0.631,0-1.092,0.186-1.384,0.559c-0.292,0.372-0.438,0.996-0.438,1.872v3.498h-1.492
		v-7.021h1.168l0.209,0.92h0.076c0.212-0.334,0.513-0.592,0.902-0.774s0.82-0.272,1.295-0.272c1.684,0,2.525,0.856,2.525,2.57
		L76.012,51.936L76.012,51.936z"/>
	<path id="_x30_" fill="#434F53" d="M80.221,52.063c-0.875,0-1.559-0.317-2.05-0.952c-0.491-0.635-0.736-1.525-0.736-2.673
		c0-1.15,0.249-2.047,0.746-2.688c0.497-0.642,1.186-0.962,2.065-0.962c0.923,0,1.625,0.341,2.107,1.021h0.076
		c-0.071-0.503-0.107-0.901-0.107-1.193v-2.558h1.498v9.877h-1.168l-0.26-0.92h-0.07C81.844,51.713,81.144,52.063,80.221,52.063z
		 M80.621,50.857c0.613,0,1.061-0.173,1.34-0.518c0.279-0.345,0.423-0.904,0.432-1.679v-0.21c0-0.884-0.145-1.513-0.432-1.885
		c-0.288-0.373-0.739-0.559-1.353-0.559c-0.524,0-0.929,0.213-1.212,0.638c-0.284,0.426-0.426,1.031-0.426,1.818
		c0,0.779,0.138,1.372,0.412,1.781C79.658,50.653,80.072,50.857,80.621,50.857z"/>
</g>
</svg>
