<svg xmlns="http://www.w3.org/2000/svg" width="39" height="39" viewBox="0 0 39 39"><path fill="#FF9600" d="M19.5 39L39 23.4V7.8L29.25 0 19.5 7.8 9.75 0 0 7.8v15.6"/><path fill="#BC1B00" d="M9.7 31.16L19.5 39l9.8-7.84-9.8-7.76"/><g><path fill="#FFC600" d="M9.75 0v15.6L0 7.8"/><path fill="#FF9000" d="M9.75 15.6v15.6L0 23.4"/><path fill="#FF7200" d="M19.5 7.8v15.6l-9.75-7.8"/><path fill="#FFCE25" d="M29.25 0v15.6L19.5 7.8"/><path fill="#E12D1A" d="M29.25 15.6v15.6l-9.75-7.8"/><path fill="#BC1B00" d="M19.5 23.4V39l-9.75-7.8"/><path fill="#FFC600" d="M39 7.8v15.6l-9.75-7.8"/><path fill="#FF8A00" d="M29.25 15.6v15.6L39 23.4"/><path fill="#FFE748" d="M29.25 0v15.6L39 7.8"/><path fill="#FF9600" d="M19.5 7.8v15.6l9.75-7.8"/><path fill="#FF9C00" d="M9.75 0v15.6l9.75-7.8"/><path fill="#DD2A00" d="M9.75 15.6v15.6l9.75-7.8"/><path fill="#B1150A" d="M19.5 23.4V39l9.75-7.8"/><path fill="#FFA800" d="M0 7.8v15.6l9.75-7.8"/></g></svg>