<?xml version="1.0" encoding="utf-8"?>
<!-- Generator: Adobe Illustrator 17.0.0, SVG Export Plug-In . SVG Version: 6.00 Build 0)  -->
<!DOCTYPE svg PUBLIC "-//W3C//DTD SVG 1.1//EN" "http://www.w3.org/Graphics/SVG/1.1/DTD/svg11.dtd">
<svg version="1.1" id="Rounded_Rectangle_2_copy_7_1_"
	 xmlns="http://www.w3.org/2000/svg" xmlns:xlink="http://www.w3.org/1999/xlink" x="0px" y="0px" width="38px" height="34px"
	 viewBox="0 0 38 34" enable-background="new 0 0 38 34" xml:space="preserve">
<g id="Rounded_Rectangle_2_copy_7_3_">
	<g>
		<path fill="#FFFFFF" d="M35,25H3c-1.657,0-3,1.343-3,3v3c0,1.657,1.343,3,3,3h32c1.657,0,3-1.343,3-3v-3
			C38,26.343,36.657,25,35,25z M36,32h-8v-5h8V32z M35,1H3C1.343,1,0,2.343,0,4v3c0,1.657,1.343,3,3,3h32c1.657,0,3-1.343,3-3V4
			C38,2.343,36.657,1,35,1z M36,8H10V3h26V8z M35,13H3c-1.657,0-3,1.343-3,3v3c0,1.657,1.343,3,3,3h32c1.657,0,3-1.343,3-3v-3
			C38,14.343,36.657,13,35,13z M36,20H19v-5h17V20z"/>
	</g>
</g>
<g id="Rounded_Rectangle_2_copy_7">
	<g>
		<path fill="#9DA6BB" d="M35,12H3c-1.657,0-3,1.343-3,3v3c0,1.657,1.343,3,3,3h32c1.657,0,3-1.343,3-3v-3
			C38,13.343,36.657,12,35,12z M36,19H19v-5h17V19z M35,24H3c-1.657,0-3,1.343-3,3v3c0,1.657,1.343,3,3,3h32c1.657,0,3-1.343,3-3v-3
			C38,25.343,36.657,24,35,24z M36,31h-8v-5h8V31z M35,0H3C1.343,0,0,1.343,0,3v3c0,1.657,1.343,3,3,3h32c1.657,0,3-1.343,3-3V3
			C38,1.343,36.657,0,35,0z M36,7H10V2h26V7z"/>
	</g>
</g>
</svg>
