<?xml version="1.0" encoding="utf-8"?>
<!-- Generator: Adobe Illustrator 21.0.2, SVG Export Plug-In . SVG Version: 6.00 Build 0)  -->
<svg version="1.1" id="Ellipse_2_1_" xmlns="http://www.w3.org/2000/svg" xmlns:xlink="http://www.w3.org/1999/xlink" x="0px"
	 y="0px" width="40px" height="29px" viewBox="0 0 40 29" enable-background="new 0 0 40 29" xml:space="preserve">
<g id="Ellipse_2_3_">
	<g>
		<path fill="#FFFFFF" d="M25.5,1c-7.7,0-14,6.3-14,14s6.3,14,14,14s14-6.3,14-14S33.2,1,25.5,1z M25.5,19c-2.2,0-4-1.8-4-4
			s1.8-4,4-4s4,1.8,4,4S27.7,19,25.5,19z M4.5,11c-2.2,0-4,1.8-4,4s1.8,4,4,4c2.2,0,4-1.8,4-4S6.7,11,4.5,11z"/>
	</g>
</g>
<g id="Ellipse_2">
	<g>
		<path fill="#9EA6BB" d="M25.5,0c-7.7,0-14,6.3-14,14s6.3,14,14,14s14-6.3,14-14S33.2,0,25.5,0z M25.5,18c-2.2,0-4-1.8-4-4
			s1.8-4,4-4s4,1.8,4,4S27.7,18,25.5,18z M4.5,10c-2.2,0-4,1.8-4,4s1.8,4,4,4c2.2,0,4-1.8,4-4S6.7,10,4.5,10z"/>
	</g>
</g>
</svg>
