<?xml version="1.0" encoding="utf-8"?>
<!-- Generator: Adobe Illustrator 21.0.2, SVG Export Plug-In . SVG Version: 6.00 Build 0)  -->
<svg version="1.1" id="Rounded_Rectangle_2_1_" xmlns="http://www.w3.org/2000/svg" xmlns:xlink="http://www.w3.org/1999/xlink"
	 x="0px" y="0px" width="46px" height="33px" viewBox="0 0 46 33" enable-background="new 0 0 46 33" xml:space="preserve">
<g id="Rounded_Rectangle_2_3_">
	<g>
		<path fill="#9EA6BB" d="M18,31c-0.6,0-1,0.4-1,1s0.4,1,1,1s1-0.4,1-1S18.6,31,18,31z M23,31c-0.6,0-1,0.4-1,1s0.4,1,1,1s1-0.4,1-1
			S23.6,31,23,31z M28,31c-0.6,0-1,0.4-1,1s0.4,1,1,1c0.6,0,1-0.4,1-1S28.6,31,28,31z M4,19.2v-8.5l-4,4.2L4,19.2z M42,10.8v8.5
			l4-4.2L42,10.8z M37,0H9C7.3,0,6,1.3,6,3v23c0,1.7,1.3,3,3,3h28c1.7,0,3-1.3,3-3V3C40,1.3,38.7,0,37,0z M37,26H9V3h28V26z M29,8
			H17v1h12V8z M31,11H15v1h16V11z M27.5,16h-9c-1.4,0-2.5,1.1-2.5,2.5s1.1,2.5,2.5,2.5h9c1.4,0,2.5-1.1,2.5-2.5S28.9,16,27.5,16z"/>
	</g>
</g>
</svg>
