<svg xmlns="http://www.w3.org/2000/svg" width="24" height="21" viewBox="0 0 24 21">
  <g fill="none" fill-rule="evenodd">
    <g fill="#FFF" fill-rule="nonzero">
      <polygon points="5.5 11 5.5 6 3 8.4"/>
      <path d="M22.0349834,0 L2.09856984,0 C0.899387076,0 0,0.708333333 0,1.84166667 L0,15.1583333 C0,16.2916667 0.899387076,17 2.09856984,17 L21.8850855,17 C23.0842683,17 23.9836554,16.2916667 23.9836554,15.1583333 L23.9836554,1.84166667 C24.1335532,0.708333333 23.2341661,0 22.0349834,0 Z M22,15 L2,15 L2,2 L21.8496241,2 L21.8496241,15 C21.8496241,15 22,15 22,15 Z"/>
      <path d="M10.2.5C9.6.5 9.2.9 9.2 1.5 9.2 2.1 9.6 2.5 10.2 2.5 10.8 2.5 11.2 2.1 11.2 1.5 11.2.9 10.8.5 10.2.5zM1.8.5C1.2.5.8.9.8 1.5.8 2.1 1.2 2.5 1.8 2.5 2.4 2.5 2.8 2.1 2.8 1.5 2.8.9 2.4.5 1.8.5zM6 .5C5.4.5 5 .9 5 1.5 5 2.1 5.4 2.5 6 2.5 6.6 2.5 7 2.1 7 1.5 7 .9 6.6.5 6 .5z" transform="translate(6 18)"/>
    </g>
    <polygon fill="#FFF" fill-rule="nonzero" points="18.5 6 18.5 11 21 8.5"/>
    <path stroke="#FFF" stroke-linecap="square" d="M8.5 6.5L15.5 6.5M7.5 8.5L16.5 8.5M10.5 10.5L13.5 10.5"/>
  </g>
</svg>
