<?xml version="1.0" encoding="utf-8"?>
<!-- Generator: Adobe Illustrator 21.0.2, SVG Export Plug-In . SVG Version: 6.00 Build 0)  -->
<svg version="1.1" id="Group_3_copy_2_1_" xmlns="http://www.w3.org/2000/svg" xmlns:xlink="http://www.w3.org/1999/xlink" x="0px"
	 y="0px" width="32px" height="33px" viewBox="0 0 32 33" enable-background="new 0 0 32 33" xml:space="preserve">
<g id="Rounded_Rectangle_8">
	<g>
		<path fill="#9EA6BB" d="M29,0H3C1.3,0,0,1.3,0,3v27c0,1.7,1.3,3,3,3h26c1.7,0,3-1.3,3-3V3C32,1.3,30.7,0,29,0z M29,30H3V3h26V30z"
			/>
	</g>
</g>
<g id="post_name_copy">
	<g>
		<path fill="#9EA6BB" d="M19.5,13.6c-0.2-0.2-0.4-0.5-0.6-1.1L16.1,6H16l-2.7,6.3c-0.3,0.6-0.5,1-0.6,1.2c-0.2,0.2-0.4,0.3-0.7,0.3
			V14h2.5v-0.2c-0.4,0-0.6-0.1-0.7-0.1c-0.2-0.1-0.3-0.3-0.3-0.5s0.1-0.4,0.2-0.6l0.3-0.8h2.7l0.4,1c0.1,0.3,0.2,0.4,0.2,0.4
			c0,0.1,0,0.1,0,0.2c0,0.1,0,0.2-0.1,0.3s-0.3,0.1-0.6,0.1h-0.2V14H20v-0.2C19.8,13.8,19.6,13.7,19.5,13.6z M14.2,11.3l1.2-2.7
			l1.1,2.7H14.2z"/>
	</g>
</g>
<g id="Rounded_Rectangle_10_copy_4">
	<g>
		<path fill="#9EA6BB" d="M8,17c-0.6,0-1,0.4-1,1s0.4,1,1,1s1-0.4,1-1S8.6,17,8,17z M13,19h11c0.6,0,1-0.4,1-1s-0.4-1-1-1H13
			c-0.6,0-1,0.4-1,1S12.4,19,13,19z M8,21c-0.6,0-1,0.4-1,1s0.4,1,1,1s1-0.4,1-1S8.6,21,8,21z M24,21H13c-0.6,0-1,0.4-1,1s0.4,1,1,1
			h11c0.6,0,1-0.4,1-1S24.6,21,24,21z M8,25c-0.6,0-1,0.4-1,1s0.4,1,1,1s1-0.4,1-1S8.6,25,8,25z M24,25H13c-0.6,0-1,0.4-1,1
			s0.4,1,1,1h11c0.6,0,1-0.4,1-1S24.6,25,24,25z"/>
	</g>
</g>
</svg>
