<?xml version="1.0" encoding="utf-8"?>
<!-- Generator: Adobe Illustrator 21.0.2, SVG Export Plug-In . SVG Version: 6.00 Build 0)  -->
<svg version="1.1" id="Group_3_copy_2_1_" xmlns="http://www.w3.org/2000/svg" xmlns:xlink="http://www.w3.org/1999/xlink" x="0px"
	 y="0px" width="21px" height="22px" viewBox="0 0 21 22" enable-background="new 0 0 21 22" xml:space="preserve">
<g>
	<g id="Rounded_Rectangle_8_2_">
		<g>
			<path fill="#FFFFFF" d="M19,0H2C0.9,0,0,0.9,0,2v18c0,1.1,0.9,2,2,2h17c1.1,0,2-0.9,2-2V2C21,0.9,20.1,0,19,0z M19,20H2V2h17V20z
				"/>
		</g>
	</g>
	<g id="post_name_copy_2_">
		<g>
			<path fill="#FFFFFF" d="M12.8,9.1c-0.1-0.1-0.3-0.3-0.4-0.7L10.6,4h-0.1L8.7,8.2C8.5,8.6,8.4,8.9,8.3,9C8.2,9.1,8.1,9.2,7.9,9.2
				v0.1h1.6V9.2C9.2,9.2,9.1,9.1,9,9.1c-0.1,0-0.1-0.2-0.1-0.3s0-0.3,0.1-0.4l0.2-0.5H11l0.3,0.7c0.1,0.2,0.1,0.3,0.1,0.3
				c0,0.1,0,0.1,0,0.1s0,0.1-0.1,0.2c-0.1,0.1-0.2,0.1-0.4,0.1h-0.1v0.1h2.4V9.2C13,9.2,12.9,9.1,12.8,9.1z M9.3,7.5l0.8-1.8
				l0.7,1.8H9.3z"/>
		</g>
	</g>
	<g id="Rounded_Rectangle_10_copy_4_2_">
		<g>
			<path fill="#FFFFFF" d="M5.3,11.3c-0.4,0-0.7,0.3-0.7,0.7s0.3,0.7,0.7,0.7S6,12.4,6,12S5.6,11.3,5.3,11.3z M8.5,12.7h7.2
				c0.4,0,0.7-0.3,0.7-0.7s-0.3-0.7-0.7-0.7H8.5c-0.4,0-0.7,0.3-0.7,0.7S8.1,12.7,8.5,12.7z M5.3,14c-0.4,0-0.7,0.3-0.7,0.7
				s0.3,0.7,0.7,0.7S6,15.1,6,14.7C5.9,14.3,5.6,14,5.3,14z M15.8,14H8.5c-0.4,0-0.7,0.3-0.7,0.7s0.3,0.7,0.7,0.7h7.2
				c0.4,0,0.7-0.3,0.7-0.7S16.1,14,15.8,14z M5.3,16.7c-0.4,0-0.7,0.3-0.7,0.7c0,0.4,0.3,0.7,0.7,0.7S6,17.8,6,17.4
				C5.9,16.9,5.6,16.7,5.3,16.7z M15.8,16.7H8.5c-0.4,0-0.7,0.3-0.7,0.7c0,0.4,0.3,0.7,0.7,0.7h7.2c0.4,0,0.7-0.3,0.7-0.7
				C16.4,16.9,16.1,16.7,15.8,16.7z"/>
		</g>
	</g>
</g>
</svg>
