<?xml version="1.0" encoding="utf-8"?>
<!-- Generator: Adobe Illustrator 21.0.2, SVG Export Plug-In . SVG Version: 6.00 Build 0)  -->
<svg version="1.1" id="Mosaic_gallery_copy_1_" xmlns="http://www.w3.org/2000/svg" xmlns:xlink="http://www.w3.org/1999/xlink"
	 x="0px" y="0px" width="30px" height="31px" viewBox="0 0 30 31" enable-background="new 0 0 30 31" xml:space="preserve">
<g id="Mosaic_gallery_copy_3_" opacity="0.5">
	<g>
		<path fill="#FFFFFF" d="M6,1H2C0.9,1,0,1.9,0,3v14c0,1.1,0.9,2,2,2h4c1.1,0,2-0.9,2-2V3C8,1.9,7.1,1,6,1z M17,1h-4
			c-1.1,0-2,0.9-2,2v6c0,1.1,0.9,2,2,2h4c1.1,0,2-0.9,2-2V3C19,1.9,18.1,1,17,1z M6,22H2c-1.1,0-2,0.9-2,2v5c0,1.1,0.9,2,2,2h4
			c1.1,0,2-0.9,2-2v-5C8,22.9,7.1,22,6,22z M28,18h-4c-1.1,0-2,0.9-2,2v9c0,1.1,0.9,2,2,2h4c1.1,0,2-0.9,2-2v-9
			C30,18.9,29.1,18,28,18z M17,14h-4c-1.1,0-2,0.9-2,2v13c0,1.1,0.9,2,2,2h4c1.1,0,2-0.9,2-2V16C19,14.9,18.1,14,17,14z M28,1h-4
			c-1.1,0-2,0.9-2,2v10c0,1.1,0.9,2,2,2h4c1.1,0,2-0.9,2-2V3C30,1.9,29.1,1,28,1z"/>
	</g>
</g>
<g id="Mosaic_gallery_copy">
	<g>
		<path fill="#9DA6BB" d="M6,0H2C0.9,0,0,0.9,0,2v14c0,1.1,0.9,2,2,2h4c1.1,0,2-0.9,2-2V2C8,0.9,7.1,0,6,0z M17,0h-4
			c-1.1,0-2,0.9-2,2v6c0,1.1,0.9,2,2,2h4c1.1,0,2-0.9,2-2V2C19,0.9,18.1,0,17,0z M6,21H2c-1.1,0-2,0.9-2,2v5c0,1.1,0.9,2,2,2h4
			c1.1,0,2-0.9,2-2v-5C8,21.9,7.1,21,6,21z M28,17h-4c-1.1,0-2,0.9-2,2v9c0,1.1,0.9,2,2,2h4c1.1,0,2-0.9,2-2v-9
			C30,17.9,29.1,17,28,17z M17,13h-4c-1.1,0-2,0.9-2,2v13c0,1.1,0.9,2,2,2h4c1.1,0,2-0.9,2-2V15C19,13.9,18.1,13,17,13z M28,0h-4
			c-1.1,0-2,0.9-2,2v10c0,1.1,0.9,2,2,2h4c1.1,0,2-0.9,2-2V2C30,0.9,29.1,0,28,0z"/>
	</g>
</g>
</svg>
