<?xml version="1.0" encoding="utf-8"?>
<!-- Generator: Adobe Illustrator 21.0.2, SVG Export Plug-In . SVG Version: 6.00 Build 0)  -->
<svg version="1.1" id="Rounded_Rectangle_1_copy_5_1_"
	 xmlns="http://www.w3.org/2000/svg" xmlns:xlink="http://www.w3.org/1999/xlink" x="0px" y="0px" width="16px" height="18px"
	 viewBox="0 0 16 18" enable-background="new 0 0 16 18" xml:space="preserve">
<g id="Rounded_Rectangle_1_copy_5" opacity="0.2">
	<g>
		<path d="M3,1H1C0.4,1,0,1.4,0,2v8c0,0.6,0.4,1,1,1h2c0.6,0,1-0.4,1-1V2C4,1.4,3.6,1,3,1z M3,13H1c-0.6,0-1,0.4-1,1v3
			c0,0.6,0.4,1,1,1h2c0.6,0,1-0.4,1-1v-3C4,13.4,3.6,13,3,13z M9,1H7C6.4,1,6,1.4,6,2v2c0,0.6,0.4,1,1,1h2c0.6,0,1-0.4,1-1V2
			C10,1.4,9.6,1,9,1z M15,10h-2c-0.6,0-1,0.4-1,1v6c0,0.6,0.4,1,1,1h2c0.6,0,1-0.4,1-1v-6C16,10.4,15.6,10,15,10z M15,1h-2
			c-0.6,0-1,0.4-1,1v5c0,0.6,0.4,1,1,1h2c0.6,0,1-0.4,1-1V2C16,1.4,15.6,1,15,1z M9,7H7C6.4,7,6,7.4,6,8v9c0,0.6,0.4,1,1,1h2
			c0.6,0,1-0.4,1-1V8C10,7.4,9.6,7,9,7z"/>
	</g>
</g>
<g id="Rounded_Rectangle_1_copy_5_3_">
	<g>
		<path fill="#FFFFFF" d="M3,0H1C0.4,0,0,0.4,0,1v8c0,0.6,0.4,1,1,1h2c0.6,0,1-0.4,1-1V1C4,0.4,3.6,0,3,0z M3,12H1c-0.6,0-1,0.4-1,1
			v3c0,0.6,0.4,1,1,1h2c0.6,0,1-0.4,1-1v-3C4,12.4,3.6,12,3,12z M9,0H7C6.4,0,6,0.4,6,1v2c0,0.6,0.4,1,1,1h2c0.6,0,1-0.4,1-1V1
			C10,0.4,9.6,0,9,0z M15,9h-2c-0.6,0-1,0.4-1,1v6c0,0.6,0.4,1,1,1h2c0.6,0,1-0.4,1-1v-6C16,9.4,15.6,9,15,9z M15,0h-2
			c-0.6,0-1,0.4-1,1v5c0,0.6,0.4,1,1,1h2c0.6,0,1-0.4,1-1V1C16,0.4,15.6,0,15,0z M9,6H7C6.4,6,6,6.4,6,7v9c0,0.6,0.4,1,1,1h2
			c0.6,0,1-0.4,1-1V7C10,6.4,9.6,6,9,6z"/>
	</g>
</g>
</svg>
