<?xml version="1.0" encoding="utf-8"?>
<!-- Generator: Adobe Illustrator 21.0.2, SVG Export Plug-In . SVG Version: 6.00 Build 0)  -->
<svg version="1.1" id="Forma_1_1_" xmlns="http://www.w3.org/2000/svg" xmlns:xlink="http://www.w3.org/1999/xlink" x="0px" y="0px"
	 width="31px" height="32px" viewBox="0 0 31 32" enable-background="new 0 0 31 32" xml:space="preserve">
<path fill="#FFFFFF" d="M22.6,1h-14C3.9,1,0.2,4.9,0.2,9.5v13.9C0.2,28.2,4,32,8.7,32h13.9c4.8,0,8.6-3.9,8.6-8.6V9.5
	C31.1,4.9,27.3,1,22.6,1z M28.2,23.3c0,3.2-2.6,5.8-5.8,5.8H8.8c-3.2,0-5.8-2.6-5.8-5.8V9.7c0-3.2,2.6-5.8,5.8-5.8h13.6
	c3.2,0,5.8,2.6,5.8,5.8V23.3z M15.6,8.6c-4.4,0-8,3.6-8,8s3.6,8,8,8s8-3.6,8-8S20,8.6,15.6,8.6z M15.6,21.8c-2.9,0-5.2-2.3-5.2-5.3
	s2.3-5.3,5.2-5.3s5.2,2.3,5.2,5.3S18.5,21.8,15.6,21.8z M24,6.1c-0.5,0-1.1,0.2-1.5,0.6s-0.6,0.9-0.6,1.5c0,0.5,0.2,1.1,0.6,1.5
	s0.9,0.6,1.5,0.6c0.5,0,1.1-0.2,1.5-0.6C25.8,9.2,26,8.8,26,8.2c0-0.5-0.2-1.1-0.6-1.5C25,6.4,24.4,6.1,24,6.1z"/>
<path fill="#9DA6BB" d="M22.6,0h-14C3.9,0,0.2,3.9,0.2,8.6v13.9c0,4.8,3.9,8.6,8.6,8.6h13.9c4.8,0,8.6-3.9,8.6-8.6V8.6
	C31.1,3.9,27.3,0,22.6,0z M28.2,22.4c0,3.2-2.6,5.8-5.8,5.8H8.8c-3.2,0-5.8-2.6-5.8-5.8V8.8C3,5.6,5.6,3,8.8,3h13.6
	c3.2,0,5.8,2.6,5.8,5.8V22.4z M15.6,7.6c-4.4,0-8,3.6-8,8s3.6,8,8,8s8-3.6,8-8S20,7.6,15.6,7.6z M15.6,20.8c-2.9,0-5.2-2.3-5.2-5.3
	s2.3-5.3,5.2-5.3s5.2,2.3,5.2,5.3S18.5,20.8,15.6,20.8z M24,5.2c-0.5,0-1.1,0.2-1.5,0.6s-0.6,0.9-0.6,1.5c0,0.5,0.2,1.1,0.6,1.5
	C22.9,9,23.4,9.2,24,9.2c0.5,0,1.1-0.2,1.5-0.6C25.8,8.3,26,7.8,26,7.2c0-0.5-0.2-1.1-0.6-1.5C25,5.4,24.4,5.2,24,5.2z"/>
</svg>
