<?xml version="1.0" encoding="utf-8"?>
<!-- Generator: Adobe Illustrator 21.0.2, SVG Export Plug-In . SVG Version: 6.00 Build 0)  -->
<svg version="1.1" id="icon_copy_1_" xmlns="http://www.w3.org/2000/svg" xmlns:xlink="http://www.w3.org/1999/xlink" x="0px"
	 y="0px" width="28px" height="21px" viewBox="0 0 28 21" enable-background="new 0 0 28 21" xml:space="preserve">
<g opacity="0.5">
	<g id="Shape_8_2_">
		<g>
			<path fill="#FFFFFF" d="M17,1H3C1.3,1,0,2.3,0,4v11c0,1.7,1.3,3,3,3h14c1.7,0,3-1.3,3-3V4C20,2.3,18.7,1,17,1z M18,16H2V7l8,4
				l8-4V16z M18,5l-8,4L2,5V3h16V5z"/>
		</g>
	</g>
	<g id="Ellipse_1_2_">
		<g>
			<circle fill="#FFFFFF" cx="21.5" cy="14.5" r="6.5"/>
		</g>
	</g>
	<g id="i_2_">
		<g>
			<path fill="#FFFFFF" d="M22.4,17.4c-0.1-0.1-0.1-0.3-0.1-0.6v-3.6h-1.9v0.2c0.2,0,0.4,0.1,0.4,0.2c0.1,0.1,0.1,0.3,0.1,0.6v2.7
				c0,0.3,0,0.5-0.1,0.6s-0.2,0.2-0.4,0.2v0.2h2.5v-0.2C22.6,17.5,22.5,17.5,22.4,17.4z M21.6,12.4c0.2,0,0.4-0.1,0.5-0.2
				c0.1-0.1,0.2-0.3,0.2-0.5s-0.1-0.4-0.2-0.5S21.8,11,21.6,11s-0.4,0.1-0.5,0.2c-0.1,0.1-0.2,0.3-0.2,0.5s0.1,0.4,0.2,0.5
				S21.4,12.4,21.6,12.4z"/>
		</g>
	</g>
</g>
<g id="Shape_8">
	<g>
		<path fill="#9DA6BB" d="M17,0.5H3c-1.7,0-3,1.3-3,3v11c0,1.7,1.3,3,3,3h14c1.7,0,3-1.3,3-3v-11C20,1.8,18.7,0.5,17,0.5z M18,15.5
			H2v-9l8,4l8-4V15.5z M18,4.5l-8,4l-8-4v-2h16V4.5z"/>
	</g>
</g>
<g id="Ellipse_1">
	<g>
		<circle fill="#9DA6BB" cx="21.5" cy="14" r="6.5"/>
	</g>
</g>
<g id="i">
	<g>
		<path fill="#FFFFFF" d="M21.6,11.9c0.2,0,0.4-0.1,0.5-0.2c0.1-0.1,0.2-0.3,0.2-0.5s-0.1-0.4-0.2-0.5s-0.3-0.2-0.5-0.2
			s-0.4,0.1-0.5,0.2c-0.1,0.1-0.2,0.3-0.2,0.5s0.1,0.4,0.2,0.5S21.4,11.9,21.6,11.9z M22.4,16.9c-0.1-0.1-0.1-0.3-0.1-0.6v-3.6h-1.9
			v0.2c0.2,0,0.4,0.1,0.4,0.2c0.1,0.1,0.1,0.3,0.1,0.6v2.7c0,0.3,0,0.5-0.1,0.6c0,0-0.2,0-0.4,0v0.2h2.5V17
			C22.6,17,22.5,17,22.4,16.9z"/>
	</g>
</g>
</svg>
