<?xml version="1.0" encoding="utf-8"?>
<!-- Generator: Adobe Illustrator 21.0.2, SVG Export Plug-In . SVG Version: 6.00 Build 0)  -->
<svg version="1.1" id="Radio_button" xmlns="http://www.w3.org/2000/svg" xmlns:xlink="http://www.w3.org/1999/xlink" x="0px"
	 y="0px" width="18px" height="19px" viewBox="0 0 18 19" enable-background="new 0 0 18 19" xml:space="preserve">
<path opacity="0.5" fill="#FFFFFF" d="M9,0.8c-5,0-9,4-9,9.1S4,19,9,19s9-4,9-9.1S14,0.8,9,0.8z M9,17.5c-4.1,0-7.5-3.4-7.5-7.6
	S4.9,2.3,9,2.3s7.5,3.4,7.5,7.6S13.1,17.5,9,17.5z M9,6.1c-2.1,0-3.7,1.7-3.7,3.8s1.7,3.8,3.8,3.8s3.8-1.7,3.8-3.8S11.1,6.1,9,6.1z"
	/>
<path fill="#9DA6BB" d="M9,0C4,0,0,4,0,9.1s4,9.1,9,9.1s9-4,9-9.1S14,0,9,0z M9,16.7c-4.1,0-7.5-3.4-7.5-7.6S4.9,1.5,9,1.5
	s7.5,3.4,7.5,7.6S13.1,16.7,9,16.7z M9,5.4C6.9,5.4,5.3,7,5.3,9.1s1.7,3.8,3.8,3.8s3.8-1.7,3.8-3.8S11.1,5.4,9,5.4z"/>
</svg>
