<?xml version="1.0" encoding="utf-8"?>
<!-- Generator: Adobe Illustrator 17.0.0, SVG Export Plug-In . SVG Version: 6.00 Build 0)  -->
<!DOCTYPE svg PUBLIC "-//W3C//DTD SVG 1.1//EN" "http://www.w3.org/Graphics/SVG/1.1/DTD/svg11.dtd">
<svg version="1.1" id="clock_2_" xmlns="http://www.w3.org/2000/svg" xmlns:xlink="http://www.w3.org/1999/xlink" x="0px" y="0px"
	 width="20px" height="20px" viewBox="0 0 20 20" enable-background="new 0 0 20 20" xml:space="preserve">
<path id="clock" opacity="0.3" d="M11.583,6.146v5.542c0,0.116-0.037,0.21-0.111,0.284c-0.074,0.074-0.169,0.111-0.284,0.111H7.229
	c-0.116,0-0.21-0.037-0.284-0.111c-0.074-0.074-0.111-0.169-0.111-0.284v-0.792c0-0.116,0.037-0.21,0.111-0.284
	C7.019,10.537,7.114,10.5,7.229,10.5H10V6.146c0-0.116,0.037-0.21,0.111-0.284c0.074-0.074,0.169-0.111,0.284-0.111h0.792
	c0.116,0,0.21,0.037,0.284,0.111C11.546,5.936,11.583,6.031,11.583,6.146z M17.8,10.477c0-1.419-0.35-2.728-1.05-3.926
	c-0.7-1.199-1.649-2.148-2.848-2.848c-1.199-0.7-2.507-1.05-3.926-1.05s-2.728,0.35-3.926,1.05c-1.199,0.7-2.148,1.649-2.848,2.848
	c-0.7,1.199-1.05,2.507-1.05,3.926s0.35,2.728,1.05,3.926c0.7,1.199,1.649,2.148,2.848,2.848c1.199,0.7,2.507,1.05,3.926,1.05
	s2.728-0.35,3.926-1.05c1.199-0.7,2.148-1.649,2.848-2.848S17.8,11.896,17.8,10.477z M19.5,10.5c0,1.723-0.425,3.313-1.274,4.768
	c-0.849,1.456-2.002,2.608-3.457,3.457C13.313,19.575,11.723,20,10,20s-3.313-0.425-4.768-1.274
	c-1.456-0.849-2.608-2.002-3.457-3.457S0.5,12.223,0.5,10.5s0.425-3.313,1.274-4.768c0.849-1.456,2.002-2.608,3.457-3.457
	S8.277,1,10,1s3.313,0.425,4.768,1.274c1.456,0.849,2.608,2.002,3.457,3.457C19.075,7.187,19.5,8.777,19.5,10.5z"/>
<path id="clock_1_" fill="#FFFFFF" d="M11.583,5.146v5.542c0,0.116-0.037,0.21-0.111,0.284c-0.074,0.074-0.169,0.111-0.284,0.111
	H7.229c-0.116,0-0.21-0.037-0.284-0.111c-0.074-0.074-0.111-0.169-0.111-0.284V9.896c0-0.116,0.037-0.21,0.111-0.284
	C7.019,9.537,7.114,9.5,7.229,9.5H10V5.146c0-0.116,0.037-0.21,0.111-0.284c0.074-0.074,0.169-0.111,0.284-0.111h0.792
	c0.116,0,0.21,0.037,0.284,0.111C11.546,4.936,11.583,5.031,11.583,5.146z M17.8,9.477c0-1.419-0.35-2.728-1.05-3.926
	c-0.7-1.199-1.649-2.148-2.848-2.848c-1.199-0.7-2.507-1.05-3.926-1.05s-2.728,0.35-3.926,1.05c-1.199,0.7-2.148,1.649-2.848,2.848
	c-0.7,1.199-1.05,2.507-1.05,3.926s0.35,2.728,1.05,3.926c0.7,1.199,1.649,2.148,2.848,2.848c1.199,0.7,2.507,1.05,3.926,1.05
	s2.728-0.35,3.926-1.05c1.199-0.7,2.148-1.649,2.848-2.848S17.8,10.896,17.8,9.477z M19.5,9.5c0,1.723-0.425,3.313-1.274,4.768
	c-0.849,1.456-2.002,2.608-3.457,3.457C13.313,18.575,11.723,19,10,19s-3.313-0.425-4.768-1.274
	c-1.456-0.849-2.608-2.002-3.457-3.457S0.5,11.223,0.5,9.5s0.425-3.313,1.274-4.768c0.849-1.456,2.002-2.608,3.457-3.457
	S8.277,0,10,0s3.313,0.425,4.768,1.274c1.456,0.849,2.608,2.002,3.457,3.457C19.075,6.187,19.5,7.777,19.5,9.5z"/>
</svg>
