<?xml version="1.0" encoding="utf-8"?>
<!-- Generator: Adobe Illustrator 16.0.0, SVG Export Plug-In . SVG Version: 6.00 Build 0)  -->
<!DOCTYPE svg PUBLIC "-//W3C//DTD SVG 1.1//EN" "http://www.w3.org/Graphics/SVG/1.1/DTD/svg11.dtd">
<svg version="1.1" id="Layer_1" xmlns="http://www.w3.org/2000/svg" xmlns:xlink="http://www.w3.org/1999/xlink" x="0px" y="0px"
	 width="35px" height="35px" viewBox="0 0 35 35" enable-background="new 0 0 35 35" xml:space="preserve">
<g>
	<g>
		<path fill="#9DA6BA" d="M8.377,0.25H2.282C1.16,0.25,0.25,1.16,0.25,2.282v6.096c0,1.123,0.91,2.032,2.032,2.032h6.096
			c1.123,0,2.032-0.909,2.032-2.032V2.282C10.409,1.16,9.5,0.25,8.377,0.25z M20.569,0.25h-6.096c-1.122,0-2.032,0.91-2.032,2.032
			v6.096c0,1.123,0.91,2.032,2.032,2.032h6.096c1.122,0,2.031-0.909,2.031-2.032V2.282C22.601,1.16,21.691,0.25,20.569,0.25z
			 M32.759,0.25h-6.096c-1.12,0-2.031,0.91-2.031,2.032v6.096c0,1.123,0.911,2.032,2.031,2.032h6.096
			c1.123,0,2.032-0.909,2.032-2.032V2.282C34.791,1.16,33.882,0.25,32.759,0.25z M32.759,12.441h-6.096
			c-1.12,0-2.031,0.91-2.031,2.032v6.095c0,1.123,0.911,2.032,2.031,2.032h6.096c1.123,0,2.032-0.909,2.032-2.032v-6.095
			C34.791,13.351,33.882,12.441,32.759,12.441z M20.569,12.441h-6.096c-1.122,0-2.032,0.91-2.032,2.032v6.095
			c0,1.123,0.91,2.032,2.032,2.032h6.096c1.122,0,2.031-0.909,2.031-2.032v-6.095C22.601,13.351,21.691,12.441,20.569,12.441z
			 M8.377,12.441H2.282c-1.122,0-2.032,0.91-2.032,2.032v6.095c0,1.123,0.91,2.032,2.032,2.032h6.096
			c1.123,0,2.032-0.909,2.032-2.032v-6.095C10.409,13.351,9.5,12.441,8.377,12.441z M8.377,24.632H2.282
			c-1.122,0-2.032,0.91-2.032,2.031v6.096c0,1.123,0.91,2.032,2.032,2.032h6.096c1.123,0,2.032-0.909,2.032-2.032v-6.096
			C10.409,25.542,9.5,24.632,8.377,24.632z M20.569,24.632h-6.096c-1.122,0-2.032,0.91-2.032,2.031v6.096
			c0,1.123,0.91,2.032,2.032,2.032h6.096c1.122,0,2.031-0.909,2.031-2.032v-6.096C22.601,25.542,21.691,24.632,20.569,24.632z
			 M32.759,24.632h-6.096c-1.12,0-2.031,0.91-2.031,2.031v6.096c0,1.123,0.911,2.032,2.031,2.032h6.096
			c1.123,0,2.032-0.909,2.032-2.032v-6.096C34.791,25.542,33.882,24.632,32.759,24.632z"/>
	</g>
</g>
</svg>
