<?xml version="1.0" encoding="utf-8"?>
<!-- Generator: Adobe Illustrator 16.0.0, SVG Export Plug-In . SVG Version: 6.00 Build 0)  -->
<!DOCTYPE svg PUBLIC "-//W3C//DTD SVG 1.1//EN" "http://www.w3.org/Graphics/SVG/1.1/DTD/svg11.dtd">
<svg version="1.1" id="Layer_1" xmlns="http://www.w3.org/2000/svg" xmlns:xlink="http://www.w3.org/1999/xlink" x="0px" y="0px"
	 width="20px" height="21px" viewBox="0 0 20 21" enable-background="new 0 0 20 21" xml:space="preserve">
<g>
	<rect y="1.045" fill="#485061" width="5.455" height="5.455"/>
	<rect x="14.545" y="1.045" fill="#485061" width="5.455" height="5.455"/>
	<rect x="7.273" y="1.045" fill="#485061" width="5.454" height="5.455"/>
	<rect y="8.318" fill="#485061" width="5.455" height="5.454"/>
	<rect x="14.545" y="8.318" fill="#485061" width="5.455" height="5.454"/>
	<rect x="7.273" y="8.318" fill="#485061" width="5.454" height="5.454"/>
	<rect y="15.591" fill="#485061" width="5.455" height="5.454"/>
	<rect x="14.545" y="15.591" fill="#485061" width="5.455" height="5.454"/>
	<rect x="7.273" y="15.591" fill="#485061" width="5.454" height="5.454"/>
</g>
<g>
	<rect y="0.045" fill="#FFFFFF" width="5.455" height="5.455"/>
	<rect x="14.545" y="0.045" fill="#FFFFFF" width="5.455" height="5.455"/>
	<rect x="7.273" y="0.045" fill="#FFFFFF" width="5.454" height="5.455"/>
	<rect y="7.318" fill="#FFFFFF" width="5.455" height="5.454"/>
	<rect x="14.545" y="7.318" fill="#FFFFFF" width="5.455" height="5.454"/>
	<rect x="7.273" y="7.318" fill="#FFFFFF" width="5.454" height="5.454"/>
	<rect y="14.591" fill="#FFFFFF" width="5.455" height="5.454"/>
	<rect x="14.545" y="14.591" fill="#FFFFFF" width="5.455" height="5.454"/>
	<rect x="7.273" y="14.591" fill="#FFFFFF" width="5.454" height="5.454"/>
</g>
</svg>
