<?xml version="1.0" encoding="utf-8"?>
<!-- Generator: Adobe Illustrator 21.0.2, SVG Export Plug-In . SVG Version: 6.00 Build 0)  -->
<svg version="1.1" id="Layer_1" xmlns="http://www.w3.org/2000/svg" xmlns:xlink="http://www.w3.org/1999/xlink" x="0px" y="0px"
	 width="28px" height="34px" viewBox="0 0 28 34" enable-background="new 0 0 28 34" xml:space="preserve">
<g>
	
		<linearGradient id="SVGID_1_" gradientUnits="userSpaceOnUse" x1="0" y1="11.6809" x2="28" y2="11.6809" gradientTransform="matrix(1 0 0 1 0 4)">
		<stop  offset="0" style="stop-color:#FFFFFF;stop-opacity:0.4"/>
		<stop  offset="0.2" style="stop-color:#FFFFFF;stop-opacity:0.3"/>
		<stop  offset="1" style="stop-color:#FFFFFF"/>
	</linearGradient>
	<path fill="url(#SVGID_1_)" d="M14,1.5C6.3,1.5,0,7.9,0,15.7c0,3.4,1.2,6.5,3.1,8.9l2.1-4.9c-0.5-1.2-0.9-2.6-0.9-4
		c0-5.4,4.3-9.8,9.7-9.8c5.3,0,9.7,4.4,9.7,9.8s-4.3,9.8-9.7,9.8c-2.8,0-5.3-1.2-7.1-3.1l-1.8,4.3c2.4,2,5.5,3.2,8.9,3.2
		c7.7,0,14-6.4,14-14.2S21.7,1.5,14,1.5z"/>
	<g>
		<path fill="#FFFFFF" d="M8.3,19.2l-5,11.9c-0.1,0.1-0.1,0.3,0.1,0.4c0.1,0.1,0.3,0.1,0.3-0.1l9.2-9C10.9,22,9.3,20.9,8.3,19.2z"/>
		<path fill="#FFFFFF" d="M26.3,33.1l-6.5-14l-2.5-5.3l0,0c-0.1-0.1-0.1-0.2-0.2-0.3c-1.2-1.8-3.7-2.2-5.5-1c-1.8,1.3-2.2,3.7-1,5.5
			c0.1,0.1,0.1,0.2,0.2,0.3l0,0l4.1,4.1l10.8,11c0.1,0.1,0.3,0.2,0.4,0.1C26.4,33.4,26.4,33.2,26.3,33.1z"/>
	</g>
</g>
<g>
	
		<linearGradient id="SVGID_2_" gradientUnits="userSpaceOnUse" x1="4.034" y1="20.6482" x2="23.9273" y2="0.7549" gradientTransform="matrix(1 0 0 1 0 4)">
		<stop  offset="0" style="stop-color:#9EA6BB;stop-opacity:0.2"/>
		<stop  offset="0.3733" style="stop-color:#9EA6BB;stop-opacity:0.2"/>
		<stop  offset="1" style="stop-color:#9EA6BB"/>
	</linearGradient>
	<path fill="url(#SVGID_2_)" d="M14,0.5C6.3,0.5,0,6.9,0,14.7c0,3.4,1.2,6.5,3.1,8.9l2.1-4.9c-0.5-1.2-0.9-2.6-0.9-4
		c0-5.4,4.3-9.8,9.7-9.8c5.3,0,9.7,4.4,9.7,9.8s-4.3,9.8-9.7,9.8c-2.8,0-5.3-1.2-7.1-3.1l-1.8,4.3c2.4,2,5.5,3.2,8.9,3.2
		c7.7,0,14-6.4,14-14.2S21.7,0.5,14,0.5z"/>
	<g>
		<path opacity="0.43" fill="#9EA6BB" enable-background="new    " d="M8.3,18.2l-5,11.9c-0.1,0.1-0.1,0.3,0.1,0.4
			c0.1,0.1,0.3,0.1,0.3-0.1l9.2-9C10.9,21,9.3,19.9,8.3,18.2z"/>
		<path fill="#9EA6BB" d="M26.3,32.1l-6.5-14l-2.5-5.3l0,0c-0.1-0.1-0.1-0.2-0.2-0.3c-1.2-1.8-3.7-2.2-5.5-1c-1.8,1.3-2.2,3.7-1,5.5
			c0.1,0.1,0.1,0.2,0.2,0.3l0,0l4.1,4.1l10.8,11c0.1,0.1,0.3,0.2,0.4,0.1C26.4,32.4,26.4,32.2,26.3,32.1z"/>
	</g>
</g>
</svg>
