<?xml version="1.0" encoding="utf-8"?>
<!-- Generator: Adobe Illustrator 17.0.0, SVG Export Plug-In . SVG Version: 6.00 Build 0)  -->
<!DOCTYPE svg PUBLIC "-//W3C//DTD SVG 1.1//EN" "http://www.w3.org/Graphics/SVG/1.1/DTD/svg11.dtd">
<svg version="1.1" id="Layer_1" xmlns="http://www.w3.org/2000/svg" xmlns:xlink="http://www.w3.org/1999/xlink" x="0px" y="0px"
	 width="32px" height="32px" viewBox="0 0 32 32" enable-background="new 0 0 32 32" xml:space="preserve">
<g opacity="0.2">
	<path fill="#FFFFFF" d="M16.575,11.203h-1.611V20.5h1.299c2.917,0,4.375-1.565,4.375-4.697
		C20.638,12.736,19.283,11.203,16.575,11.203z"/>
	<path fill="#FFFFFF" d="M16.985,1c-8.284,0-15,6.716-15,15c0,1.79,0.33,3.499,0.905,5.09l-0.109-0.175l-2.766,6.272l6.33-0.57
		l-0.097-0.155C8.972,29.258,12.773,31,16.985,31c8.284,0,15-6.716,15-15C31.985,7.716,25.27,1,16.985,1z M21.775,21.125
		C20.438,22.375,18.506,23,15.98,23h-4.043V8.722h4.482c2.331,0,4.141,0.615,5.43,1.846s1.934,2.949,1.934,5.156
		C23.782,18.075,23.113,19.875,21.775,21.125z"/>
</g>
<g>
	<path fill="#9DA6BB" d="M16.575,10.203h-1.611V19.5h1.299c2.917,0,4.375-1.565,4.375-4.697
		C20.638,11.736,19.283,10.203,16.575,10.203z"/>
	<path fill="#9DA6BB" d="M16.985,0c-8.284,0-15,6.716-15,15c0,1.79,0.33,3.499,0.905,5.09l-0.109-0.175l-2.766,6.272l6.33-0.57
		l-0.097-0.155C8.972,28.258,12.773,30,16.985,30c8.284,0,15-6.716,15-15C31.985,6.716,25.27,0,16.985,0z M21.775,20.125
		C20.438,21.375,18.506,22,15.98,22h-4.043V7.722h4.482c2.331,0,4.141,0.615,5.43,1.846s1.934,2.949,1.934,5.156
		C23.782,17.075,23.113,18.875,21.775,20.125z"/>
</g>
</svg>
