<?xml version="1.0" encoding="utf-8"?>
<!-- Generator: Adobe Illustrator 16.0.0, SVG Export Plug-In . SVG Version: 6.00 Build 0)  -->
<!DOCTYPE svg PUBLIC "-//W3C//DTD SVG 1.1//EN" "http://www.w3.org/Graphics/SVG/1.1/DTD/svg11.dtd">
<svg version="1.1" id="Layer_1" xmlns="http://www.w3.org/2000/svg" xmlns:xlink="http://www.w3.org/1999/xlink" x="0px" y="0px"
	 width="33px" height="33px" viewBox="0 0 33 33" enable-background="new 0 0 33 33" xml:space="preserve">
<g>
	<g>
		<path fill="#FFFFFF" d="M2.675,1.116c-1.364,0-2.469,1.104-2.469,2.469c0,1.363,1.105,2.469,2.469,2.469s2.469-1.105,2.469-2.469
			C5.144,2.221,4.039,1.116,2.675,1.116z M2.675,10.003c-1.364,0-2.469,1.105-2.469,2.469c0,1.364,1.105,2.468,2.469,2.468
			s2.469-1.104,2.469-2.468C5.144,11.109,4.039,10.003,2.675,10.003z M2.675,18.892c-1.364,0-2.469,1.104-2.469,2.468
			s1.105,2.47,2.469,2.47s2.469-1.106,2.469-2.47S4.039,18.892,2.675,18.892z M2.675,27.779c-1.364,0-2.469,1.104-2.469,2.467
			c0,1.365,1.105,2.47,2.469,2.47s2.469-1.104,2.469-2.47C5.144,28.883,4.039,27.779,2.675,27.779z M10.575,6.054h19.751
			c1.361,0,2.467-1.105,2.467-2.469c0-1.364-1.105-2.469-2.467-2.469H10.575c-1.363,0-2.469,1.104-2.469,2.469
			C8.106,4.948,9.212,6.054,10.575,6.054z M30.326,10.003H10.575c-1.363,0-2.469,1.105-2.469,2.469c0,1.364,1.106,2.468,2.469,2.468
			h19.751c1.361,0,2.467-1.104,2.467-2.468C32.793,11.109,31.688,10.003,30.326,10.003z M30.326,18.892H10.575
			c-1.363,0-2.469,1.104-2.469,2.468s1.106,2.47,2.469,2.47h19.751c1.361,0,2.467-1.106,2.467-2.47S31.688,18.892,30.326,18.892z
			 M30.326,27.779H10.575c-1.363,0-2.469,1.104-2.469,2.467c0,1.365,1.106,2.47,2.469,2.47h19.751c1.361,0,2.467-1.104,2.467-2.47
			C32.793,28.883,31.688,27.779,30.326,27.779z"/>
	</g>
</g>
<g>
	<g>
		<path fill="#9DA6BC" d="M2.675,0.637c-1.364,0-2.469,1.105-2.469,2.468c0,1.364,1.105,2.469,2.469,2.469S5.144,4.47,5.144,3.105
			C5.144,1.742,4.039,0.637,2.675,0.637z M2.675,9.525c-1.364,0-2.469,1.104-2.469,2.469c0,1.364,1.105,2.469,2.469,2.469
			s2.469-1.105,2.469-2.469C5.144,10.629,4.039,9.525,2.675,9.525z M2.675,18.412c-1.364,0-2.469,1.105-2.469,2.469
			s1.105,2.469,2.469,2.469s2.469-1.105,2.469-2.469S4.039,18.412,2.675,18.412z M2.675,27.3c-1.364,0-2.469,1.105-2.469,2.468
			c0,1.364,1.105,2.47,2.469,2.47s2.469-1.105,2.469-2.47C5.144,28.405,4.039,27.3,2.675,27.3z M10.575,5.575h19.751
			c1.361,0,2.467-1.105,2.467-2.469s-1.105-2.469-2.467-2.469H10.575c-1.363,0-2.469,1.105-2.469,2.468
			C8.106,4.47,9.212,5.575,10.575,5.575z M30.326,9.525H10.575c-1.363,0-2.469,1.104-2.469,2.469c0,1.364,1.106,2.469,2.469,2.469
			h19.751c1.361,0,2.467-1.105,2.467-2.469C32.793,10.629,31.688,9.525,30.326,9.525z M30.326,18.412H10.575
			c-1.363,0-2.469,1.105-2.469,2.469s1.106,2.469,2.469,2.469h19.751c1.361,0,2.467-1.105,2.467-2.469S31.688,18.412,30.326,18.412z
			 M30.326,27.3H10.575c-1.363,0-2.469,1.105-2.469,2.468c0,1.364,1.106,2.47,2.469,2.47h19.751c1.361,0,2.467-1.105,2.467-2.47
			C32.793,28.405,31.688,27.3,30.326,27.3z"/>
	</g>
</g>
</svg>
