<?xml version="1.0" encoding="utf-8"?>
<!-- Generator: Adobe Illustrator 22.1.0, SVG Export Plug-In . SVG Version: 6.00 Build 0)  -->
<svg version="1.1" id="Layer_1" xmlns="http://www.w3.org/2000/svg" xmlns:xlink="http://www.w3.org/1999/xlink" x="0px" y="0px"
	 width="24px" height="24px" viewBox="0 0 24 24" enable-background="new 0 0 24 24" xml:space="preserve">
<g>
	<rect x="3" y="5" fill="#485061" width="18" height="3"/>
	<rect x="3" y="10" fill="#485061" width="18" height="3"/>
	<path fill="#485061" d="M14.6,21H5.4C4.1,21,3,19.9,3,18.6v-0.1C3,17.1,4.1,16,5.4,16h9.2c1.3,0,2.4,1.1,2.4,2.4v0.1
		C16.9,19.9,15.9,21,14.6,21z"/>
</g>
<g>
	<rect x="3" y="4" fill="#FFFFFF" width="18" height="3"/>
	<rect x="3" y="9" fill="#FFFFFF" width="18" height="3"/>
	<path fill="#FFFFFF" d="M14.6,20H5.4C4.1,20,3,18.9,3,17.6v-0.1C3,16.1,4.1,15,5.4,15h9.2c1.3,0,2.4,1.1,2.4,2.4v0.1
		C16.9,18.9,15.9,20,14.6,20z"/>
</g>
</svg>
