<?xml version="1.0" encoding="utf-8"?>
<!-- Generator: Adobe Illustrator 21.0.2, SVG Export Plug-In . SVG Version: 6.00 Build 0)  -->
<svg version="1.1" id="Forma_1_copy_6_1_" xmlns="http://www.w3.org/2000/svg" xmlns:xlink="http://www.w3.org/1999/xlink" x="0px"
	 y="0px" width="26px" height="23px" viewBox="0 0 26 23" enable-background="new 0 0 26 23" xml:space="preserve">
<g id="Forma_1_copy_6_3_">
	<g>
		<path fill="#FFFFFF" d="M24,1H7C5.3,1,5,1.3,5,3v3H2C0.9,6,0,7.3,0,8.4v12.7C0,22.1,0.9,23,2.1,23h17.1c1.1,0,1.8-0.9,1.8-2v-3h3
			c1.7,0,2-0.8,2-2.4V3C26,1.3,25.7,1,24,1z M19,21H2V8h3v8c0,1.7,0.3,2,2,2h12V21z M24,16H7V3h17V16z M12.3,12.8l5.5-4.1v2.5h1.4
			V6.1H14v1.3h2.4l-5.5,3.8L12.3,12.8z"/>
	</g>
	<g>
		<path fill="none" d="M24,1H7C5.3,1,5,1.3,5,3v3H2C0.9,6,0,7.3,0,8.4v12.7C0,22.1,0.9,23,2.1,23h17.1c1.1,0,1.8-0.9,1.8-2v-3h3
			c1.7,0,2-0.8,2-2.4V3C26,1.3,25.7,1,24,1z M19,21H2V8h3v8c0,1.7,0.3,2,2,2h12V21z M24,16H7V3h17V16z M12.3,12.8l5.5-4.1v2.5h1.4
			V6.1H14v1.3h2.4l-5.5,3.8L12.3,12.8z"/>
	</g>
	<g>
		<path fill="none" d="M24,1H7C5.3,1,5,1.3,5,3v3H2C0.9,6,0,7.3,0,8.4v12.7C0,22.1,0.9,23,2.1,23h17.1c1.1,0,1.8-0.9,1.8-2v-3h3
			c1.7,0,2-0.8,2-2.4V3C26,1.3,25.7,1,24,1z M19,21H2V8h3v8c0,1.7,0.3,2,2,2h12V21z M24,16H7V3h17V16z M12.3,12.8l5.5-4.1v2.5h1.4
			V6.1H14v1.3h2.4l-5.5,3.8L12.3,12.8z"/>
	</g>
</g>
<g id="Forma_1_copy_6">
	<g>
		<path fill="#9EA6BB" d="M24,0H7C5.3,0,5,0.3,5,2v3H2C0.9,5,0,6.3,0,7.4v12.7C0,21.1,0.9,22,2.1,22h17.1c1.1,0,1.8-0.9,1.8-2v-3h3
			c1.7,0,2-0.8,2-2.4V2C26,0.3,25.7,0,24,0z M19,20H2V7h3v8c0,1.7,0.3,2,2,2h12V20z M24,15H7V2h17V15z M12.3,11.8l5.5-4.1v2.5h1.4
			V5.1H14v1.3h2.4l-5.5,3.8L12.3,11.8z"/>
	</g>
</g>
</svg>
