<?xml version="1.0" encoding="utf-8"?>
<!-- Generator: Adobe Illustrator 21.0.2, SVG Export Plug-In . SVG Version: 6.00 Build 0)  -->
<svg version="1.1" id="Group_1_copy_1_" xmlns="http://www.w3.org/2000/svg" xmlns:xlink="http://www.w3.org/1999/xlink" x="0px"
	 y="0px" width="42px" height="33px" viewBox="0 0 42 33" enable-background="new 0 0 42 33" xml:space="preserve">
<g>
	<g id="Rounded_Rectangle_3">
		<g>
			<path fill="#9EA6BB" d="M27.7,0H15.4c-1.1,0-2,0.9-2,2v12c0,1.1,0.9,2,2,2h12.3c1.1,0,2-0.9,2-2V2C29.7,0.9,28.8,0,27.7,0z
				 M27.7,14H15.4V2h12.3V14z"/>
		</g>
	</g>
	<g id="post_name">
		<g>
			<path fill="#9EA6BB" d="M25.1,11.6c-0.2-0.2-0.4-0.5-0.7-1.1L21.6,4h-0.1l-2.8,6.3c-0.3,0.6-0.5,1-0.7,1.2s-0.4,0.3-0.7,0.3V12
				H20v-0.2c-0.4,0-0.7-0.1-0.8-0.1C19,11.5,19,11.4,19,11.2s0.1-0.4,0.2-0.6l0.3-0.8h2.7l0.4,1c0.1,0.3,0.2,0.4,0.2,0.4
				c0,0.1,0,0.1,0,0.2c0,0.1,0,0.2-0.1,0.3s-0.3,0.1-0.6,0.1h-0.2V12h3.7v-0.2C25.4,11.8,25.2,11.7,25.1,11.6z M19.6,9.3l1.2-2.7
				L22,9.3H19.6z"/>
		</g>
	</g>
	<g id="Long_description">
		<g>
			<path fill="#9EA6BB" d="M1,23h40c0.6,0,1-0.4,1-1s-0.5-1-1-1H1c-0.6,0-1,0.4-1,1S0.5,23,1,23z M41,26H1c-0.6,0-1,0.4-1,1
				s0.5,1,1,1h40c0.6,0,1-0.4,1-1S41.5,26,41,26z M41,31H1c-0.6,0-1,0.4-1,1c0,0.6,0.5,1,1,1h40c0.6,0,1-0.4,1-1
				C42,31.4,41.5,31,41,31z"/>
		</g>
	</g>
</g>
</svg>
