<?xml version="1.0" encoding="utf-8"?>
<!-- Generator: Adobe Illustrator 21.0.2, SVG Export Plug-In . SVG Version: 6.00 Build 0)  -->
<svg version="1.1" id="Forma_1_copy_12_1_" xmlns="http://www.w3.org/2000/svg" xmlns:xlink="http://www.w3.org/1999/xlink" x="0px"
	 y="0px" width="40px" height="34px" viewBox="0 0 40 34" style="enable-background:new 0 0 40 34;" xml:space="preserve">
<g id="Forma_1_copy_12">
	<g>
		<path fill="#FFFFFF" d="M14.7,9.9c0-0.1-0.1-0.3-0.2-0.4c-0.1-0.2-0.1-0.4-0.2-0.6c-0.1,0.2-0.1,0.4-0.2,0.6C14,9.7,14,9.8,13.9,10
			l-0.7,2h2L14.7,9.9z M39.4,18.4L33,26c-0.8,0.9-1.9,1.4-3.1,1.4H2.3c-1.1,0-2-0.9-2-2.1v2.5c0,1.1,0.9,2.1,2,2.1H30
			c1.2,0,2.3-0.5,3.1-1.4l6.5-7.5c0.6-0.7,0.7-1.8,0.1-2.6C39.5,18.4,39.4,18.4,39.4,18.4z M39.4,22.6L33,30.1
			c-0.8,0.9-1.9,1.4-3.1,1.4H2.3c-1.1,0-2-0.9-2-2.1v2.5c0,1.1,0.9,2.1,2,2.1H30c1.2,0,2.3-0.5,3.1-1.4l6.5-7.5
			c0.6-0.7,0.7-1.8,0.1-2.6C39.5,22.5,39.4,22.5,39.4,22.6z M2.1,21.6h27.6c1.2,0,2.3-0.5,3.1-1.4l6.5-7.5c0.7-0.8,0.7-1.9,0-2.7
			l-6.5-7.5c-0.9-1-2-1.5-3.2-1.5H2.1c-1.2,0-2,0.9-2,2.1v16.5C0.1,20.7,0.9,21.6,2.1,21.6z M32.6,9.3c1.1,0,2,0.9,2,2.1
			c0,1.1-0.9,2.1-2,2.1c-1.1,0-2-0.9-2-2.1S31.5,9.3,32.6,9.3z M19.2,9.5C19.4,9,19.6,8.7,20,8.3c0.3-0.3,0.7-0.6,1.2-0.8
			c0.5-0.2,1-0.3,1.6-0.3c0.3,0,0.6,0,0.9,0.1c0.3,0,0.5,0.1,0.7,0.2s0.4,0.2,0.6,0.3c0.2,0.1,0.4,0.3,0.5,0.4L25,9
			c0,0.1-0.1,0.1-0.2,0.2c-0.1,0-0.1,0.1-0.2,0.1s-0.2,0-0.3-0.1C24.2,9.1,24.1,9,24,8.9s-0.2-0.1-0.4-0.1c-0.1,0-0.3-0.1-0.4-0.1
			s-0.3,0-0.5,0c-0.3,0-0.6,0.1-0.9,0.2c-0.3,0.1-0.5,0.3-0.6,0.5c-0.2,0.2-0.3,0.4-0.4,0.7s-0.1,0.6-0.1,1s0.1,0.7,0.2,1
			s0.3,0.6,0.4,0.8c0.2,0.2,0.4,0.4,0.7,0.5c0.3,0.1,0.5,0.2,0.8,0.2c0.2,0,0.4,0,0.6-0.1c0.2,0,0.4-0.1,0.5-0.2v-1.1h-0.7
			c-0.1,0-0.2,0-0.3-0.1s-0.1-0.1-0.1-0.2V11h2.6v3c-0.2,0.1-0.4,0.3-0.6,0.4c-0.2,0.1-0.4,0.2-0.6,0.2c-0.2,0.1-0.5,0.1-0.7,0.1
			c-0.3,0-0.5,0-0.8,0c-0.5,0-1-0.1-1.5-0.3S20.4,14,20,13.6c-0.3-0.3-0.6-0.7-0.8-1.2C19.1,12.1,19,11.6,19,11
			C19,10.5,19,10,19.2,9.5z M13.5,7.4h1.7l2.8,7.3h-1.3c-0.1,0-0.3,0-0.4-0.1s-0.2-0.2-0.2-0.3L15.8,13H13l-0.4,1.3
			c0,0.1-0.1,0.2-0.2,0.3c-0.1,0.1-0.2,0.1-0.4,0.1h-1.3L13.5,7.4z M4.6,7.4h5.8v1.3H8.3v5.9H6.6V8.7h-2V7.4z M2.1,25.8h27.6
			c1.2,0,2.3-0.5,3.1-1.4l6.5-7.5c0.6-0.7,0.7-1.8,0.1-2.6l-0.1,0.1l-6.5,7.5c-0.8,0.9-1.9,1.4-3.1,1.4H2.1c-1.1,0-2-0.9-2-2.1v2.5
			C0.1,24.8,0.9,25.8,2.1,25.8z"/>
	</g>
</g>
<g id="Forma_1_copy_12_3_">
	<g>
		<path fill="#9EA6BB" d="M39.4,21.6L33,29.1c-0.8,0.9-1.9,1.4-3.1,1.4H2.3c-1.1,0-2-0.9-2-2.1v2.5c0,1.1,0.9,2.1,2,2.1H30
			c1.2,0,2.3-0.5,3.1-1.4l6.5-7.5c0.6-0.7,0.7-1.8,0.1-2.6C39.5,21.5,39.4,21.5,39.4,21.6z M39.4,17.4L33,25
			c-0.8,0.9-1.9,1.4-3.1,1.4H2.3c-1.1,0-2-0.9-2-2.1v2.5c0,1.1,0.9,2.1,2,2.1H30c1.2,0,2.3-0.5,3.1-1.4l6.5-7.5
			c0.6-0.7,0.7-1.8,0.1-2.6C39.5,17.4,39.4,17.4,39.4,17.4z M2.1,20.6h27.6c1.2,0,2.3-0.5,3.1-1.4l6.5-7.5c0.7-0.8,0.7-1.9,0-2.7
			l-6.5-7.5c-0.9-1-2-1.5-3.2-1.5H2.1c-1.2,0-2,0.9-2,2.1v16.5C0.1,19.7,0.9,20.6,2.1,20.6z M32.6,8.3c1.1,0,2,0.9,2,2.1
			c0,1.1-0.9,2.1-2,2.1c-1.1,0-2-0.9-2-2.1S31.5,8.3,32.6,8.3z M2.1,24.8h27.6c1.2,0,2.3-0.5,3.1-1.4l6.5-7.5
			c0.6-0.7,0.7-1.8,0.1-2.6l-0.1,0.1l-6.5,7.5c-0.8,0.9-1.9,1.4-3.1,1.4H2.1c-1.1,0-2-0.9-2-2.1v2.5C0.1,23.8,0.9,24.8,2.1,24.8z"/>
	</g>
</g>
</svg>
