<?xml version="1.0" encoding="utf-8"?>
<!-- Generator: Adobe Illustrator 21.0.2, SVG Export Plug-In . SVG Version: 6.00 Build 0)  -->
<svg version="1.1" id="Forma_1_copy_12_1_" xmlns="http://www.w3.org/2000/svg" xmlns:xlink="http://www.w3.org/1999/xlink" x="0px"
	 y="0px" width="22px" height="18px" viewBox="0 0 22 18" enable-background="new 0 0 22 18" xml:space="preserve">
<g>
	<path fill="#FFFFFF" d="M1.6,11.2h14.5c0.7,0,1.2-0.3,1.7-0.7l3.4-3.7c0.4-0.4,0.4-1,0-1.3l-3.4-3.7c-0.5-0.5-1-0.8-1.7-0.8H1.6
		C1,0.9,0.5,1.3,0.5,2v8.3C0.5,10.7,1.1,11.2,1.6,11.2z M17.6,5c0.7,0,1,0.4,1,1s-0.5,1-1,1s-1-0.5-1-1.1S17.1,5,17.6,5z"/>
	<path fill="#FFFFFF" d="M21.3,8.5l-3.4,3.7c-0.5,0.4-0.9,0.7-1.7,0.7H1.6c-0.7,0-1-0.4-1-1v1.2c-0.1,0.6,0.5,1,1,1h14.5
		c0.7,0,1.2-0.3,1.7-0.7l3.4-3.7C21.6,9.5,21.6,8.9,21.3,8.5L21.3,8.5z"/>
	<path fill="#FFFFFF" d="M21.3,11.4l-3.4,3.7c-0.5,0.4-0.9,0.7-1.7,0.7H1.6c-0.7,0-1-0.4-1-1V16c-0.1,0.6,0.5,1,1,1h14.5
		c0.7,0,1.2-0.3,1.7-0.7l3.4-3.7C21.6,12.3,21.6,11.8,21.3,11.4L21.3,11.4z"/>
</g>
</svg>
