<?xml version="1.0" encoding="utf-8"?>
<!-- Generator: Adobe Illustrator 16.0.0, SVG Export Plug-In . SVG Version: 6.00 Build 0)  -->
<!DOCTYPE svg PUBLIC "-//W3C//DTD SVG 1.1//EN" "http://www.w3.org/Graphics/SVG/1.1/DTD/svg11.dtd">
<svg version="1.1" id="Layer_1" xmlns="http://www.w3.org/2000/svg" xmlns:xlink="http://www.w3.org/1999/xlink" x="0px" y="0px"
	 width="32px" height="34px" viewBox="0 0 32 34" enable-background="new 0 0 32 34" xml:space="preserve">
<g>
	<g>
		<path fill="#9DA6BB" d="M7.117,21.441h17.768v-1.973H7.117V21.441z M7.117,16.506h17.768v-1.974H7.117V16.506z M22.91,0.713H3.168
			c-1.635,0-2.961,1.326-2.961,2.961v26.652c0,1.635,1.326,2.961,2.961,2.961h25.664c1.636,0,2.961-1.326,2.961-2.961V8.61
			L22.91,0.713z M28.832,30.326H3.168V3.674h16.781c0,0,0,3.896,0,5.923s1.973,1.974,1.973,1.974h6.91V30.326L28.832,30.326z
			 M21.922,9.597V3.674l6.91,5.923H21.922z M7.117,26.377h17.768v-1.975H7.117V26.377z"/>
	</g>
</g>
</svg>
