<?xml version="1.0" encoding="utf-8"?>
<!-- Generator: Adobe Illustrator 21.0.2, SVG Export Plug-In . SVG Version: 6.00 Build 0)  -->
<svg version="1.1" id="Shape_1_1_" xmlns="http://www.w3.org/2000/svg" xmlns:xlink="http://www.w3.org/1999/xlink" x="0px" y="0px"
	 width="30px" height="34px" viewBox="0 0 30 34" enable-background="new 0 0 30 34" xml:space="preserve">
<g id="Shape_1">
	<g>
		<path fill="#FFFFFF" d="M29.2,22.7c-1.6-3.5-3.4-7.3-5.7-11.9c-1-2-2.1-4.2-3.4-6.4C19.2,3,17.9,2,16.4,1.6s-3.1-0.1-4.5,0.8
			c-1.3,0.8-2.1,2.1-2.7,3.2L7.8,8.2c-1.5,3-3,6-4.5,9v0.1c-1,2.1-2.1,4.3-2.9,6.6c-1.3,3.5,0.4,7.2,3.8,8.8c2.6,1.2,5.4,0.9,8.1-1
			c0.7-0.5,1.4-1.1,2.1-1.7c0.2-0.2,0.4-0.3,0.6-0.5c0.1,0.1,0.2,0.2,0.3,0.3c0.2,0.2,0.5,0.4,0.7,0.6c0.7,0.6,1.5,1.3,2.3,1.8
			c1.4,0.8,2.9,1.3,4.3,1.3s2.8-0.4,4.1-1.3C29.9,30.2,30.9,26.4,29.2,22.7z M15,24.3c-1.3-1.8-2.4-3.5-2.5-5.6
			c-0.1-1.2,0.3-2,1.2-2.4c0.5-0.2,0.9-0.3,1.3-0.3c0.6,0,1.1,0.2,1.6,0.6c0.8,0.6,1,1.5,0.7,3C17.1,21.3,16.1,22.9,15,24.3z
			 M27.4,28.3c-0.6,1.3-1.8,2.3-3.3,2.7c-0.3,0.1-0.7,0.1-1,0.2c-0.1,0-0.3,0-0.4,0l0,0l0,0c-2.1,0-3.6-1.1-4.9-2.2
			c-0.1-0.1-0.2-0.2-0.3-0.3c-0.5-0.4-1.1-0.9-1.2-1.5l0,0c-0.1-0.6,0.4-1.2,0.8-1.7c0.1-0.1,0.2-0.3,0.3-0.4
			c1.4-2.1,2.2-3.8,2.5-5.6c0.5-2.6-1-5-3.4-5.6c-2.6-0.6-5.2,0.7-5.8,3.1c-0.4,1.5-0.3,3,0.5,4.5c0.8,1.6,1.8,3.1,2.7,4.5
			c0.2,0.3,0.7,1.1-0.2,1.9c-0.4,0.3-0.7,0.6-1.1,0.9c-0.8,0.7-1.7,1.4-2.7,1.9c-0.8,0.4-1.6,0.6-2.4,0.6c-0.6,0-1.1-0.1-1.7-0.3
			c-1.3-0.5-2.3-1.4-2.9-2.7c-0.6-1.4-0.6-2.8,0.1-4.2c2.2-4.7,4.5-9.5,7-14.6c0.4-0.7,0.7-1.5,1.1-2.2c0.2-0.4,0.5-0.8,0.7-1.3
			c0.7-1.4,2-2.2,3.5-2.2c1.4,0,2.7,0.9,3.4,2.2l0.9,1.9c2.6,5.3,5.4,10.8,7.9,16.3C28,25.5,28,27,27.4,28.3z"/>
	</g>
</g>
<g id="Shape_1_3_">
	<g>
		<path fill="#9EA6BB" d="M29.2,21.7c-1.6-3.4-3.4-7.2-5.7-11.8c-1-2-2.1-4.2-3.4-6.4c-0.9-1.4-2.2-2.4-3.7-2.8s-3.1-0.1-4.5,0.8
			c-1.3,0.8-2.1,2.1-2.7,3.2L7.8,7.3c-1.5,3-3,6-4.5,9v0.1c-1,2.1-2.1,4.3-2.9,6.6c-1.3,3.5,0.4,7.2,3.8,8.8c2.6,1.2,5.4,0.9,8.1-1
			c0.7-0.5,1.4-1.1,2.1-1.7c0.2-0.2,0.4-0.3,0.6-0.5c0.1,0.1,0.2,0.2,0.3,0.3c0.2,0.2,0.5,0.4,0.7,0.6c0.7,0.6,1.5,1.3,2.3,1.8
			c1.4,0.8,2.9,1.3,4.3,1.3s2.8-0.4,4.1-1.3C29.9,29.2,30.9,25.4,29.2,21.7z M15,23.3c-1.3-1.8-2.4-3.5-2.5-5.6
			c-0.1-1.2,0.3-2,1.2-2.4c0.5-0.2,0.9-0.3,1.3-0.3c0.6,0,1.1,0.2,1.6,0.6c0.8,0.6,1,1.5,0.7,3C17.1,20.3,16.1,21.9,15,23.3z
			 M27.4,27.3c-0.6,1.3-1.8,2.3-3.3,2.7c-0.3,0.1-0.7,0.1-1,0.2c-0.1,0-0.3,0-0.4,0l0,0l0,0c-2.1,0-3.6-1.1-4.9-2.2
			c-0.1-0.1-0.2-0.2-0.3-0.3c-0.5-0.4-1.1-0.9-1.2-1.5l0,0c-0.1-0.6,0.4-1.2,0.8-1.7c0.1-0.1,0.2-0.3,0.3-0.4
			c1.4-2.1,2.2-3.8,2.5-5.6c0.5-2.6-1-5-3.4-5.6c-2.6-0.6-5.2,0.7-5.8,3.1c-0.4,1.5-0.3,3,0.5,4.5c0.8,1.6,1.8,3.1,2.7,4.5
			c0.2,0.3,0.7,1.1-0.2,1.9c-0.4,0.3-0.7,0.6-1.1,0.9c-0.8,0.7-1.7,1.4-2.7,1.9c-0.8,0.4-1.6,0.6-2.4,0.6c-0.6,0-1.1-0.1-1.7-0.3
			c-1.3-0.5-2.3-1.4-2.9-2.7c-0.6-1.4-0.6-2.8,0.1-4.2c2.2-4.7,4.5-9.5,7-14.6c0.4-0.7,0.7-1.5,1.1-2.2c0.2-0.4,0.5-0.8,0.7-1.3
			c0.7-1.4,2-2.2,3.5-2.2c1.4,0,2.7,0.9,3.4,2.2l0.9,1.9c2.6,5.3,5.4,10.8,7.9,16.3C28,24.5,28,26,27.4,27.3z"/>
	</g>
</g>
</svg>
