<?xml version="1.0" encoding="utf-8"?>
<!-- Generator: Adobe Illustrator 16.0.0, SVG Export Plug-In . SVG Version: 6.00 Build 0)  -->
<!DOCTYPE svg PUBLIC "-//W3C//DTD SVG 1.1//EN" "http://www.w3.org/Graphics/SVG/1.1/DTD/svg11.dtd">
<svg version="1.1" id="Layer_1" xmlns="http://www.w3.org/2000/svg" xmlns:xlink="http://www.w3.org/1999/xlink" x="0px" y="0px"
	 width="31px" height="35px" viewBox="0 0 31 35" enable-background="new 0 0 31 35" xml:space="preserve">
<g>
	<g>
		<path fill="#FFFFFF" d="M25.905,24.555c-1.507,0-2.854,0.683-3.75,1.754L10.119,18.9c0.095-0.38,0.146-0.778,0.146-1.188
			c0-0.061-0.002-0.12-0.004-0.179l12.574-7.75c0.84,0.678,1.907,1.085,3.07,1.085c2.7,0,4.888-2.188,4.888-4.888
			c0-2.699-2.188-4.887-4.888-4.887c-2.699,0-4.888,2.188-4.888,4.887c0,0.455,0.064,0.894,0.179,1.312L9.253,14.737
			c-0.893-1.162-2.297-1.912-3.875-1.912c-2.699,0-4.888,2.188-4.888,4.888s2.188,4.888,4.888,4.888
			c1.226,0,2.346-0.452,3.204-1.198l12.458,7.583c-0.014,0.151-0.021,0.303-0.021,0.457c0,2.701,2.188,4.889,4.888,4.889
			c2.7,0,4.888-2.188,4.888-4.889C30.793,26.743,28.605,24.555,25.905,24.555z"/>
	</g>
</g>
<g>
	<g>
		<path fill="#9DA3B7" d="M25.905,24.129c-1.507,0-2.854,0.683-3.75,1.754l-12.036-7.408c0.095-0.38,0.146-0.777,0.146-1.188
			c0-0.061-0.002-0.119-0.004-0.179l12.574-7.75c0.84,0.679,1.907,1.085,3.07,1.085c2.7,0,4.888-2.188,4.888-4.888
			c0-2.699-2.188-4.887-4.888-4.887c-2.699,0-4.888,2.188-4.888,4.887c0,0.455,0.064,0.895,0.179,1.312L9.253,14.311
			c-0.893-1.162-2.297-1.912-3.875-1.912c-2.699,0-4.888,2.188-4.888,4.888c0,2.699,2.188,4.888,4.888,4.888
			c1.226,0,2.346-0.453,3.204-1.199l12.458,7.584c-0.014,0.15-0.021,0.304-0.021,0.457c0,2.7,2.188,4.888,4.888,4.888
			c2.7,0,4.888-2.188,4.888-4.888C30.793,26.317,28.605,24.129,25.905,24.129z"/>
	</g>
</g>
</svg>
