<?xml version="1.0" encoding="utf-8"?>
<!-- Generator: Adobe Illustrator 16.0.0, SVG Export Plug-In . SVG Version: 6.00 Build 0)  -->
<!DOCTYPE svg PUBLIC "-//W3C//DTD SVG 1.1//EN" "http://www.w3.org/Graphics/SVG/1.1/DTD/svg11.dtd">
<svg version="1.1" id="Layer_1" xmlns="http://www.w3.org/2000/svg" xmlns:xlink="http://www.w3.org/1999/xlink" x="0px" y="0px"
	 width="95px" height="20px" viewBox="0 0 95 20" enable-background="new 0 0 95 20" xml:space="preserve">
<path fill="#9197A3" d="M55,0h38c1.104,0,2,0.896,2,2v16c0,1.104-0.896,2-2,2H55c-1.104,0-2-0.896-2-2v-4.906L50,10l3-3.063V2
	C53,0.896,53.896,0,55,0z"/>
<path fill="#FFFFFF" d="M56,1h36c1.104,0,2,0.896,2,2v14c0,1.104-0.896,2-2,2H56c-1.104,0-2-0.896-2-2v-4l-3-3l3-2.938V3
	C54,1.896,54.896,1,56,1z"/>
<g>
	<g>
		<path fill="#333333" d="M61.016,6.609c-0.432,0.276-0.875,0.502-1.332,0.678l0.349,0.84c0.168-0.056,0.343-0.124,0.522-0.204
			s0.352-0.164,0.516-0.252s0.315-0.18,0.455-0.276c0.141-0.096,0.259-0.188,0.354-0.276v6.769h1.115V5.571h-0.792
			C61.844,5.989,61.447,6.333,61.016,6.609z M66.499,12.521c0.009,0.088,0.015,0.18,0.019,0.275s0.006,0.195,0.006,0.301
			c0,0.367-0.031,0.762-0.096,1.182s-0.195,0.834-0.396,1.242l0.864,0.275c0.256-0.447,0.457-0.918,0.605-1.41
			c0.146-0.492,0.223-0.99,0.223-1.494v-0.188c0-0.059-0.004-0.121-0.013-0.186h-1.213V12.521z M71.154,8.775
			c0.017-0.119,0.033-0.283,0.049-0.491c0.018-0.208,0.031-0.422,0.048-0.642c0.017-0.22,0.032-0.432,0.048-0.636
			c0.018-0.204,0.028-0.366,0.036-0.486h3.036V5.571h-4.008c-0.016,0.36-0.032,0.702-0.049,1.026
			c-0.017,0.324-0.035,0.65-0.061,0.978c-0.023,0.328-0.05,0.664-0.077,1.008c-0.028,0.344-0.065,0.712-0.114,1.104
			c0.672,0,1.229,0.043,1.668,0.127s0.793,0.205,1.057,0.365c0.265,0.16,0.447,0.358,0.552,0.594
			c0.104,0.237,0.156,0.506,0.156,0.811c0,0.199-0.034,0.391-0.103,0.57c-0.067,0.18-0.179,0.338-0.33,0.475
			s-0.351,0.244-0.594,0.322c-0.244,0.08-0.547,0.121-0.906,0.121c-0.447,0-0.826-0.053-1.133-0.156
			c-0.31-0.104-0.531-0.188-0.666-0.252l-0.218,0.973c0.063,0.031,0.168,0.07,0.313,0.119c0.144,0.049,0.308,0.098,0.492,0.145
			c0.184,0.049,0.383,0.088,0.6,0.121c0.216,0.031,0.428,0.047,0.636,0.047c0.528,0,0.983-0.064,1.368-0.191
			c0.384-0.127,0.702-0.305,0.954-0.527s0.44-0.492,0.563-0.805c0.125-0.313,0.187-0.65,0.187-1.02c0-0.825-0.282-1.477-0.847-1.958
			C73.249,9.087,72.363,8.824,71.154,8.775z M80.443,9.603c0.16-0.104,0.313-0.224,0.461-0.359c0.147-0.137,0.281-0.292,0.396-0.469
			c0.115-0.176,0.207-0.365,0.275-0.569s0.104-0.422,0.104-0.654c0-0.24-0.048-0.488-0.14-0.744
			c-0.092-0.256-0.239-0.49-0.442-0.702c-0.205-0.212-0.468-0.386-0.787-0.522c-0.319-0.136-0.703-0.204-1.151-0.204
			c-0.384,0-0.731,0.062-1.044,0.186s-0.578,0.29-0.799,0.498c-0.219,0.208-0.39,0.45-0.51,0.726
			c-0.119,0.276-0.181,0.566-0.181,0.87c0,0.872,0.394,1.531,1.177,1.98c-0.185,0.111-0.357,0.241-0.521,0.389
			c-0.164,0.148-0.309,0.314-0.432,0.498c-0.125,0.186-0.226,0.384-0.302,0.594c-0.075,0.213-0.112,0.436-0.112,0.666
			c0,0.24,0.043,0.494,0.131,0.764c0.088,0.268,0.235,0.514,0.445,0.736c0.206,0.227,0.484,0.41,0.834,0.561
			c0.348,0.146,0.78,0.221,1.301,0.221c0.447,0,0.845-0.059,1.188-0.174c0.345-0.115,0.63-0.279,0.858-0.492
			c0.228-0.211,0.398-0.459,0.516-0.744c0.116-0.283,0.174-0.594,0.174-0.93C81.867,10.76,81.387,10.052,80.443,9.603z
			 M77.743,7.577c0-0.144,0.026-0.29,0.077-0.438c0.053-0.148,0.135-0.284,0.246-0.408s0.259-0.226,0.438-0.306
			c0.181-0.08,0.397-0.12,0.654-0.12c0.256,0,0.472,0.042,0.647,0.126s0.319,0.188,0.433,0.312C80.352,6.867,80.434,7,80.484,7.145
			c0.052,0.145,0.078,0.276,0.078,0.396c0,0.432-0.101,0.782-0.299,1.05c-0.201,0.269-0.47,0.502-0.806,0.702
			c-0.304-0.072-0.565-0.168-0.786-0.288c-0.22-0.12-0.396-0.256-0.533-0.407c-0.137-0.152-0.236-0.316-0.301-0.492
			C77.775,7.929,77.743,7.751,77.743,7.577z M80.659,12.291c-0.063,0.162-0.16,0.305-0.288,0.428s-0.294,0.227-0.498,0.307
			s-0.441,0.119-0.714,0.119c-0.304,0-0.556-0.043-0.757-0.131c-0.199-0.09-0.363-0.199-0.491-0.33
			c-0.128-0.133-0.218-0.277-0.271-0.434c-0.053-0.154-0.078-0.307-0.078-0.449c0-0.408,0.099-0.76,0.295-1.057
			c0.194-0.296,0.474-0.544,0.834-0.744c0.318,0.072,0.604,0.158,0.856,0.259c0.253,0.101,0.47,0.222,0.647,0.365
			c0.181,0.146,0.318,0.313,0.414,0.505c0.097,0.191,0.145,0.416,0.145,0.672C80.755,11.969,80.725,12.133,80.659,12.291z
			 M87.829,9.568c-0.563-0.48-1.45-0.744-2.658-0.793c0.017-0.119,0.032-0.283,0.048-0.491c0.018-0.208,0.032-0.422,0.049-0.642
			c0.017-0.22,0.031-0.432,0.049-0.636c0.016-0.204,0.026-0.366,0.035-0.486h3.035V5.571h-4.008
			c-0.016,0.36-0.031,0.702-0.048,1.026c-0.017,0.324-0.036,0.65-0.06,0.978c-0.024,0.328-0.051,0.664-0.078,1.008
			c-0.028,0.344-0.066,0.712-0.114,1.104c0.672,0,1.229,0.043,1.668,0.127c0.44,0.084,0.792,0.205,1.056,0.365
			c0.266,0.16,0.448,0.358,0.553,0.594c0.104,0.237,0.156,0.506,0.156,0.811c0,0.199-0.033,0.391-0.103,0.57
			c-0.069,0.178-0.179,0.338-0.33,0.475c-0.152,0.137-0.351,0.244-0.595,0.322c-0.243,0.08-0.545,0.121-0.905,0.121
			c-0.448,0-0.826-0.053-1.134-0.156c-0.309-0.104-0.53-0.188-0.666-0.252l-0.217,0.973c0.063,0.031,0.168,0.07,0.313,0.119
			s0.309,0.098,0.492,0.145c0.184,0.049,0.384,0.088,0.6,0.121c0.217,0.031,0.43,0.047,0.637,0.047c0.527,0,0.983-0.064,1.367-0.191
			c0.385-0.127,0.702-0.305,0.954-0.527s0.44-0.492,0.563-0.805c0.125-0.313,0.187-0.65,0.187-1.02
			C88.675,10.7,88.395,10.048,87.829,9.568z"/>
	</g>
</g>
<path fill-rule="evenodd" clip-rule="evenodd" fill="#4C69B1" d="M2,0h42c1.104,0,2,0.896,2,2v16c0,1.104-0.896,2-2,2H2
	c-1.104,0-2-0.896-2-2V2C0,0.896,0.896,0,2,0z"/>
<path fill="#314790" d="M16.586,6.479c0-1.051-0.949-2-2-2h-8c-1.051,0-2,0.949-2,2v8.001c0,1.051,0.949,2,2,2h4v-4.533H9.12v-2
	h1.467v-0.78c0-1.344,1.01-2.554,2.25-2.554h1.617v2h-1.617c-0.177,0-0.383,0.215-0.383,0.537v0.797h2v2h-2v4.533h2.133
	c1.051,0,2-0.949,2-2V6.479z"/>
<g>
	<g>
		<path fill="#FFFFFF" d="M14.586,3.519h-8c-1.051,0-2,0.949-2,2v8.001c0,1.051,0.949,2,2,2h4v-4.534H9.12v-2h1.467V8.207
			c0-1.344,1.009-2.554,2.25-2.554h1.617v2h-1.617c-0.177,0-0.383,0.215-0.383,0.537v0.797h2v2h-2v4.534h2.133c1.051,0,2-0.949,2-2
			v-8C16.586,4.467,15.639,3.519,14.586,3.519z"/>
	</g>
</g>
<g>
	<g>
		<path fill="#314790" d="M22.321,5.704h-1.164v8.316h5.004v-1.008h-3.84V5.704z M27.553,14.02h1.116V7.78h-1.116V14.02z
			 M28.104,5.188c-0.2,0-0.37,0.066-0.51,0.198c-0.14,0.132-0.21,0.31-0.21,0.534s0.07,0.402,0.21,0.534
			c0.14,0.132,0.31,0.198,0.51,0.198c0.2,0,0.37-0.066,0.51-0.198c0.14-0.132,0.21-0.31,0.21-0.534s-0.07-0.402-0.21-0.534
			C28.475,5.254,28.304,5.188,28.104,5.188z M34.639,12.154c-0.26-0.316-0.524-0.611-0.793-0.883
			c-0.268-0.271-0.521-0.5-0.762-0.684c0.209-0.216,0.43-0.446,0.666-0.69c0.236-0.243,0.471-0.487,0.703-0.731
			c0.23-0.244,0.455-0.486,0.672-0.726c0.215-0.24,0.416-0.46,0.6-0.66h-1.309C34.272,7.948,34.1,8.142,33.9,8.362
			c-0.2,0.22-0.412,0.45-0.637,0.69c-0.223,0.24-0.451,0.477-0.684,0.708c-0.232,0.232-0.443,0.444-0.636,0.636V4.708L30.829,4.9
			v9.12h1.116v-3c0.224,0.152,0.46,0.34,0.708,0.564c0.248,0.223,0.492,0.469,0.732,0.738c0.24,0.268,0.47,0.547,0.689,0.84
			c0.221,0.291,0.414,0.578,0.582,0.857h1.309c-0.16-0.279-0.356-0.582-0.588-0.906C35.145,12.789,34.898,12.469,34.639,12.154z
			 M41.448,8.41C41,7.886,40.356,7.624,39.517,7.624c-0.36,0-0.712,0.068-1.056,0.204c-0.345,0.136-0.648,0.34-0.912,0.612
			c-0.265,0.272-0.477,0.614-0.637,1.026s-0.24,0.894-0.24,1.446c0,0.471,0.063,0.904,0.187,1.301s0.313,0.738,0.569,1.027
			c0.257,0.287,0.582,0.514,0.979,0.678s0.866,0.246,1.41,0.246c0.432,0,0.818-0.041,1.158-0.121s0.578-0.156,0.714-0.229
			l-0.156-0.936c-0.136,0.064-0.338,0.131-0.606,0.199c-0.268,0.066-0.598,0.102-0.989,0.102c-0.696,0-1.208-0.168-1.536-0.504
			s-0.516-0.828-0.564-1.475h4.272c0.008-0.065,0.013-0.135,0.013-0.211s0-0.139,0-0.187C42.121,9.731,41.896,8.934,41.448,8.41z
			 M37.86,10.3c0.024-0.216,0.073-0.428,0.149-0.636s0.183-0.392,0.318-0.552c0.137-0.16,0.303-0.29,0.498-0.39
			c0.196-0.1,0.422-0.15,0.678-0.15c0.457,0,0.814,0.162,1.074,0.486c0.26,0.324,0.387,0.738,0.379,1.242H37.86z"/>
	</g>
</g>
<g>
	<g>
		<path fill="#FFFFFF" d="M22.321,6.202h-1.164v8.316h5.004V13.51h-3.84V6.202z M27.553,14.518h1.116v-6.24h-1.116V14.518z
			 M28.104,5.686c-0.2,0-0.37,0.066-0.51,0.198c-0.14,0.132-0.21,0.31-0.21,0.534s0.07,0.402,0.21,0.534
			c0.14,0.132,0.31,0.198,0.51,0.198c0.2,0,0.37-0.066,0.51-0.198c0.14-0.132,0.21-0.31,0.21-0.534s-0.07-0.402-0.21-0.534
			C28.475,5.752,28.304,5.686,28.104,5.686z M34.639,12.652c-0.26-0.316-0.524-0.61-0.793-0.883c-0.268-0.271-0.521-0.5-0.762-0.684
			c0.209-0.216,0.43-0.446,0.666-0.69c0.236-0.243,0.471-0.487,0.703-0.731c0.23-0.244,0.455-0.486,0.672-0.726
			c0.215-0.24,0.416-0.46,0.6-0.66h-1.309C34.272,8.446,34.1,8.64,33.9,8.86c-0.2,0.22-0.412,0.45-0.637,0.69
			c-0.223,0.24-0.451,0.477-0.684,0.708c-0.232,0.232-0.443,0.444-0.636,0.636V5.206l-1.116,0.192v9.12h1.116v-3
			c0.224,0.152,0.46,0.341,0.708,0.564s0.492,0.47,0.732,0.738c0.24,0.268,0.47,0.548,0.689,0.84
			c0.221,0.292,0.414,0.578,0.582,0.857h1.309c-0.16-0.279-0.356-0.582-0.588-0.905C35.145,13.288,34.898,12.968,34.639,12.652z
			 M41.448,8.908C41,8.384,40.356,8.122,39.517,8.122c-0.36,0-0.712,0.068-1.056,0.204c-0.345,0.136-0.648,0.34-0.912,0.612
			c-0.265,0.272-0.477,0.614-0.637,1.026s-0.24,0.894-0.24,1.446c0,0.472,0.063,0.905,0.187,1.302
			c0.124,0.396,0.313,0.738,0.569,1.026c0.257,0.288,0.582,0.514,0.979,0.678s0.866,0.246,1.41,0.246c0.432,0,0.818-0.04,1.158-0.12
			s0.578-0.156,0.714-0.229l-0.156-0.936c-0.136,0.064-0.338,0.13-0.606,0.198c-0.268,0.067-0.598,0.102-0.989,0.102
			c-0.696,0-1.208-0.168-1.536-0.504s-0.516-0.828-0.564-1.476h4.272c0.008-0.064,0.013-0.134,0.013-0.21v-0.187
			C42.121,10.229,41.896,9.432,41.448,8.908z M37.86,10.798c0.024-0.216,0.073-0.428,0.149-0.636s0.183-0.392,0.318-0.552
			c0.137-0.16,0.303-0.29,0.498-0.39c0.196-0.1,0.422-0.15,0.678-0.15c0.457,0,0.814,0.162,1.074,0.486
			c0.26,0.324,0.387,0.738,0.379,1.242H37.86z"/>
	</g>
</g>
</svg>
