<?xml version="1.0" encoding="utf-8"?>
<!-- Generator: Adobe Illustrator 16.0.0, SVG Export Plug-In . SVG Version: 6.00 Build 0)  -->
<!DOCTYPE svg PUBLIC "-//W3C//DTD SVG 1.1//EN" "http://www.w3.org/Graphics/SVG/1.1/DTD/svg11.dtd">
<svg version="1.1" id="Layer_1" xmlns="http://www.w3.org/2000/svg" xmlns:xlink="http://www.w3.org/1999/xlink" x="0px" y="0px"
	 width="106px" height="20px" viewBox="0 0 106 20" enable-background="new 0 0 106 20" xml:space="preserve">
<path fill="#4C68B1" d="M2,0h54c1.104,0,2,0.896,2,2v16c0,1.105-0.896,2-2,2H2c-1.104,0-2-0.895-2-2V2C0,0.896,0.896,0,2,0z"/>
<path fill="#9197A3" d="M66,0h38c1.104,0,2,0.896,2,2v16c0,1.104-0.896,2-2,2H66c-1.104,0-2-0.896-2-2v-4.906L61,10l3-3.063V2
	C64,0.896,64.896,0,66,0z"/>
<path fill="#FFFFFF" d="M67,1h36c1.104,0,2,0.896,2,2v14c0,1.104-0.896,2-2,2H67c-1.104,0-2-0.896-2-2v-4l-3-3l3-2.938V3
	C65,1.896,65.896,1,67,1z"/>
<path fill="#2F4690" d="M16.155,6.685c0-1.051-0.949-2-2-2h-8c-1.051,0-2,0.949-2,2v8c0,1.051,0.949,2,2,2h4v-4.533H8.688v-2h1.467
	v-0.78c0-1.344,1.01-2.554,2.25-2.554h1.617v2h-1.617c-0.177,0-0.383,0.215-0.383,0.537v0.797h2v2h-2v4.533h2.133
	c1.051,0,2-0.949,2-2V6.685z"/>
<g>
	<g>
		<path fill="#2F4690" d="M25.113,8.917c-0.222-0.211-0.484-0.392-0.787-0.543c-0.302-0.151-0.635-0.303-0.998-0.454
			c-0.258-0.101-0.494-0.202-0.708-0.303c-0.214-0.101-0.401-0.212-0.563-0.334C21.895,7.161,21.77,7.02,21.682,6.86
			C21.595,6.7,21.55,6.502,21.55,6.267c0-0.21,0.042-0.393,0.127-0.549c0.085-0.155,0.2-0.284,0.345-0.385
			c0.146-0.101,0.315-0.177,0.508-0.227c0.193-0.05,0.403-0.076,0.629-0.076c0.443,0,0.833,0.053,1.167,0.158
			S24.914,5.4,25.083,5.51l0.375-0.997c-0.194-0.135-0.498-0.259-0.914-0.373c-0.416-0.113-0.877-0.17-1.385-0.17
			c-0.879,0-1.569,0.214-2.069,0.643c-0.5,0.429-0.75,1.026-0.75,1.792c0,0.371,0.059,0.686,0.176,0.946
			c0.117,0.261,0.276,0.486,0.478,0.675c0.202,0.189,0.439,0.353,0.714,0.492c0.274,0.139,0.564,0.263,0.871,0.373
			c0.266,0.101,0.518,0.202,0.756,0.303c0.238,0.101,0.45,0.221,0.635,0.359c0.185,0.138,0.333,0.303,0.441,0.492
			c0.109,0.189,0.164,0.418,0.164,0.688c0,0.875-0.613,1.313-1.839,1.313c-0.548,0-1.012-0.066-1.391-0.201
			c-0.379-0.135-0.662-0.258-0.847-0.367l-0.351,1.01c0.089,0.052,0.212,0.111,0.369,0.185c0.157,0.07,0.345,0.14,0.563,0.201
			c0.218,0.062,0.466,0.117,0.744,0.164c0.278,0.047,0.583,0.069,0.914,0.069c0.976,0,1.732-0.207,2.269-0.619
			c0.536-0.411,0.804-1,0.804-1.766c0-0.412-0.061-0.764-0.182-1.054C25.506,9.376,25.335,9.126,25.113,8.917z M31.936,7.055
			c-0.198-0.265-0.462-0.471-0.792-0.618s-0.746-0.221-1.246-0.221c-0.234,0-0.47,0.023-0.708,0.069
			c-0.238,0.046-0.462,0.111-0.671,0.195V3.125l-1.125,0.202v9.589h1.125V7.465c0.04-0.017,0.107-0.038,0.2-0.063
			c0.092-0.025,0.197-0.048,0.314-0.069c0.117-0.021,0.24-0.04,0.369-0.057c0.129-0.017,0.254-0.025,0.375-0.025
			c0.298,0,0.549,0.041,0.75,0.12c0.201,0.08,0.363,0.208,0.484,0.385c0.121,0.177,0.208,0.408,0.26,0.694
			c0.052,0.287,0.079,0.631,0.079,1.035v3.432h1.125V9.232c0-0.446-0.041-0.854-0.121-1.224C32.272,7.638,32.134,7.32,31.936,7.055z
			 M38.469,6.891c-0.189-0.223-0.439-0.395-0.75-0.517c-0.311-0.122-0.692-0.183-1.143-0.183c-0.396,0-0.762,0.032-1.101,0.095
			c-0.339,0.063-0.581,0.128-0.726,0.195l0.133,0.972c0.137-0.059,0.345-0.116,0.623-0.17C35.783,7.229,36.107,7.2,36.479,7.2
			c0.29,0,0.526,0.044,0.708,0.133c0.182,0.088,0.324,0.206,0.43,0.353c0.104,0.147,0.177,0.315,0.217,0.505
			c0.041,0.189,0.061,0.38,0.061,0.574v0.328c-0.031-0.009-0.088-0.021-0.169-0.038c-0.081-0.017-0.176-0.036-0.286-0.056
			c-0.109-0.021-0.224-0.038-0.345-0.051c-0.121-0.013-0.237-0.02-0.351-0.02c-0.355,0-0.694,0.038-1.017,0.114
			c-0.323,0.075-0.605,0.193-0.847,0.354c-0.242,0.159-0.434,0.37-0.575,0.631c-0.141,0.261-0.211,0.571-0.211,0.934
			c0,0.377,0.06,0.702,0.181,0.971c0.121,0.27,0.291,0.486,0.508,0.65c0.217,0.164,0.476,0.283,0.774,0.359
			c0.298,0.074,0.625,0.113,0.98,0.113c0.25,0,0.502-0.013,0.757-0.031c0.254-0.021,0.489-0.045,0.707-0.07s0.413-0.053,0.587-0.082
			c0.173-0.029,0.308-0.053,0.405-0.068V8.702c0-0.37-0.041-0.708-0.121-1.016S38.658,7.114,38.469,6.891z M37.894,11.982
			c-0.137,0.033-0.309,0.057-0.514,0.067c-0.205,0.015-0.441,0.021-0.707,0.021c-0.444,0-0.795-0.082-1.053-0.246
			c-0.258-0.164-0.387-0.457-0.387-0.876c0-0.228,0.053-0.41,0.157-0.549c0.105-0.139,0.236-0.248,0.394-0.328
			c0.158-0.08,0.331-0.133,0.52-0.158s0.37-0.038,0.539-0.038c0.258,0,0.478,0.016,0.659,0.045c0.181,0.029,0.313,0.065,0.393,0.107
			L37.894,11.982L37.894,11.982z M44.124,6.286c-0.121-0.021-0.244-0.038-0.369-0.051c-0.125-0.012-0.236-0.019-0.332-0.019
			c-0.492,0-0.936,0.044-1.331,0.132c-0.395,0.088-0.726,0.184-0.992,0.284v6.284h1.126V7.402c0.063-0.017,0.199-0.048,0.404-0.094
			c0.206-0.046,0.414-0.069,0.623-0.069c0.322,0,0.587,0.023,0.793,0.069c0.205,0.046,0.353,0.086,0.441,0.12l0.193-1.022
			c-0.049-0.017-0.123-0.036-0.224-0.057S44.245,6.307,44.124,6.286z M50.476,7.017c-0.452-0.55-1.102-0.826-1.948-0.826
			c-0.362,0-0.718,0.072-1.064,0.214c-0.347,0.144-0.653,0.358-0.919,0.644c-0.267,0.286-0.48,0.646-0.642,1.079
			c-0.161,0.434-0.242,0.94-0.242,1.521c0,0.496,0.063,0.953,0.188,1.371c0.125,0.416,0.317,0.774,0.575,1.078
			c0.258,0.303,0.586,0.541,0.986,0.713c0.398,0.172,0.872,0.258,1.421,0.258c0.436,0,0.824-0.041,1.167-0.125
			c0.343-0.084,0.583-0.164,0.721-0.24l-0.158-0.984c-0.137,0.068-0.34,0.137-0.611,0.209c-0.27,0.07-0.602,0.107-0.997,0.107
			c-0.702,0-1.218-0.178-1.549-0.531c-0.331-0.354-0.521-0.87-0.568-1.551h4.307c0.008-0.067,0.013-0.141,0.013-0.221V9.535
			C51.153,8.407,50.927,7.568,50.476,7.017z M46.858,9.004c0.023-0.228,0.074-0.45,0.15-0.668c0.077-0.219,0.184-0.412,0.321-0.581
			c0.137-0.168,0.304-0.305,0.502-0.41c0.197-0.105,0.425-0.158,0.683-0.158c0.461,0,0.821,0.17,1.084,0.511
			c0.262,0.34,0.389,0.776,0.381,1.306H46.858z"/>
	</g>
</g>
<g>
	<g>
		<path fill="#333333" d="M72.016,6.61c-0.432,0.276-0.875,0.502-1.332,0.678l0.349,0.84c0.168-0.056,0.343-0.124,0.522-0.204
			s0.352-0.164,0.516-0.252s0.315-0.18,0.455-0.276C72.666,7.3,72.784,7.208,72.88,7.12v6.769h1.115V5.572h-0.792
			C72.844,5.989,72.447,6.334,72.016,6.61z M77.499,12.521c0.009,0.088,0.015,0.18,0.019,0.275s0.006,0.195,0.006,0.301
			c0,0.367-0.031,0.762-0.096,1.182s-0.195,0.834-0.396,1.242l0.864,0.275c0.256-0.447,0.457-0.918,0.605-1.41
			c0.146-0.492,0.223-0.99,0.223-1.494v-0.187c0-0.06-0.004-0.121-0.013-0.187h-1.213V12.521z M82.154,8.776
			c0.017-0.12,0.033-0.284,0.049-0.492c0.018-0.208,0.031-0.422,0.048-0.642c0.017-0.22,0.032-0.432,0.048-0.636
			c0.018-0.204,0.028-0.366,0.036-0.486h3.036V5.572h-4.008c-0.016,0.36-0.032,0.702-0.049,1.026
			c-0.017,0.324-0.035,0.65-0.061,0.978c-0.023,0.328-0.05,0.664-0.077,1.008c-0.028,0.344-0.065,0.712-0.114,1.104
			c0.672,0,1.229,0.042,1.668,0.126s0.793,0.206,1.057,0.366c0.265,0.16,0.447,0.358,0.552,0.593
			c0.104,0.236,0.156,0.506,0.156,0.811c0,0.2-0.034,0.391-0.103,0.57c-0.067,0.18-0.179,0.338-0.33,0.475s-0.351,0.244-0.594,0.323
			c-0.244,0.08-0.547,0.12-0.906,0.12c-0.447,0-0.826-0.053-1.133-0.156c-0.31-0.104-0.531-0.188-0.666-0.252l-0.218,0.973
			c0.063,0.032,0.168,0.071,0.313,0.12c0.144,0.048,0.308,0.097,0.492,0.144c0.184,0.049,0.383,0.089,0.6,0.121
			c0.216,0.031,0.428,0.047,0.636,0.047c0.528,0,0.983-0.063,1.368-0.191c0.384-0.127,0.702-0.304,0.954-0.527
			c0.252-0.223,0.44-0.492,0.563-0.804c0.125-0.313,0.187-0.651,0.187-1.021c0-0.824-0.282-1.477-0.847-1.957
			C84.249,9.088,83.363,8.824,82.154,8.776z M91.443,9.604c0.16-0.104,0.313-0.224,0.461-0.36c0.147-0.136,0.281-0.292,0.396-0.468
			c0.115-0.176,0.207-0.366,0.275-0.57s0.104-0.422,0.104-0.654c0-0.24-0.048-0.488-0.14-0.744c-0.092-0.256-0.239-0.49-0.442-0.702
			c-0.205-0.212-0.468-0.386-0.787-0.522c-0.319-0.136-0.703-0.204-1.151-0.204c-0.384,0-0.731,0.062-1.044,0.186
			s-0.578,0.29-0.799,0.498c-0.219,0.208-0.39,0.45-0.51,0.726c-0.119,0.276-0.181,0.566-0.181,0.87c0,0.872,0.394,1.532,1.177,1.98
			c-0.185,0.112-0.357,0.242-0.521,0.39c-0.164,0.148-0.309,0.314-0.432,0.498c-0.125,0.186-0.226,0.384-0.302,0.595
			c-0.075,0.213-0.112,0.435-0.112,0.666c0,0.239,0.043,0.494,0.131,0.763c0.088,0.268,0.235,0.514,0.445,0.737
			c0.206,0.226,0.484,0.41,0.834,0.56c0.348,0.146,0.78,0.221,1.301,0.221c0.447,0,0.845-0.058,1.188-0.174
			c0.345-0.115,0.63-0.279,0.858-0.492c0.228-0.211,0.398-0.459,0.516-0.743c0.116-0.283,0.174-0.595,0.174-0.931
			C92.867,10.761,92.387,10.053,91.443,9.604z M88.743,7.577c0-0.144,0.026-0.29,0.077-0.438c0.053-0.148,0.135-0.284,0.246-0.408
			s0.259-0.226,0.438-0.306c0.181-0.08,0.397-0.12,0.654-0.12c0.256,0,0.472,0.042,0.647,0.126s0.319,0.188,0.433,0.312
			C91.352,6.867,91.434,7,91.484,7.145c0.052,0.145,0.078,0.276,0.078,0.396c0,0.432-0.101,0.782-0.299,1.05
			c-0.201,0.269-0.47,0.502-0.806,0.702c-0.304-0.072-0.565-0.168-0.786-0.288c-0.22-0.12-0.396-0.256-0.533-0.408
			c-0.137-0.152-0.236-0.316-0.301-0.492C88.775,7.929,88.743,7.752,88.743,7.577z M91.659,12.292
			c-0.063,0.161-0.16,0.304-0.288,0.427c-0.128,0.124-0.294,0.227-0.498,0.307s-0.441,0.119-0.714,0.119
			c-0.304,0-0.556-0.043-0.757-0.131c-0.199-0.089-0.363-0.199-0.491-0.33c-0.128-0.133-0.218-0.276-0.271-0.434
			c-0.053-0.154-0.078-0.307-0.078-0.449c0-0.408,0.099-0.76,0.295-1.057c0.194-0.296,0.474-0.544,0.834-0.744
			c0.318,0.072,0.604,0.158,0.856,0.259c0.253,0.1,0.47,0.222,0.647,0.365c0.181,0.146,0.318,0.313,0.414,0.505
			c0.097,0.191,0.145,0.416,0.145,0.672C91.755,11.969,91.725,12.133,91.659,12.292z M98.829,9.568
			c-0.563-0.48-1.45-0.744-2.658-0.792c0.017-0.12,0.032-0.284,0.048-0.492c0.018-0.208,0.032-0.422,0.049-0.642
			c0.017-0.22,0.031-0.432,0.049-0.636c0.016-0.204,0.026-0.366,0.035-0.486h3.035V5.572h-4.008
			c-0.016,0.36-0.031,0.702-0.048,1.026c-0.017,0.324-0.036,0.65-0.06,0.978c-0.024,0.328-0.051,0.664-0.078,1.008
			c-0.028,0.344-0.066,0.712-0.114,1.104c0.672,0,1.229,0.042,1.668,0.126c0.44,0.084,0.792,0.206,1.056,0.366
			c0.266,0.16,0.448,0.358,0.553,0.593c0.104,0.236,0.156,0.506,0.156,0.811c0,0.2-0.033,0.391-0.103,0.57
			c-0.069,0.179-0.179,0.338-0.33,0.475c-0.152,0.137-0.351,0.244-0.595,0.323c-0.243,0.08-0.545,0.12-0.905,0.12
			c-0.448,0-0.826-0.053-1.134-0.156c-0.309-0.104-0.53-0.188-0.666-0.252l-0.217,0.973c0.063,0.032,0.168,0.071,0.313,0.12
			c0.145,0.048,0.309,0.097,0.492,0.144c0.184,0.049,0.384,0.089,0.6,0.121c0.217,0.031,0.43,0.047,0.637,0.047
			c0.527,0,0.983-0.063,1.367-0.191c0.385-0.127,0.702-0.304,0.954-0.527c0.252-0.223,0.44-0.492,0.563-0.804
			c0.125-0.313,0.187-0.651,0.187-1.021C99.675,10.7,99.395,10.049,98.829,9.568z"/>
	</g>
</g>
<g>
	<g>
		<path fill="#FFFFFF" d="M25.113,9.527c-0.222-0.21-0.484-0.391-0.787-0.542c-0.302-0.151-0.635-0.303-0.998-0.454
			C23.07,8.43,22.834,8.329,22.62,8.228s-0.401-0.212-0.563-0.334c-0.162-0.122-0.287-0.263-0.375-0.423
			c-0.089-0.159-0.133-0.357-0.133-0.593c0-0.21,0.042-0.393,0.127-0.549c0.085-0.155,0.2-0.284,0.345-0.385
			c0.146-0.101,0.315-0.177,0.508-0.227c0.193-0.05,0.403-0.076,0.629-0.076c0.443,0,0.833,0.053,1.167,0.158
			s0.587,0.212,0.756,0.322l0.375-0.997c-0.194-0.135-0.498-0.259-0.914-0.373c-0.416-0.113-0.877-0.17-1.385-0.17
			c-0.879,0-1.569,0.214-2.069,0.643c-0.5,0.429-0.75,1.026-0.75,1.792c0,0.371,0.059,0.686,0.176,0.946
			c0.117,0.261,0.276,0.486,0.478,0.675c0.202,0.189,0.439,0.353,0.714,0.492c0.274,0.139,0.564,0.263,0.871,0.373
			c0.266,0.101,0.518,0.202,0.756,0.303s0.45,0.221,0.635,0.359c0.185,0.138,0.333,0.303,0.441,0.492
			c0.109,0.189,0.164,0.417,0.164,0.687c0,0.875-0.613,1.313-1.839,1.313c-0.548,0-1.012-0.066-1.391-0.201
			c-0.379-0.135-0.662-0.258-0.847-0.367l-0.351,1.01c0.089,0.051,0.212,0.111,0.369,0.185c0.157,0.069,0.345,0.139,0.563,0.2
			c0.218,0.063,0.466,0.117,0.744,0.164c0.278,0.047,0.583,0.07,0.914,0.07c0.976,0,1.732-0.207,2.269-0.619
			c0.536-0.412,0.804-1,0.804-1.766c0-0.413-0.061-0.764-0.182-1.054C25.506,9.988,25.335,9.738,25.113,9.527z M31.937,7.667
			c-0.198-0.265-0.463-0.471-0.793-0.618s-0.746-0.221-1.246-0.221c-0.234,0-0.47,0.023-0.707,0.069
			c-0.238,0.046-0.463,0.111-0.672,0.195V3.736l-1.125,0.202v9.589h1.125v-5.45c0.04-0.017,0.107-0.038,0.199-0.063
			c0.093-0.025,0.197-0.048,0.314-0.069c0.117-0.021,0.24-0.04,0.369-0.057c0.129-0.017,0.254-0.025,0.375-0.025
			c0.299,0,0.549,0.041,0.75,0.12c0.201,0.08,0.363,0.208,0.484,0.385c0.121,0.177,0.207,0.408,0.26,0.694s0.078,0.631,0.078,1.035
			v3.432h1.126V9.843c0-0.446-0.04-0.854-0.121-1.224S32.134,7.932,31.937,7.667z M38.469,7.502
			c-0.189-0.223-0.439-0.395-0.75-0.517c-0.311-0.122-0.692-0.183-1.144-0.183c-0.395,0-0.762,0.032-1.101,0.095
			c-0.339,0.063-0.581,0.128-0.726,0.195l0.133,0.972c0.137-0.059,0.345-0.116,0.623-0.17c0.278-0.054,0.603-0.082,0.974-0.082
			c0.29,0,0.526,0.044,0.708,0.133c0.182,0.088,0.324,0.206,0.43,0.353c0.104,0.147,0.177,0.315,0.217,0.505
			c0.041,0.189,0.061,0.38,0.061,0.574v0.328c-0.031-0.008-0.088-0.021-0.169-0.038C37.644,9.649,37.55,9.63,37.44,9.609
			s-0.224-0.038-0.345-0.05c-0.121-0.012-0.237-0.019-0.35-0.019c-0.355,0-0.693,0.038-1.017,0.114
			c-0.324,0.076-0.604,0.193-0.847,0.353c-0.243,0.16-0.434,0.371-0.574,0.632c-0.142,0.26-0.212,0.57-0.212,0.934
			c0,0.377,0.06,0.701,0.181,0.971s0.291,0.486,0.509,0.65c0.218,0.164,0.476,0.283,0.774,0.358
			c0.298,0.074,0.625,0.113,0.979,0.113c0.25,0,0.502-0.013,0.757-0.031c0.254-0.021,0.489-0.045,0.707-0.069
			c0.218-0.025,0.413-0.054,0.587-0.082c0.173-0.029,0.308-0.053,0.405-0.068V9.313c0-0.37-0.041-0.708-0.121-1.016
			C38.793,7.989,38.658,7.726,38.469,7.502z M37.894,12.594c-0.137,0.033-0.309,0.057-0.514,0.068
			c-0.205,0.014-0.441,0.02-0.707,0.02c-0.444,0-0.795-0.082-1.053-0.246c-0.259-0.164-0.388-0.457-0.388-0.877
			c0-0.227,0.053-0.41,0.157-0.549c0.105-0.138,0.236-0.248,0.394-0.328c0.158-0.08,0.331-0.133,0.521-0.158
			c0.19-0.024,0.369-0.038,0.538-0.038c0.258,0,0.478,0.016,0.659,0.045s0.313,0.064,0.393,0.107V12.594z M44.124,6.897
			c-0.121-0.021-0.244-0.038-0.369-0.051c-0.125-0.012-0.236-0.019-0.332-0.019c-0.492,0-0.936,0.044-1.331,0.132
			S41.366,7.143,41.1,7.244v6.283h1.126V8.013c0.063-0.017,0.199-0.048,0.404-0.094c0.206-0.046,0.414-0.069,0.623-0.069
			c0.322,0,0.587,0.023,0.793,0.069c0.205,0.046,0.353,0.086,0.441,0.12l0.193-1.022C44.632,7,44.558,6.981,44.457,6.96
			S44.245,6.918,44.124,6.897z M50.476,7.628c-0.452-0.55-1.102-0.826-1.948-0.826c-0.362,0-0.718,0.072-1.064,0.214
			c-0.348,0.144-0.654,0.359-0.92,0.644c-0.267,0.286-0.48,0.646-0.642,1.079c-0.161,0.434-0.242,0.94-0.242,1.521
			c0,0.496,0.063,0.952,0.188,1.37c0.125,0.416,0.317,0.774,0.575,1.078c0.258,0.303,0.586,0.541,0.986,0.713
			c0.398,0.172,0.872,0.259,1.421,0.259c0.436,0,0.824-0.041,1.167-0.125c0.343-0.084,0.583-0.164,0.721-0.24L50.56,12.33
			c-0.137,0.068-0.34,0.137-0.611,0.209c-0.27,0.07-0.602,0.107-0.997,0.107c-0.702,0-1.218-0.179-1.549-0.531
			c-0.331-0.354-0.521-0.869-0.568-1.551h4.307c0.008-0.067,0.013-0.142,0.013-0.222c0-0.08,0-0.145,0-0.196
			C51.153,9.019,50.927,8.18,50.476,7.628z M46.858,9.616c0.023-0.227,0.074-0.45,0.15-0.668c0.077-0.219,0.184-0.412,0.321-0.581
			c0.137-0.168,0.304-0.305,0.502-0.41c0.197-0.105,0.425-0.158,0.683-0.158c0.461,0,0.821,0.17,1.084,0.511
			c0.262,0.34,0.389,0.776,0.381,1.306H46.858z M14.155,3.724h-8c-1.051,0-2,0.949-2,2v8c0,1.051,0.949,2,2,2h4v-4.533H8.688v-2
			h1.467V8.412c0-1.344,1.009-2.554,2.25-2.554h1.617v2h-1.617c-0.177,0-0.383,0.215-0.383,0.537v0.797h2v2h-2v4.533h2.133
			c1.051,0,2-0.949,2-2v-8C16.155,4.673,15.207,3.724,14.155,3.724z"/>
	</g>
</g>
</svg>
