<?xml version="1.0" encoding="utf-8"?>
<!-- Generator: Adobe Illustrator 16.0.0, SVG Export Plug-In . SVG Version: 6.00 Build 0)  -->
<!DOCTYPE svg PUBLIC "-//W3C//DTD SVG 1.1//EN" "http://www.w3.org/Graphics/SVG/1.1/DTD/svg11.dtd">
<svg version="1.1" id="Layer_1" xmlns="http://www.w3.org/2000/svg" xmlns:xlink="http://www.w3.org/1999/xlink" x="0px" y="0px"
	 width="80px" height="20px" viewBox="0 0 80 20" enable-background="new 0 0 80 20" xml:space="preserve">
<g>
	<g>
		<path fill-rule="evenodd" clip-rule="evenodd" fill="#D4D4D4" d="M36,0H2C0.896,0,0,0.896,0,2v16c0,1.105,0.896,2,2,2h34
			c1.104,0,2-0.895,2-2V2C38,0.896,37.104,0,36,0z M78,0H46c-1.104,0-2,0.896-2,2v4.938L41,10l3,3.093V18c0,1.105,0.896,2,2,2h32
			c1.105,0,2-0.895,2-2V2C80,0.896,79.105,0,78,0z"/>
	</g>
</g>
<g>
	<g>
		<path fill-rule="evenodd" clip-rule="evenodd" fill="#FFFFFF" d="M35,1H3C1.895,1,1,1.896,1,3v14c0,1.105,0.896,2,2,2h32
			c1.104,0,2-0.895,2-2V3C37,1.896,36.104,1,35,1z M77,1H47c-1.105,0-2,0.896-2,2v4.063L42,10l3,3v4c0,1.105,0.895,2,2,2h30
			c1.104,0,2-0.895,2-2V3C79,1.896,78.104,1,77,1z"/>
	</g>
</g>
<g>
	<g>
		<path fill="#262626" d="M57.544,9.838c-0.226-0.256-0.516-0.462-0.871-0.618c-0.355-0.156-0.788-0.234-1.3-0.234
			c-0.304,0-0.596,0.035-0.877,0.104c-0.282,0.069-0.536,0.156-0.761,0.26c0.112-0.528,0.281-0.973,0.507-1.333
			c0.226-0.359,0.503-0.652,0.832-0.877c0.329-0.225,0.704-0.39,1.124-0.494c0.421-0.104,0.887-0.16,1.398-0.169l-0.092-1.014
			c-0.797,0.009-1.514,0.132-2.151,0.37c-0.637,0.239-1.179,0.587-1.625,1.047s-0.791,1.025-1.033,1.696
			c-0.243,0.672-0.364,1.445-0.364,2.321c0,1.188,0.258,2.119,0.773,2.795s1.268,1.014,2.256,1.014c0.485,0,0.905-0.091,1.261-0.272
			c0.355-0.183,0.647-0.416,0.878-0.702c0.229-0.286,0.4-0.603,0.514-0.949c0.112-0.347,0.169-0.685,0.169-1.014
			c0-0.364-0.051-0.713-0.15-1.047S57.77,10.094,57.544,9.838z M56.849,12.438c-0.057,0.221-0.149,0.427-0.279,0.617
			c-0.13,0.191-0.295,0.348-0.494,0.469s-0.442,0.182-0.728,0.182c-0.348,0-0.633-0.075-0.858-0.228
			c-0.226-0.151-0.405-0.355-0.539-0.611c-0.135-0.255-0.228-0.552-0.28-0.89c-0.052-0.339-0.078-0.698-0.078-1.079
			c0-0.096,0.002-0.193,0.007-0.293c0.004-0.1,0.011-0.197,0.02-0.292c0.26-0.113,0.521-0.197,0.78-0.254
			c0.26-0.056,0.541-0.084,0.845-0.084c0.563,0,0.985,0.155,1.268,0.468c0.281,0.312,0.423,0.763,0.423,1.352
			C56.934,12.002,56.905,12.217,56.849,12.438z M61.503,12.964c0.116-0.199,0.262-0.407,0.436-0.624
			c0.173-0.216,0.357-0.424,0.552-0.624c0.195-0.199,0.366-0.372,0.514-0.52c0.26-0.26,0.521-0.526,0.78-0.8
			c0.26-0.272,0.494-0.55,0.702-0.832c0.208-0.281,0.375-0.567,0.5-0.858c0.126-0.29,0.188-0.591,0.188-0.903
			c0-0.797-0.236-1.415-0.708-1.853c-0.473-0.438-1.182-0.657-2.126-0.657c-0.312,0-0.603,0.039-0.871,0.117
			s-0.511,0.173-0.728,0.286s-0.403,0.232-0.559,0.357c-0.156,0.126-0.273,0.232-0.352,0.318l0.598,0.858
			c0.061-0.052,0.147-0.127,0.261-0.228c0.112-0.099,0.251-0.195,0.416-0.286c0.164-0.091,0.351-0.171,0.559-0.241
			c0.208-0.069,0.438-0.104,0.689-0.104c0.208,0,0.404,0.028,0.591,0.084c0.187,0.057,0.349,0.146,0.488,0.267
			c0.138,0.122,0.248,0.273,0.331,0.455c0.082,0.182,0.123,0.403,0.123,0.663c0,0.243-0.045,0.472-0.136,0.689
			c-0.092,0.217-0.213,0.427-0.364,0.63s-0.325,0.408-0.521,0.611c-0.194,0.204-0.4,0.41-0.617,0.618
			c-0.26,0.26-0.524,0.528-0.793,0.806s-0.512,0.572-0.728,0.884c-0.217,0.313-0.393,0.644-0.527,0.994
			c-0.134,0.352-0.201,0.73-0.201,1.138v0.144c0,0.052,0.005,0.104,0.013,0.155h5.46v-1.026h-4.146
			C61.327,13.337,61.386,13.164,61.503,12.964z M72.903,11.105c-0.1-0.261-0.229-0.49-0.39-0.689s-0.349-0.364-0.565-0.494
			s-0.442-0.229-0.676-0.299c0.381-0.173,0.706-0.427,0.975-0.76S72.65,8.128,72.65,7.66c0-0.338-0.057-0.652-0.169-0.942
			c-0.113-0.291-0.282-0.542-0.508-0.754c-0.225-0.212-0.511-0.377-0.857-0.494c-0.347-0.117-0.759-0.176-1.235-0.176
			c-0.251,0-0.492,0.024-0.722,0.072c-0.229,0.048-0.444,0.106-0.644,0.175c-0.199,0.07-0.379,0.146-0.539,0.228
			c-0.16,0.083-0.293,0.158-0.396,0.228l0.468,0.923c0.199-0.13,0.444-0.255,0.734-0.377c0.291-0.121,0.644-0.182,1.06-0.182
			c0.208,0,0.405,0.024,0.592,0.071c0.187,0.048,0.351,0.128,0.494,0.241c0.143,0.113,0.258,0.255,0.345,0.429
			c0.086,0.173,0.13,0.381,0.13,0.624c0,0.295-0.061,0.54-0.183,0.734c-0.121,0.195-0.277,0.349-0.468,0.462s-0.4,0.19-0.631,0.234
			c-0.229,0.043-0.452,0.065-0.669,0.065h-0.429v0.988h0.312c0.313,0,0.617,0.028,0.917,0.085c0.299,0.057,0.561,0.151,0.786,0.286
			c0.226,0.134,0.407,0.313,0.546,0.539s0.208,0.503,0.208,0.832c0,0.512-0.167,0.919-0.5,1.222
			c-0.334,0.304-0.887,0.455-1.658,0.455c-0.494,0-0.912-0.056-1.254-0.169c-0.343-0.112-0.588-0.203-0.734-0.272l-0.234,1.053
			c0.069,0.035,0.182,0.078,0.338,0.13s0.338,0.104,0.546,0.156c0.208,0.052,0.432,0.095,0.67,0.13
			c0.238,0.034,0.47,0.052,0.695,0.052c0.58,0,1.083-0.069,1.508-0.208s0.778-0.329,1.06-0.572c0.281-0.242,0.489-0.53,0.624-0.864
			c0.134-0.333,0.201-0.695,0.201-1.085C73.053,11.655,73.003,11.365,72.903,11.105z"/>
	</g>
</g>
<g>
	<path fill="#F04C3A" d="M15.331,11.405h3.125c-0.548,1.551-2.034,2.662-3.773,2.649c-2.11-0.016-3.855-1.704-3.937-3.813
		c-0.088-2.26,1.726-4.127,3.967-4.127c1.025,0,1.96,0.391,2.665,1.03c0.167,0.151,0.421,0.152,0.585-0.002l1.148-1.081
		c0.18-0.169,0.18-0.454,0.001-0.624C17.994,4.38,16.494,3.72,14.84,3.688c-3.528-0.069-6.501,2.824-6.526,6.352
		c-0.024,3.555,2.85,6.444,6.398,6.444c3.413,0,6.201-2.672,6.388-6.039c0.005-0.042,0.009-1.469,0.009-1.469h-5.778
		c-0.237,0-0.429,0.192-0.429,0.429v1.57C14.902,11.213,15.094,11.405,15.331,11.405z"/>
	<path fill="#F04C3A" d="M26.404,9.119V7.584c0-0.208-0.169-0.376-0.377-0.376h-1.291c-0.208,0-0.377,0.168-0.377,0.376v1.535
		h-1.534c-0.208,0-0.376,0.168-0.376,0.375v1.292c0,0.208,0.168,0.377,0.376,0.377h1.534v1.535c0,0.207,0.169,0.375,0.377,0.375
		h1.291c0.208,0,0.377-0.168,0.377-0.375v-1.535h1.534c0.208,0,0.376-0.169,0.376-0.377V9.495c0-0.208-0.168-0.375-0.376-0.375
		H26.404L26.404,9.119z"/>
</g>
</svg>
