<?xml version="1.0" encoding="utf-8"?>
<!-- Generator: Adobe Illustrator 16.0.0, SVG Export Plug-In . SVG Version: 6.00 Build 0)  -->
<!DOCTYPE svg PUBLIC "-//W3C//DTD SVG 1.1//EN" "http://www.w3.org/Graphics/SVG/1.1/DTD/svg11.dtd">
<svg version="1.1" id="Layer_1" xmlns="http://www.w3.org/2000/svg" xmlns:xlink="http://www.w3.org/1999/xlink" x="0px" y="0px"
	 width="104px" height="20px" viewBox="0 0 104 20" enable-background="new 0 0 104 20" xml:space="preserve">
<g>
	<g>
		<path fill-rule="evenodd" clip-rule="evenodd" fill="#D4D4D4" d="M60,0H2C0.896,0,0,0.896,0,2v16c0,1.105,0.896,2,2,2h58
			c1.104,0,2-0.895,2-2V2C62,0.896,61.104,0,60,0z M102,0H70c-1.104,0-2,0.896-2,2v4.938L65,10l3,3.093V18c0,1.105,0.896,2,2,2h32
			c1.104,0,2-0.895,2-2V2C104,0.896,103.104,0,102,0z"/>
	</g>
</g>
<g>
	<g>
		<path fill-rule="evenodd" clip-rule="evenodd" fill="#FFFFFF" d="M59,1H3C1.896,1,1,1.896,1,3v14c0,1.105,0.896,2,2,2h56
			c1.104,0,2-0.895,2-2V3C61,1.896,60.104,1,59,1z M101,1H71c-1.104,0-2,0.896-2,2v4.063L66,10l3,3v4c0,1.105,0.896,2,2,2h30
			c1.104,0,2-0.895,2-2V3C103,1.896,102.104,1,101,1z"/>
	</g>
</g>
<g>
	<g>
		<path fill="#262626" d="M33.104,10.547c-0.202-0.183-0.44-0.341-0.715-0.473s-0.578-0.265-0.907-0.396
			c-0.235-0.089-0.45-0.177-0.644-0.265c-0.195-0.088-0.365-0.185-0.512-0.292c-0.147-0.105-0.26-0.229-0.341-0.368
			c-0.081-0.14-0.121-0.312-0.121-0.517c0-0.184,0.039-0.343,0.115-0.479c0.077-0.136,0.182-0.248,0.313-0.336
			c0.132-0.088,0.286-0.154,0.462-0.197c0.176-0.045,0.366-0.066,0.572-0.066c0.403,0,0.757,0.046,1.062,0.137
			c0.304,0.092,0.534,0.186,0.688,0.281l0.341-0.869c-0.176-0.117-0.453-0.226-0.83-0.324c-0.378-0.1-0.798-0.148-1.26-0.148
			c-0.799,0-1.426,0.187-1.881,0.561c-0.455,0.374-0.682,0.895-0.682,1.563c0,0.322,0.053,0.598,0.16,0.824
			c0.106,0.229,0.251,0.424,0.435,0.589c0.183,0.165,0.399,0.308,0.649,0.429c0.249,0.121,0.513,0.229,0.792,0.325
			c0.242,0.088,0.471,0.176,0.688,0.264s0.409,0.192,0.577,0.313c0.169,0.121,0.303,0.264,0.402,0.429s0.148,0.365,0.148,0.6
			c0,0.763-0.558,1.145-1.672,1.145c-0.499,0-0.92-0.059-1.265-0.177c-0.345-0.117-0.602-0.224-0.77-0.318l-0.319,0.88
			c0.081,0.044,0.192,0.098,0.335,0.159c0.143,0.063,0.313,0.121,0.511,0.176c0.198,0.056,0.424,0.104,0.677,0.144
			s0.53,0.061,0.831,0.061c0.887,0,1.575-0.18,2.063-0.539c0.487-0.359,0.731-0.873,0.731-1.54c0-0.359-0.055-0.666-0.165-0.919
			S33.306,10.73,33.104,10.547z M39.309,8.925c-0.18-0.231-0.42-0.41-0.721-0.539c-0.3-0.129-0.678-0.193-1.133-0.193
			c-0.213,0-0.427,0.021-0.644,0.061c-0.216,0.041-0.42,0.098-0.61,0.171V5.498l-1.023,0.176v8.36h1.023V9.282
			c0.037-0.015,0.097-0.033,0.182-0.055c0.084-0.022,0.179-0.043,0.286-0.061c0.106-0.019,0.218-0.035,0.335-0.05
			c0.118-0.015,0.231-0.022,0.341-0.022c0.271,0,0.499,0.035,0.682,0.105c0.184,0.069,0.33,0.181,0.44,0.335
			c0.11,0.153,0.188,0.355,0.236,0.604c0.047,0.25,0.071,0.551,0.071,0.902v2.992h1.023v-3.212c0-0.389-0.037-0.744-0.11-1.067
			C39.615,9.433,39.488,9.155,39.309,8.925z M45.249,8.782c-0.172-0.195-0.4-0.346-0.682-0.451c-0.282-0.107-0.629-0.16-1.04-0.16
			c-0.359,0-0.693,0.027-1.001,0.082c-0.308,0.056-0.528,0.112-0.66,0.171l0.121,0.847c0.125-0.051,0.313-0.1,0.566-0.148
			c0.253-0.047,0.548-0.07,0.885-0.07c0.264,0,0.479,0.037,0.644,0.115c0.165,0.076,0.295,0.18,0.391,0.308
			c0.095,0.128,0.161,0.274,0.198,0.44c0.037,0.164,0.055,0.331,0.055,0.5v0.286c-0.029-0.007-0.081-0.019-0.154-0.033
			c-0.074-0.015-0.16-0.031-0.259-0.05c-0.099-0.018-0.204-0.032-0.313-0.044c-0.11-0.011-0.216-0.017-0.319-0.017
			c-0.323,0-0.631,0.033-0.924,0.1c-0.293,0.065-0.55,0.169-0.77,0.308c-0.22,0.14-0.395,0.323-0.523,0.55
			c-0.128,0.228-0.192,0.499-0.192,0.814c0,0.33,0.055,0.612,0.165,0.847c0.11,0.235,0.264,0.424,0.462,0.566
			c0.198,0.144,0.433,0.248,0.704,0.313c0.271,0.066,0.568,0.1,0.891,0.1c0.227,0,0.457-0.01,0.688-0.027
			c0.231-0.019,0.445-0.039,0.644-0.061c0.198-0.022,0.375-0.046,0.533-0.072c0.158-0.025,0.281-0.045,0.369-0.061V10.36
			c0-0.323-0.037-0.618-0.11-0.886C45.543,9.207,45.421,8.976,45.249,8.782z M44.726,13.22c-0.125,0.029-0.28,0.05-0.467,0.061
			c-0.187,0.012-0.402,0.017-0.644,0.017c-0.403,0-0.723-0.071-0.957-0.214c-0.235-0.144-0.352-0.398-0.352-0.765
			c0-0.198,0.047-0.357,0.143-0.479c0.095-0.121,0.214-0.217,0.357-0.286s0.301-0.115,0.473-0.138
			c0.172-0.021,0.335-0.033,0.489-0.033c0.235,0,0.435,0.013,0.6,0.039c0.165,0.025,0.284,0.057,0.357,0.093V13.22z M50.391,8.253
			c-0.11-0.018-0.222-0.032-0.335-0.043c-0.114-0.012-0.215-0.018-0.303-0.018c-0.447,0-0.851,0.039-1.21,0.116
			s-0.66,0.159-0.902,0.247v5.479h1.023V9.228c0.059-0.016,0.182-0.043,0.369-0.083c0.187-0.04,0.375-0.061,0.566-0.061
			c0.293,0,0.533,0.021,0.72,0.061s0.321,0.075,0.402,0.104l0.176-0.891c-0.044-0.016-0.112-0.031-0.204-0.05
			S50.501,8.272,50.391,8.253z M54.395,8.171c-0.33,0-0.652,0.063-0.968,0.188s-0.594,0.312-0.836,0.561
			c-0.242,0.25-0.437,0.563-0.583,0.94c-0.147,0.378-0.22,0.819-0.22,1.325c0,0.434,0.057,0.831,0.171,1.194
			c0.113,0.362,0.288,0.676,0.522,0.94c0.235,0.264,0.534,0.471,0.896,0.621c0.363,0.15,0.794,0.226,1.293,0.226
			c0.396,0,0.75-0.037,1.062-0.11s0.529-0.143,0.654-0.209l-0.143-0.857c-0.125,0.059-0.311,0.119-0.556,0.182
			c-0.246,0.063-0.549,0.093-0.908,0.093c-0.638,0-1.106-0.153-1.407-0.462c-0.301-0.308-0.474-0.759-0.518-1.353h3.916
			c0.008-0.059,0.012-0.123,0.012-0.192v-0.171c0-0.982-0.206-1.714-0.616-2.194C55.755,8.411,55.165,8.171,54.395,8.171z
			 M52.877,10.624c0.021-0.198,0.067-0.393,0.138-0.583c0.069-0.19,0.166-0.359,0.291-0.506s0.277-0.266,0.457-0.357
			s0.387-0.138,0.621-0.138c0.418,0,0.746,0.148,0.984,0.445s0.354,0.677,0.347,1.139H52.877z M81.267,9.838
			c-0.226-0.256-0.516-0.462-0.871-0.618s-0.788-0.233-1.3-0.233c-0.304,0-0.596,0.034-0.877,0.104
			c-0.282,0.068-0.536,0.155-0.761,0.26c0.112-0.529,0.281-0.973,0.507-1.333c0.226-0.359,0.503-0.651,0.832-0.878
			c0.329-0.225,0.704-0.39,1.124-0.494c0.421-0.104,0.887-0.16,1.398-0.168l-0.092-1.014c-0.797,0.008-1.514,0.131-2.151,0.369
			c-0.637,0.239-1.179,0.588-1.625,1.047c-0.446,0.46-0.791,1.025-1.033,1.697c-0.243,0.672-0.364,1.444-0.364,2.32
			c0,1.188,0.258,2.119,0.773,2.795s1.268,1.014,2.256,1.014c0.485,0,0.905-0.091,1.261-0.272c0.355-0.183,0.647-0.416,0.878-0.702
			c0.229-0.286,0.4-0.603,0.514-0.949c0.112-0.347,0.169-0.685,0.169-1.014c0-0.364-0.051-0.713-0.15-1.047
			S81.492,10.094,81.267,9.838z M80.571,12.438c-0.057,0.221-0.149,0.427-0.279,0.617c-0.13,0.191-0.295,0.348-0.494,0.469
			s-0.442,0.182-0.728,0.182c-0.348,0-0.633-0.075-0.858-0.228c-0.226-0.151-0.405-0.355-0.539-0.611
			c-0.135-0.255-0.228-0.552-0.28-0.89c-0.052-0.339-0.078-0.698-0.078-1.079c0-0.096,0.002-0.193,0.007-0.293
			c0.004-0.1,0.011-0.197,0.02-0.292c0.26-0.113,0.521-0.197,0.78-0.254c0.26-0.056,0.541-0.084,0.845-0.084
			c0.563,0,0.985,0.155,1.268,0.468c0.281,0.312,0.423,0.763,0.423,1.352C80.656,12.002,80.628,12.217,80.571,12.438z
			 M85.226,12.964c0.116-0.199,0.262-0.407,0.436-0.624c0.173-0.216,0.357-0.424,0.552-0.624c0.195-0.199,0.366-0.372,0.514-0.52
			c0.26-0.26,0.521-0.526,0.78-0.8c0.26-0.272,0.494-0.55,0.702-0.832c0.208-0.281,0.375-0.567,0.5-0.858
			c0.126-0.289,0.188-0.591,0.188-0.902c0-0.798-0.236-1.415-0.708-1.854c-0.473-0.438-1.182-0.656-2.126-0.656
			c-0.312,0-0.603,0.039-0.871,0.117s-0.511,0.174-0.728,0.286s-0.403,0.231-0.559,0.357c-0.156,0.126-0.273,0.231-0.352,0.318
			l0.598,0.858c0.061-0.053,0.147-0.128,0.261-0.229c0.112-0.099,0.251-0.194,0.416-0.285c0.164-0.092,0.351-0.171,0.559-0.24
			c0.208-0.07,0.438-0.104,0.689-0.104c0.208,0,0.404,0.028,0.591,0.085s0.349,0.145,0.488,0.266
			c0.138,0.122,0.248,0.273,0.331,0.455c0.082,0.183,0.123,0.403,0.123,0.664c0,0.242-0.045,0.472-0.136,0.688
			c-0.092,0.217-0.213,0.427-0.364,0.63c-0.151,0.204-0.325,0.408-0.521,0.611c-0.194,0.204-0.4,0.41-0.617,0.618
			c-0.26,0.26-0.524,0.528-0.793,0.806s-0.512,0.572-0.728,0.884c-0.217,0.313-0.393,0.644-0.527,0.994
			c-0.134,0.352-0.201,0.73-0.201,1.138v0.144c0,0.052,0.005,0.104,0.013,0.155h5.46v-1.026H85.05
			C85.05,13.337,85.108,13.164,85.226,12.964z M96.626,11.105c-0.1-0.261-0.229-0.49-0.39-0.689s-0.349-0.364-0.565-0.494
			s-0.442-0.229-0.676-0.299c0.381-0.173,0.706-0.427,0.975-0.761c0.269-0.333,0.403-0.734,0.403-1.202
			c0-0.338-0.057-0.651-0.169-0.942c-0.113-0.291-0.282-0.541-0.508-0.754c-0.225-0.213-0.511-0.377-0.857-0.494
			s-0.759-0.176-1.235-0.176c-0.251,0-0.492,0.024-0.722,0.072c-0.229,0.047-0.444,0.105-0.644,0.175s-0.379,0.146-0.539,0.228
			s-0.293,0.158-0.396,0.228l0.468,0.923c0.199-0.13,0.444-0.256,0.734-0.377c0.291-0.121,0.644-0.182,1.06-0.182
			c0.208,0,0.405,0.023,0.592,0.071s0.351,0.128,0.494,0.241c0.143,0.112,0.258,0.255,0.345,0.428
			c0.086,0.174,0.13,0.382,0.13,0.625c0,0.295-0.061,0.539-0.183,0.734c-0.121,0.195-0.277,0.349-0.468,0.461
			c-0.19,0.113-0.4,0.191-0.631,0.234c-0.229,0.043-0.452,0.064-0.669,0.064h-0.429v0.988h0.312c0.313,0,0.617,0.028,0.917,0.085
			c0.299,0.057,0.561,0.151,0.786,0.286c0.226,0.134,0.407,0.313,0.546,0.539s0.208,0.503,0.208,0.832
			c0,0.512-0.167,0.919-0.5,1.222c-0.334,0.304-0.887,0.455-1.658,0.455c-0.494,0-0.912-0.056-1.254-0.169
			c-0.343-0.112-0.588-0.203-0.734-0.272l-0.234,1.053c0.069,0.035,0.182,0.078,0.338,0.13s0.338,0.104,0.546,0.156
			c0.208,0.052,0.432,0.095,0.67,0.13c0.238,0.034,0.47,0.052,0.695,0.052c0.58,0,1.083-0.069,1.508-0.208s0.778-0.329,1.06-0.572
			c0.281-0.242,0.489-0.53,0.624-0.864c0.134-0.333,0.201-0.695,0.201-1.085C96.775,11.655,96.726,11.365,96.626,11.105z"/>
	</g>
</g>
<g>
	<path fill="#F04C3A" d="M11.152,11.719h3.125c-0.548,1.551-2.034,2.662-3.773,2.65c-2.11-0.016-3.855-1.705-3.937-3.813
		c-0.088-2.26,1.726-4.127,3.967-4.127c1.025,0,1.96,0.391,2.665,1.03c0.167,0.151,0.421,0.152,0.585-0.002l1.148-1.081
		c0.18-0.169,0.18-0.454,0.001-0.624c-1.118-1.059-2.618-1.719-4.272-1.752C7.133,3.933,4.16,6.825,4.135,10.354
		c-0.024,3.555,2.85,6.443,6.398,6.443c3.413,0,6.201-2.672,6.388-6.038c0.005-0.042,0.009-1.469,0.009-1.469h-5.778
		c-0.237,0-0.429,0.192-0.429,0.429v1.57C10.723,11.527,10.915,11.719,11.152,11.719z"/>
	<path fill="#F04C3A" d="M22.225,9.433V7.898c0-0.208-0.169-0.376-0.377-0.376h-1.291c-0.208,0-0.377,0.168-0.377,0.376v1.535
		h-1.534c-0.208,0-0.376,0.168-0.376,0.375V11.1c0,0.209,0.168,0.377,0.376,0.377h1.534v1.535c0,0.207,0.169,0.375,0.377,0.375
		h1.291c0.208,0,0.377-0.168,0.377-0.375v-1.535h1.534c0.208,0,0.376-0.168,0.376-0.377V9.809c0-0.208-0.168-0.375-0.376-0.375
		H22.225L22.225,9.433z"/>
</g>
</svg>
