<?xml version="1.0" encoding="utf-8"?>
<!-- Generator: Adobe Illustrator 16.0.0, SVG Export Plug-In . SVG Version: 6.00 Build 0)  -->
<!DOCTYPE svg PUBLIC "-//W3C//DTD SVG 1.1//EN" "http://www.w3.org/Graphics/SVG/1.1/DTD/svg11.dtd">
<svg version="1.1" id="Layer_1" xmlns="http://www.w3.org/2000/svg" xmlns:xlink="http://www.w3.org/1999/xlink" x="0px" y="0px"
	 width="62px" height="20px" viewBox="0 0 62 20" enable-background="new 0 0 62 20" xml:space="preserve">
<path fill-rule="evenodd" clip-rule="evenodd" fill="#0177B5" d="M2,0h58c1.104,0,2,0.896,2,2v16c0,1.104-0.896,2-2,2H2
	c-1.104,0-2-0.896-2-2V2C0,0.896,0.896,0,2,0z"/>
<g>
	<g>
		<path fill="#005988" d="M19.851,19.252h1v-18h-1V19.252z M30.821,10.757c-0.202-0.184-0.44-0.341-0.715-0.473
			c-0.275-0.132-0.578-0.264-0.908-0.396c-0.235-0.088-0.449-0.176-0.644-0.264s-0.365-0.185-0.511-0.292
			c-0.147-0.106-0.261-0.229-0.341-0.369s-0.121-0.312-0.121-0.517c0-0.183,0.039-0.343,0.116-0.479s0.182-0.248,0.313-0.335
			s0.286-0.154,0.462-0.198c0.176-0.044,0.367-0.066,0.572-0.066c0.403,0,0.757,0.045,1.062,0.137
			c0.304,0.092,0.533,0.185,0.688,0.281l0.341-0.869c-0.176-0.117-0.453-0.226-0.831-0.325c-0.378-0.099-0.797-0.148-1.259-0.148
			c-0.799,0-1.427,0.187-1.881,0.561S26.482,7.9,26.482,8.567c0,0.323,0.053,0.598,0.159,0.825c0.106,0.227,0.251,0.423,0.435,0.588
			s0.4,0.308,0.649,0.429c0.25,0.121,0.513,0.229,0.792,0.324c0.242,0.088,0.471,0.176,0.688,0.264
			c0.216,0.089,0.409,0.193,0.578,0.313c0.168,0.121,0.303,0.265,0.401,0.43c0.099,0.165,0.148,0.364,0.148,0.6
			c0,0.763-0.557,1.144-1.672,1.144c-0.499,0-0.92-0.059-1.265-0.176c-0.345-0.117-0.602-0.224-0.77-0.319l-0.319,0.88
			c0.081,0.044,0.192,0.098,0.335,0.16c0.143,0.062,0.313,0.121,0.512,0.176c0.198,0.055,0.423,0.103,0.676,0.143
			c0.253,0.04,0.53,0.061,0.831,0.061c0.887,0,1.575-0.18,2.063-0.539s0.732-0.872,0.732-1.54c0-0.359-0.056-0.665-0.166-0.918
			S31.023,10.939,30.821,10.757z M37.025,9.134c-0.18-0.231-0.42-0.411-0.721-0.539c-0.301-0.128-0.679-0.192-1.133-0.192
			c-0.213,0-0.428,0.021-0.644,0.061c-0.217,0.041-0.42,0.097-0.61,0.17V5.708l-1.023,0.176v8.36h1.023V9.491
			c0.036-0.015,0.097-0.033,0.182-0.055c0.084-0.022,0.18-0.042,0.286-0.061c0.105-0.019,0.218-0.035,0.335-0.049
			c0.117-0.015,0.231-0.022,0.341-0.022c0.271,0,0.499,0.035,0.683,0.104c0.183,0.069,0.33,0.181,0.439,0.335
			c0.11,0.154,0.188,0.355,0.236,0.605c0.048,0.249,0.072,0.55,0.072,0.901v2.992h1.022v-3.212c0-0.389-0.037-0.744-0.109-1.067
			C37.331,9.642,37.205,9.365,37.025,9.134z M42.965,8.991c-0.172-0.194-0.399-0.344-0.682-0.451s-0.629-0.16-1.039-0.16
			c-0.359,0-0.693,0.027-1.001,0.083c-0.309,0.055-0.528,0.112-0.66,0.17l0.121,0.847c0.124-0.051,0.313-0.101,0.566-0.148
			s0.548-0.072,0.886-0.072c0.264,0,0.479,0.039,0.643,0.116c0.165,0.077,0.296,0.18,0.391,0.308
			c0.096,0.128,0.161,0.275,0.198,0.44s0.055,0.332,0.055,0.5v0.286c-0.029-0.007-0.08-0.018-0.153-0.032
			c-0.073-0.016-0.16-0.031-0.259-0.05s-0.203-0.033-0.313-0.044s-0.217-0.017-0.319-0.017c-0.322,0-0.631,0.033-0.924,0.099
			c-0.293,0.066-0.55,0.169-0.77,0.309c-0.221,0.139-0.395,0.322-0.522,0.55c-0.129,0.228-0.192,0.499-0.192,0.813
			c0,0.33,0.055,0.612,0.164,0.848c0.11,0.234,0.265,0.423,0.463,0.566c0.197,0.143,0.433,0.247,0.703,0.313
			c0.271,0.065,0.568,0.099,0.892,0.099c0.227,0,0.456-0.009,0.688-0.027c0.23-0.019,0.445-0.038,0.644-0.061
			c0.198-0.021,0.376-0.046,0.533-0.071s0.28-0.046,0.368-0.061v-3.575c0-0.323-0.036-0.618-0.109-0.885
			C43.261,9.416,43.138,9.185,42.965,8.991z M42.442,13.43c-0.124,0.029-0.28,0.049-0.467,0.061
			c-0.188,0.011-0.401,0.017-0.644,0.017c-0.403,0-0.723-0.072-0.957-0.215c-0.235-0.143-0.353-0.397-0.353-0.765
			c0-0.198,0.048-0.357,0.144-0.479c0.095-0.121,0.214-0.216,0.357-0.286c0.143-0.069,0.301-0.115,0.473-0.138
			c0.173-0.021,0.336-0.032,0.489-0.032c0.235,0,0.435,0.013,0.6,0.038s0.284,0.057,0.357,0.094V13.43z M48.107,8.463
			c-0.109-0.018-0.222-0.033-0.335-0.044c-0.114-0.011-0.215-0.017-0.303-0.017c-0.447,0-0.851,0.039-1.21,0.116
			C45.9,8.595,45.6,8.677,45.357,8.766v5.478h1.023V9.437c0.059-0.015,0.182-0.042,0.368-0.083c0.188-0.041,0.376-0.061,0.566-0.061
			c0.293,0,0.533,0.02,0.721,0.061c0.187,0.04,0.32,0.075,0.401,0.104l0.176-0.891c-0.044-0.015-0.111-0.031-0.203-0.049
			C48.318,8.5,48.218,8.481,48.107,8.463z M53.883,9.101c-0.411-0.48-1.001-0.721-1.771-0.721c-0.33,0-0.652,0.063-0.968,0.187
			c-0.315,0.125-0.594,0.312-0.836,0.561c-0.242,0.25-0.437,0.563-0.583,0.94c-0.146,0.378-0.22,0.82-0.22,1.326
			c0,0.433,0.057,0.83,0.17,1.193c0.114,0.363,0.288,0.677,0.522,0.94S50.731,14,51.094,14.15c0.363,0.149,0.794,0.225,1.293,0.225
			c0.396,0,0.749-0.036,1.062-0.109c0.312-0.073,0.529-0.144,0.654-0.209l-0.143-0.858c-0.125,0.059-0.311,0.119-0.556,0.182
			c-0.246,0.063-0.549,0.094-0.908,0.094c-0.638,0-1.107-0.154-1.407-0.462c-0.301-0.309-0.474-0.759-0.518-1.354h3.916
			c0.008-0.059,0.011-0.122,0.011-0.192v-0.17C54.498,10.313,54.293,9.581,53.883,9.101z M50.594,10.833
			c0.021-0.198,0.067-0.392,0.138-0.583c0.069-0.191,0.166-0.359,0.291-0.506c0.125-0.147,0.276-0.266,0.456-0.358
			c0.18-0.091,0.387-0.137,0.622-0.137c0.418,0,0.746,0.148,0.984,0.445c0.238,0.297,0.354,0.677,0.347,1.138H50.594z"/>
	</g>
</g>
<g>
	<g>
		<path fill="#FFFFFF" d="M14.171,7.251c-1.719,0-2.486,0.946-2.916,1.608v0.031h-0.021c0.006-0.01,0.015-0.021,0.021-0.031V7.48
			H8.019c0.043,0.914,0,9.731,0,9.731h3.236v-5.434c0-0.291,0.022-0.58,0.107-0.79c0.234-0.582,0.766-1.183,1.66-1.183
			c1.171,0,1.639,0.892,1.639,2.201v5.205h3.235v-5.58C17.896,8.642,16.3,7.251,14.171,7.251z M2.995,17.211H6.23V7.48H2.995V17.211
			z M4.634,2.789c-1.107,0-1.831,0.726-1.831,1.681c0,0.934,0.703,1.683,1.789,1.683h0.021c1.128,0,1.83-0.748,1.83-1.683
			C6.422,3.515,5.741,2.789,4.634,2.789z M30.916,11.516c-0.201-0.184-0.439-0.342-0.715-0.475
			c-0.275-0.131-0.578-0.264-0.908-0.395c-0.235-0.088-0.449-0.177-0.644-0.265s-0.365-0.185-0.511-0.292
			c-0.147-0.106-0.261-0.229-0.341-0.369s-0.121-0.312-0.121-0.517c0-0.183,0.039-0.343,0.116-0.479s0.182-0.248,0.313-0.335
			s0.286-0.154,0.462-0.198c0.176-0.044,0.367-0.066,0.572-0.066c0.403,0,0.757,0.045,1.062,0.137s0.533,0.185,0.688,0.281
			l0.341-0.869c-0.176-0.117-0.453-0.226-0.831-0.325c-0.377-0.099-0.797-0.148-1.259-0.148c-0.799,0-1.427,0.187-1.881,0.561
			s-0.682,0.895-0.682,1.562c0,0.323,0.053,0.598,0.159,0.825c0.106,0.227,0.251,0.423,0.435,0.587
			c0.183,0.166,0.4,0.309,0.649,0.43c0.25,0.121,0.513,0.229,0.792,0.324c0.242,0.088,0.471,0.176,0.688,0.264
			c0.217,0.09,0.408,0.193,0.578,0.314c0.168,0.121,0.303,0.264,0.4,0.43c0.1,0.164,0.148,0.363,0.148,0.6
			c0,0.762-0.557,1.143-1.671,1.143c-0.499,0-0.92-0.059-1.265-0.176c-0.345-0.117-0.602-0.223-0.77-0.318L26.4,14.627
			c0.081,0.045,0.192,0.098,0.335,0.16s0.313,0.121,0.512,0.176c0.198,0.055,0.423,0.104,0.676,0.143
			c0.253,0.041,0.53,0.061,0.831,0.061c0.887,0,1.575-0.18,2.062-0.539c0.488-0.359,0.732-0.871,0.732-1.539
			c0-0.359-0.056-0.666-0.166-0.918C31.273,11.916,31.117,11.697,30.916,11.516z M37.12,9.892c-0.18-0.231-0.42-0.411-0.721-0.539
			c-0.301-0.128-0.679-0.192-1.133-0.192c-0.213,0-0.428,0.021-0.644,0.061c-0.217,0.041-0.42,0.097-0.61,0.17V6.465l-1.023,0.176
			v8.361h1.023v-4.753c0.036-0.015,0.097-0.033,0.182-0.055c0.084-0.022,0.18-0.042,0.286-0.061
			c0.105-0.019,0.218-0.035,0.335-0.049c0.117-0.015,0.231-0.022,0.341-0.022c0.271,0,0.499,0.035,0.683,0.104
			c0.183,0.069,0.33,0.181,0.439,0.335c0.11,0.153,0.188,0.356,0.236,0.605c0.048,0.25,0.072,0.551,0.072,0.902v2.992h1.022v-3.213
			c0-0.389-0.037-0.744-0.109-1.067C37.426,10.399,37.3,10.123,37.12,9.892z M43.06,9.749c-0.172-0.194-0.399-0.344-0.682-0.451
			s-0.629-0.16-1.039-0.16c-0.359,0-0.693,0.027-1.001,0.083c-0.309,0.055-0.528,0.112-0.66,0.17l0.121,0.847
			c0.124-0.051,0.313-0.101,0.566-0.148s0.548-0.072,0.886-0.072c0.264,0,0.479,0.039,0.643,0.116
			c0.165,0.077,0.296,0.18,0.391,0.308c0.096,0.128,0.161,0.274,0.198,0.44c0.037,0.165,0.055,0.333,0.055,0.5v0.285
			c-0.029-0.006-0.08-0.018-0.153-0.031c-0.073-0.016-0.16-0.031-0.259-0.051c-0.099-0.018-0.203-0.033-0.313-0.043
			c-0.11-0.012-0.217-0.018-0.319-0.018c-0.322,0-0.631,0.033-0.924,0.1s-0.55,0.168-0.77,0.309
			c-0.221,0.139-0.395,0.322-0.522,0.549c-0.129,0.229-0.192,0.5-0.192,0.814c0,0.33,0.055,0.611,0.164,0.848
			c0.11,0.234,0.265,0.422,0.463,0.566c0.197,0.143,0.433,0.246,0.703,0.313c0.271,0.066,0.568,0.1,0.892,0.1
			c0.227,0,0.456-0.01,0.688-0.027c0.23-0.02,0.445-0.039,0.644-0.061s0.376-0.047,0.533-0.072s0.28-0.045,0.368-0.061v-3.574
			c0-0.322-0.036-0.62-0.109-0.886C43.355,10.174,43.232,9.943,43.06,9.749z M42.537,14.188c-0.124,0.029-0.28,0.049-0.467,0.061
			c-0.188,0.012-0.401,0.018-0.644,0.018c-0.403,0-0.723-0.072-0.957-0.215c-0.235-0.143-0.353-0.398-0.353-0.766
			c0-0.197,0.048-0.357,0.144-0.479c0.095-0.121,0.214-0.215,0.357-0.285c0.143-0.07,0.301-0.115,0.473-0.139
			c0.173-0.021,0.336-0.031,0.489-0.031c0.235,0,0.435,0.012,0.6,0.037s0.284,0.057,0.357,0.094V14.188z M48.202,9.221
			c-0.109-0.018-0.222-0.033-0.335-0.044c-0.114-0.011-0.215-0.017-0.303-0.017c-0.447,0-0.851,0.039-1.21,0.116
			c-0.359,0.077-0.66,0.159-0.902,0.248v5.479h1.023v-4.808c0.059-0.015,0.182-0.042,0.368-0.083
			c0.188-0.041,0.376-0.061,0.566-0.061c0.293,0,0.533,0.02,0.721,0.061c0.187,0.04,0.32,0.075,0.401,0.104l0.176-0.891
			c-0.044-0.015-0.111-0.031-0.203-0.049C48.413,9.257,48.313,9.239,48.202,9.221z M53.978,9.859
			c-0.411-0.48-1.001-0.721-1.771-0.721c-0.33,0-0.652,0.063-0.968,0.187c-0.315,0.125-0.594,0.312-0.836,0.561
			c-0.242,0.25-0.437,0.563-0.583,0.941c-0.146,0.377-0.22,0.819-0.22,1.325c0,0.434,0.057,0.83,0.17,1.193
			c0.114,0.363,0.288,0.678,0.522,0.941s0.534,0.471,0.896,0.621c0.363,0.15,0.794,0.225,1.293,0.225
			c0.396,0,0.749-0.035,1.062-0.109c0.312-0.072,0.529-0.143,0.654-0.209l-0.143-0.857c-0.125,0.059-0.311,0.119-0.556,0.182
			c-0.246,0.063-0.549,0.094-0.908,0.094c-0.638,0-1.107-0.154-1.407-0.463c-0.301-0.309-0.474-0.758-0.518-1.354h3.916
			c0.008-0.059,0.011-0.121,0.011-0.191v-0.17C54.593,11.07,54.388,10.339,53.978,9.859z M50.688,11.592
			c0.021-0.197,0.067-0.393,0.138-0.584c0.069-0.19,0.166-0.358,0.291-0.505c0.125-0.147,0.276-0.266,0.456-0.358
			c0.18-0.091,0.387-0.137,0.622-0.137c0.418,0,0.746,0.148,0.984,0.445s0.354,0.676,0.347,1.139H50.688z"/>
	</g>
</g>
</svg>
