<?xml version="1.0" encoding="utf-8"?>
<!-- Generator: Adobe Illustrator 16.0.0, SVG Export Plug-In . SVG Version: 6.00 Build 0)  -->
<!DOCTYPE svg PUBLIC "-//W3C//DTD SVG 1.1//EN" "http://www.w3.org/Graphics/SVG/1.1/DTD/svg11.dtd">
<svg version="1.1" id="Layer_1" xmlns="http://www.w3.org/2000/svg" xmlns:xlink="http://www.w3.org/1999/xlink" x="0px" y="0px"
	 width="60px" height="20px" viewBox="0 0 60 20" enable-background="new 0 0 60 20" xml:space="preserve">
<path fill-rule="evenodd" clip-rule="evenodd" fill="#3293D0" d="M2-0.001h56c1.105,0,2,0.896,2,2v16c0,1.104-0.895,2-2,2H2
	c-1.104,0-2-0.896-2-2v-16C0,0.895,0.896-0.001,2-0.001z"/>
<g>
	<g>
		<path fill-rule="evenodd" clip-rule="evenodd" fill="#FFFFFF" d="M29.197,6.878h-5.863v0.924h2.398v6.699h1.066V7.802h2.398V6.878
			z M35.51,9.903c-0.102,0.402-0.213,0.807-0.33,1.21s-0.236,0.792-0.357,1.166s-0.236,0.7-0.346,0.979
			c-0.125-0.345-0.248-0.709-0.369-1.095c-0.121-0.385-0.236-0.773-0.346-1.166c-0.111-0.392-0.213-0.777-0.309-1.154
			c-0.096-0.378-0.176-0.732-0.242-1.063h-0.846c-0.074,0.33-0.16,0.685-0.26,1.063c-0.098,0.377-0.203,0.763-0.313,1.154
			c-0.111,0.393-0.227,0.781-0.348,1.166c-0.121,0.386-0.244,0.75-0.367,1.095c-0.111-0.278-0.229-0.604-0.354-0.979
			s-0.244-0.763-0.357-1.166c-0.113-0.403-0.221-0.808-0.324-1.21c-0.103-0.403-0.19-0.777-0.265-1.123h-1.1
			c0.286,1.123,0.59,2.168,0.913,3.136s0.652,1.83,0.99,2.585h0.891c0.205-0.528,0.422-1.131,0.65-1.81
			c0.227-0.678,0.436-1.384,0.627-2.117c0.189,0.733,0.4,1.439,0.633,2.117c0.23,0.679,0.447,1.281,0.654,1.81h0.891
			c0.336-0.755,0.666-1.617,0.99-2.585c0.322-0.968,0.627-2.013,0.912-3.136h-1.057C35.701,9.126,35.613,9.5,35.51,9.903z
			 M40.195,8.638c-0.328,0-0.652,0.063-0.967,0.188c-0.316,0.125-0.594,0.312-0.836,0.561c-0.242,0.25-0.438,0.563-0.584,0.941
			c-0.146,0.377-0.219,0.818-0.219,1.325c0,0.433,0.057,0.83,0.17,1.193c0.113,0.362,0.287,0.677,0.523,0.94
			c0.234,0.264,0.533,0.471,0.896,0.621c0.361,0.15,0.793,0.226,1.291,0.226c0.396,0,0.75-0.037,1.063-0.109
			c0.311-0.073,0.529-0.144,0.654-0.209l-0.143-0.858c-0.125,0.059-0.311,0.119-0.557,0.182s-0.547,0.094-0.906,0.094
			c-0.639,0-1.107-0.154-1.408-0.463c-0.301-0.308-0.473-0.759-0.518-1.353h3.916c0.008-0.059,0.012-0.123,0.012-0.192v-0.171
			c0-0.982-0.207-1.714-0.617-2.194S40.967,8.638,40.195,8.638z M38.678,11.091c0.023-0.197,0.068-0.393,0.139-0.583
			c0.068-0.19,0.166-0.358,0.291-0.506c0.125-0.146,0.277-0.266,0.457-0.357s0.387-0.138,0.621-0.138
			c0.418,0,0.746,0.148,0.984,0.445s0.354,0.677,0.346,1.139H38.678z M46.346,8.638c-0.33,0-0.654,0.063-0.969,0.188
			s-0.594,0.312-0.836,0.561c-0.242,0.25-0.436,0.563-0.582,0.941c-0.148,0.377-0.221,0.818-0.221,1.325
			c0,0.433,0.057,0.83,0.17,1.193c0.113,0.362,0.289,0.677,0.523,0.94s0.533,0.471,0.896,0.621s0.793,0.226,1.293,0.226
			c0.395,0,0.748-0.037,1.061-0.109c0.313-0.073,0.529-0.144,0.654-0.209l-0.143-0.858c-0.125,0.059-0.311,0.119-0.557,0.182
			c-0.244,0.063-0.547,0.094-0.906,0.094c-0.639,0-1.107-0.154-1.408-0.463c-0.301-0.308-0.473-0.759-0.518-1.353h3.916
			c0.008-0.059,0.012-0.123,0.012-0.192v-0.171c0-0.982-0.205-1.714-0.617-2.194C47.705,8.878,47.115,8.638,46.346,8.638z
			 M44.826,11.091c0.023-0.197,0.068-0.393,0.139-0.583s0.166-0.358,0.291-0.506c0.125-0.146,0.277-0.266,0.457-0.357
			s0.387-0.138,0.621-0.138c0.418,0,0.746,0.148,0.984,0.445s0.354,0.677,0.348,1.139H44.826z M53.352,13.467
			c-0.072,0.029-0.203,0.079-0.391,0.148c-0.186,0.07-0.434,0.104-0.742,0.104c-0.176,0-0.33-0.021-0.461-0.065
			c-0.133-0.044-0.242-0.119-0.33-0.226s-0.154-0.253-0.199-0.44c-0.043-0.187-0.066-0.423-0.066-0.709V9.64h2.168V8.78h-2.168V7.01
			l-1.021,0.176v5.104c0,0.381,0.031,0.717,0.094,1.007c0.061,0.289,0.17,0.533,0.324,0.731c0.154,0.197,0.357,0.346,0.609,0.445
			c0.254,0.099,0.574,0.148,0.963,0.148c0.33,0,0.623-0.039,0.881-0.115c0.256-0.077,0.436-0.142,0.539-0.192L53.352,13.467z
			 M18.251,4.765c-0.505,0.233-1.003,0.475-1.594,0.614c-1.518-2.035-4.894-0.289-4.295,2.531C9.949,7.693,8.404,6.515,7.167,4.996
			C6.469,6.353,7.247,8.192,7.929,8.677C7.46,8.735,7.265,8.491,6.89,8.446C6.941,10,7.775,10.688,8.829,11.131
			c-0.228,0.157-0.701,0.042-1.039,0.077c0.317,1.132,1.134,1.71,2.286,1.917c-0.792,0.833-2.293,1.238-3.625,1.228
			c4.751,3.235,11.291-0.748,10.899-7.133c0.396-0.38,1.051-0.881,1.108-1.38c-0.327,0.226-0.799,0.291-1.247,0.383
			C17.624,5.809,18.044,5.405,18.251,4.765z"/>
	</g>
</g>
</svg>
