<?xml version="1.0" encoding="UTF-8"?>
<svg width="35px" height="33px" viewBox="0 0 35 33" version="1.1" xmlns="http://www.w3.org/2000/svg" xmlns:xlink="http://www.w3.org/1999/xlink">
    <!-- Generator: Sketch 41.2 (35397) - http://www.bohemiancoding.com/sketch -->
    <title>blank</title>
    <desc>Created with Sketch.</desc>
    <defs></defs>
    <g id="Page-1" stroke="none" stroke-width="1" fill="none" fill-rule="evenodd">
        <g id="blank">
            <path d="M32.104728,0.490949358 L2.03072796,0.490949358 C0.926727958,0.490949358 0.0247279576,1.33794936 0.0247279576,2.37394936 L0.0247279576,30.6089494 C0.0247279576,31.6439494 0.926727958,32.4909494 2.03072796,32.4909494 L32.106728,32.4909494 C33.209728,32.4909494 34.112728,31.6439494 34.112728,30.6079494 L34.112728,2.37394936 C34.110728,1.33794936 33.207728,0.490949358 32.104728,0.490949358 Z M32.104728,29.6659494 C32.104728,30.1359494 31.603728,30.6069494 31.102728,30.6069494 L3.03272796,30.6069494 C2.53172796,30.6069494 2.03072796,30.1369494 2.03072796,29.6659494 L2.03072796,23.0779494 L32.106728,23.0779494 L32.106728,29.6659494 L32.104728,29.6659494 Z M32.104728,21.1959494 L2.03072796,21.1959494 L2.03072796,3.31494936 C2.03072796,2.84494936 2.53172796,2.37394936 3.03272796,2.37394936 L31.102728,2.37394936 C31.603728,2.37394936 32.104728,2.84394936 32.104728,3.31494936 L32.104728,21.1959494 Z M15.061728,28.7259494 L17.067728,28.7259494 L17.067728,27.7849494 L30.100728,27.7849494 L30.100728,25.9019494 L17.067728,25.9019494 L17.067728,24.9609494 L15.061728,24.9609494 L15.061728,25.9019494 L13.055728,25.9019494 L13.055728,27.7849494 L15.061728,27.7849494 L15.061728,28.7259494 L15.061728,28.7259494 Z M9.04772796,24.9599494 L7.04272796,24.9599494 L7.04272796,28.7239494 L9.04872796,28.7239494 L9.04872796,24.9599494 L9.04772796,24.9599494 Z M14.059728,18.5899494 L23.082728,12.0019494 L14.059728,5.41394936 L14.059728,18.5899494 Z M15.663728,8.51994936 L20.074728,12.0019494 L15.663728,15.3899494 L15.663728,8.51994936 L15.663728,8.51994936 Z M6.03972796,24.9599494 L4.03472796,24.9599494 L4.03472796,28.7239494 L6.04072796,28.7239494 L6.04072796,24.9599494 L6.03972796,24.9599494 Z" id="Shape" fill="#FFFFFF"></path>
            <path d="M32.08,0 L2.006,0 C0.902,0 0,0.847 0,1.883 L0,30.118 C0,31.153 0.902,32 2.006,32 L32.082,32 C33.185,32 34.088,31.153 34.088,30.117 L34.088,1.883 C34.086,0.847 33.183,0 32.08,0 Z M32.08,29.175 C32.08,29.645 31.579,30.116 31.078,30.116 L3.008,30.116 C2.507,30.116 2.006,29.646 2.006,29.175 L2.006,22.587 L32.082,22.587 L32.082,29.175 L32.08,29.175 Z M32.08,20.705 L2.006,20.705 L2.006,2.824 C2.006,2.354 2.507,1.883 3.008,1.883 L31.078,1.883 C31.579,1.883 32.08,2.353 32.08,2.824 L32.08,20.705 Z M15.037,28.235 L17.043,28.235 L17.043,27.294 L30.076,27.294 L30.076,25.411 L17.043,25.411 L17.043,24.47 L15.037,24.47 L15.037,25.411 L13.031,25.411 L13.031,27.294 L15.037,27.294 L15.037,28.235 L15.037,28.235 Z M9.023,24.469 L7.018,24.469 L7.018,28.233 L9.024,28.233 L9.024,24.469 L9.023,24.469 Z M14.035,18.099 L23.058,11.511 L14.035,4.923 L14.035,18.099 Z M15.639,8.029 L20.05,11.511 L15.639,14.899 L15.639,8.029 L15.639,8.029 Z M6.015,24.469 L4.01,24.469 L4.01,28.233 L6.016,28.233 L6.016,24.469 L6.015,24.469 Z" id="Shape" fill="#9DA6BB"></path>
        </g>
    </g>
</svg>