<?xml version="1.0" encoding="utf-8"?>
<!-- Generator: Adobe Illustrator 17.0.0, SVG Export Plug-In . SVG Version: 6.00 Build 0)  -->
<!DOCTYPE svg PUBLIC "-//W3C//DTD SVG 1.1//EN" "http://www.w3.org/Graphics/SVG/1.1/DTD/svg11.dtd">
<svg version="1.1" id="Grid_1_" xmlns="http://www.w3.org/2000/svg" xmlns:xlink="http://www.w3.org/1999/xlink" x="0px" y="0px"
	 width="33px" height="35px" viewBox="0 0 33 35" enable-background="new 0 0 33 35" xml:space="preserve">
<g id="Shape_4">
	<g>
		<path fill-rule="evenodd" clip-rule="evenodd" fill="#FFFFFF" d="M30,1H3C1.343,1,0,2.343,0,4v3c0,1.657,1.343,3,3,3h27
			c1.657,0,3-1.343,3-3V4C33,2.343,31.657,1,30,1z M19.5,7.001h-15c-0.828,0-1.5-0.672-1.5-1.5s0.672-1.5,1.5-1.5h15
			c0.828,0,1.5,0.672,1.5,1.5S20.328,7.001,19.5,7.001z M29.806,5.078l-1.885,1.754c-0.24,0.223-0.616,0.222-0.855-0.001
			l-1.874-1.754c-0.247-0.231-0.256-0.615-0.019-0.857c0.237-0.242,0.629-0.25,0.876-0.019l1.447,1.354l1.457-1.356
			c0.248-0.23,0.64-0.221,0.876,0.022c0.114,0.117,0.17,0.267,0.17,0.417C29.999,4.799,29.934,4.958,29.806,5.078z M30,13H3
			c-1.657,0-3,1.343-3,3v16c0,1.657,1.343,3,3,3h27c1.657,0,3-1.343,3-3V16C33,14.343,31.657,13,30,13z M25.193,17.945l1.874-1.772
			c0.239-0.226,0.615-0.226,0.855-0.001l1.885,1.772c0.128,0.121,0.193,0.282,0.193,0.444c0,0.152-0.057,0.303-0.17,0.422
			c-0.236,0.245-0.628,0.255-0.876,0.022l-1.457-1.37l-1.447,1.369c-0.247,0.234-0.639,0.225-0.876-0.019
			C24.937,18.567,24.945,18.179,25.193,17.945z M4.5,16.001h15c0.828,0,1.5,0.672,1.5,1.5c0,0.828-0.672,1.5-1.5,1.5h-15
			c-0.828,0-1.5-0.672-1.5-1.5C3,16.672,3.672,16.001,4.5,16.001z M29,32.001H4c-0.552,0-1-0.448-1-1c0-0.552,0.448-1,1-1h25
			c0.552,0,1,0.448,1,1C30,31.553,29.552,32.001,29,32.001z M29,28.001H4c-0.552,0-1-0.448-1-1c0-0.552,0.448-1,1-1h25
			c0.552,0,1,0.448,1,1C30,27.553,29.552,28.001,29,28.001z M29,24.001H4c-0.552,0-1-0.448-1-1c0-0.552,0.448-1,1-1h25
			c0.552,0,1,0.448,1,1C30,23.553,29.552,24.001,29,24.001z"/>
	</g>
</g>
<g id="Shape_4_2_">
	<g>
		<path fill-rule="evenodd" clip-rule="evenodd" fill="#9DA6BB" d="M30,0H3c-1.657,0-3,1.343-3,3v3c0,1.657,1.343,3,3,3h27
			c1.657,0,3-1.343,3-3v-3C33,1.342,31.657,0,30,0z M19.5,6h-15C3.672,6,3,5.328,3,4.5S3.672,3,4.5,3h15C20.328,3,21,3.672,21,4.5
			S20.328,6,19.5,6z M29.806,4.077l-1.885,1.754c-0.24,0.223-0.616,0.222-0.855-0.001l-1.874-1.754
			c-0.247-0.231-0.256-0.615-0.019-0.857c0.237-0.242,0.629-0.25,0.876-0.019l1.447,1.354l1.457-1.356
			c0.248-0.231,0.64-0.221,0.876,0.022c0.114,0.117,0.17,0.267,0.17,0.418C29.999,3.798,29.934,3.957,29.806,4.077z M30,12H3
			c-1.657,0-3,1.343-3,3v16c0,1.657,1.343,3,3,3h27c1.657,0,3-1.343,3-3v-16C33,13.342,31.657,12,30,12z M25.193,16.945l1.874-1.772
			c0.239-0.226,0.615-0.226,0.855-0.001l1.885,1.772c0.128,0.121,0.193,0.282,0.193,0.444c0,0.152-0.057,0.303-0.17,0.422
			c-0.236,0.245-0.628,0.255-0.876,0.022l-1.457-1.37l-1.447,1.369c-0.247,0.234-0.639,0.225-0.876-0.019
			C24.937,17.566,24.945,17.178,25.193,16.945z M4.5,15h15c0.828,0,1.5,0.672,1.5,1.5S20.328,18,19.5,18h-15
			C3.672,18,3,17.328,3,16.5S3.672,15,4.5,15z M29,31H4c-0.552,0-1-0.448-1-1c0-0.552,0.448-1,1-1h25c0.552,0,1,0.448,1,1
			C30,30.552,29.552,31,29,31z M29,27H4c-0.552,0-1-0.448-1-1s0.448-1,1-1h25c0.552,0,1,0.448,1,1S29.552,27,29,27z M29,23H4
			c-0.552,0-1-0.448-1-1s0.448-1,1-1h25c0.552,0,1,0.448,1,1S29.552,23,29,23z"/>
	</g>
</g>
</svg>
