<svg id="icon" xmlns="http://www.w3.org/2000/svg" viewBox="0 0 20 21.21">
  <title>presets</title>
  <g id="Group" opacity="0.3">
    <path id="_02" data-name="02" d="M18.18,7.88H1.82A1.82,1.82,0,0,0,0,9.7v9.7a1.82,1.82,0,0,0,1.82,1.82H18.18A1.82,1.82,0,0,0,20,19.39V9.7A1.82,1.82,0,0,0,18.18,7.88Zm-2.91,3L16.4,9.8a0.38,0.38,0,0,1,.52,0l1.14,1.07a0.37,0.37,0,0,1,.12.27,0.37,0.37,0,0,1-.1.26,0.38,0.38,0,0,1-.53,0l-0.88-.83-0.88.83a0.38,0.38,0,0,1-.53,0A0.37,0.37,0,0,1,15.27,10.88ZM2.73,9.7h9.09a0.91,0.91,0,1,1,0,1.82H2.73A0.91,0.91,0,0,1,2.73,9.7Zm14.85,9.7H2.42a0.61,0.61,0,0,1,0-1.21H17.58A0.61,0.61,0,1,1,17.58,19.4Zm0-2.43H2.42a0.61,0.61,0,0,1,0-1.21H17.58A0.61,0.61,0,1,1,17.58,17Zm0-2.42H2.42a0.61,0.61,0,0,1,0-1.21H17.58A0.61,0.61,0,1,1,17.58,14.55Z"/>
    <path id="_01" data-name="01" d="M18.18,0.61H1.82A1.82,1.82,0,0,0,0,2.42V4.24A1.82,1.82,0,0,0,1.82,6.06H18.18A1.82,1.82,0,0,0,20,4.24V2.42A1.82,1.82,0,0,0,18.18.61ZM11.82,4.24H2.73a0.91,0.91,0,0,1,0-1.82h9.09A0.91,0.91,0,1,1,11.82,4.24Zm6.25-1.16L16.92,4.14a0.38,0.38,0,0,1-.52,0L15.27,3.08a0.36,0.36,0,0,1,0-.52,0.38,0.38,0,0,1,.53,0l0.88,0.82,0.88-.82a0.38,0.38,0,0,1,.53,0,0.36,0.36,0,0,1,.1.25A0.37,0.37,0,0,1,18.07,3.08Z"/>
  </g>
  <g id="Group-2" data-name="Group">
    <path id="_02-2" data-name="02" d="M18.18,7.27H1.82A1.82,1.82,0,0,0,0,9.09v9.7a1.82,1.82,0,0,0,1.82,1.82H18.18A1.82,1.82,0,0,0,20,18.79V9.09A1.82,1.82,0,0,0,18.18,7.27Zm-2.91,3L16.4,9.2a0.38,0.38,0,0,1,.52,0l1.14,1.07a0.37,0.37,0,0,1,.12.27,0.37,0.37,0,0,1-.1.26,0.38,0.38,0,0,1-.53,0L16.66,10l-0.88.83a0.38,0.38,0,0,1-.53,0A0.37,0.37,0,0,1,15.27,10.27ZM2.73,9.09h9.09a0.91,0.91,0,1,1,0,1.82H2.73A0.91,0.91,0,0,1,2.73,9.09Zm14.85,9.7H2.42a0.61,0.61,0,0,1,0-1.21H17.58A0.61,0.61,0,1,1,17.58,18.79Zm0-2.42H2.42a0.61,0.61,0,1,1,0-1.21H17.58A0.61,0.61,0,1,1,17.58,16.36Zm0-2.43H2.42a0.61,0.61,0,1,1,0-1.21H17.58A0.61,0.61,0,1,1,17.58,13.94Z" fill="#fff"/>
    <path id="_01-2" data-name="01" d="M18.18,0H1.82A1.82,1.82,0,0,0,0,1.82V3.64A1.82,1.82,0,0,0,1.82,5.45H18.18A1.82,1.82,0,0,0,20,3.64V1.82A1.82,1.82,0,0,0,18.18,0ZM11.82,3.64H2.73a0.91,0.91,0,0,1,0-1.82h9.09A0.91,0.91,0,1,1,11.82,3.64Zm6.25-1.16L16.92,3.53a0.38,0.38,0,0,1-.52,0L15.27,2.47a0.36,0.36,0,0,1,0-.52,0.38,0.38,0,0,1,.53,0l0.88,0.82,0.88-.82a0.38,0.38,0,0,1,.53,0A0.36,0.36,0,0,1,18.07,2.47Z" fill="#fff"/>
  </g>
</svg>
