<?xml version="1.0" encoding="utf-8"?>
<!-- Generator: Adobe Illustrator 21.0.2, SVG Export Plug-In . SVG Version: 6.00 Build 0)  -->
<svg version="1.1" id="Group_1_copy_1_" xmlns="http://www.w3.org/2000/svg" xmlns:xlink="http://www.w3.org/1999/xlink" x="0px"
	 y="0px" width="32px" height="33px" viewBox="0 0 32 33" enable-background="new 0 0 32 33" xml:space="preserve">
<g id="Ellipse_1_2_">
	<g>
		<path fill="#FFFFFF" d="M0,16.2h8c0.2-2.6,1.6-4.8,3.7-6.1l4.2,4.2V9V1l0,0H2.5L6,4.5C2.5,7.3,0.2,11.4,0,16.2z M28.5,7
			c-2.8-3.5-7.1-5.8-11.9-6v8c2.6,0.2,4.8,1.6,6.1,3.7l-4.2,4.2H32V3.5L28.5,7z M16,24.9c-0.1,0-0.2,0-0.4,0h-0.1
			c-0.1,0-0.2,0-0.3,0l0,0c-0.1,0-0.2,0-0.3,0h-0.1c-0.1,0-0.2,0-0.3-0.1l0,0c-0.1,0-0.2,0-0.3-0.1h-0.1c-0.1,0-0.2-0.1-0.3-0.1l0,0
			c-0.1,0-0.2-0.1-0.3-0.1h-0.1c-0.1,0-0.2-0.1-0.3-0.1l0,0c-0.1,0-0.2-0.1-0.3-0.1c0,0,0,0-0.1,0c-0.2-0.1-0.3-0.2-0.5-0.3l0,0l0,0
			l0,0c0,0,0,0-0.1,0c-0.1-0.1-0.2-0.1-0.3-0.2c0.1,0.1,0.3,0.2,0.4,0.2l0,0l0,0c-1.2-0.6-2.1-1.6-2.9-2.7l4.1-4.1H9.7H0v13.3
			L3.5,27c2.9,3.6,7.4,6,12.4,6c5.2,0,9.9-2.5,12.7-6.4L22.9,21C21.6,23.2,18.9,24.9,16,24.9z M9.5,21.6L9.5,21.6L9.5,21.6L9.5,21.6
			L9.5,21.6c-0.1-0.1-0.2-0.3-0.3-0.4C9.3,21.3,9.4,21.5,9.5,21.6L9.5,21.6c0.1,0.1,0.2,0.3,0.3,0.4C9.7,21.9,9.6,21.7,9.5,21.6z
			 M9.8,22L9.8,22c0.1,0.1,0.2,0.3,0.3,0.4C10,22.2,9.9,22.1,9.8,22z M10.1,22.4L10.1,22.4c0.1,0.1,0.2,0.2,0.3,0.4l0,0
			C10.4,22.6,10.2,22.5,10.1,22.4z M10.8,23C10.8,23,10.7,22.9,10.8,23c-0.1-0.1-0.2-0.2-0.3-0.3C10.6,22.8,10.7,22.9,10.8,23
			L10.8,23z M11.4,23.4C11.3,23.4,11.3,23.4,11.4,23.4C11.3,23.4,11.3,23.4,11.4,23.4c0,0,0.2,0.1,0.3,0.2
			C11.5,23.6,11.4,23.5,11.4,23.4z"/>
	</g>
</g>
<g id="Ellipse_1">
	<g>
		<path fill="#9EA6BB" d="M28.5,6c-2.8-3.5-7.1-5.8-11.9-6v8c2.6,0.2,4.8,1.6,6.1,3.7l-4.2,4.2H32V2.5L28.5,6z M0,15.2h8
			c0.2-2.6,1.6-4.8,3.7-6.1l4.2,4.2V8V0l0,0H2.5L6,3.5C2.5,6.3,0.2,10.4,0,15.2z M16,23.9c-0.1,0-0.2,0-0.4,0h-0.1
			c-0.1,0-0.2,0-0.3,0l0,0c-0.1,0-0.2,0-0.3,0h-0.1c-0.1,0-0.2,0-0.3-0.1l0,0c-0.1,0-0.2,0-0.3-0.1h-0.1c-0.1,0-0.2-0.1-0.3-0.1l0,0
			c-0.1,0-0.2-0.1-0.3-0.1h-0.1c-0.1,0-0.2-0.1-0.3-0.1l0,0c-0.1,0-0.2-0.1-0.3-0.1c0,0,0,0-0.1,0c-0.2-0.1-0.3-0.2-0.5-0.3l0,0l0,0
			l0,0c0,0,0,0-0.1,0c-0.1-0.1-0.2-0.1-0.3-0.2c0.1,0.1,0.3,0.2,0.4,0.2l0,0l0,0c-1.2-0.6-2.1-1.6-2.9-2.7l4.1-4.1H9.7H0v13.3
			L3.5,26c2.9,3.6,7.4,6,12.4,6c5.2,0,9.9-2.5,12.7-6.4L22.9,20C21.6,22.2,18.9,23.9,16,23.9z M9.5,20.6L9.5,20.6L9.5,20.6L9.5,20.6
			L9.5,20.6c-0.1-0.1-0.2-0.3-0.3-0.4C9.3,20.3,9.4,20.5,9.5,20.6L9.5,20.6c0.1,0.1,0.2,0.3,0.3,0.4C9.7,20.9,9.6,20.7,9.5,20.6z
			 M9.8,21L9.8,21c0.1,0.1,0.2,0.3,0.3,0.4C10,21.2,9.9,21.1,9.8,21z M10.1,21.4L10.1,21.4c0.1,0.1,0.2,0.2,0.3,0.4l0,0
			C10.4,21.6,10.2,21.5,10.1,21.4z M10.8,22C10.8,22,10.7,21.9,10.8,22c-0.1-0.1-0.2-0.2-0.3-0.3C10.6,21.8,10.7,21.9,10.8,22
			L10.8,22z M11.4,22.4C11.3,22.4,11.3,22.4,11.4,22.4C11.3,22.4,11.3,22.4,11.4,22.4c0,0,0.2,0.1,0.3,0.2
			C11.5,22.6,11.4,22.5,11.4,22.4z"/>
	</g>
</g>
</svg>
