<?xml version="1.0" encoding="utf-8"?>
<!-- Generator: Adobe Illustrator 16.0.0, SVG Export Plug-In . SVG Version: 6.00 Build 0)  -->
<!DOCTYPE svg PUBLIC "-//W3C//DTD SVG 1.1//EN" "http://www.w3.org/Graphics/SVG/1.1/DTD/svg11.dtd">
<svg version="1.1" id="Layer_1" xmlns="http://www.w3.org/2000/svg" xmlns:xlink="http://www.w3.org/1999/xlink" x="0px" y="0px"
	 width="43px" height="34px" viewBox="0 0 43 34" enable-background="new 0 0 43 34" xml:space="preserve">
<g>
	<g>
		<path fill="#FFFFFF" d="M33.874,24.724h0.996v-0.995h-0.996V24.724z M32.878,25.721h0.996v-0.997h-0.996V25.721z M31.882,23.729
			v0.995h0.996v-0.995H31.882z M31.882,18.747h2.988v-5.978h-2.988V18.747z M39.852,0.813H2.989C1.339,0.813,0,2.152,0,3.802v26.9
			c0,1.65,1.339,2.988,2.989,2.988h36.862c1.651,0,2.989-1.338,2.989-2.988v-26.9C42.841,2.152,41.503,0.813,39.852,0.813z
			 M39.852,30.702H2.989v-26.9h36.862V30.702z M7.971,28.71H34.87c1.651,0,2.989-1.339,2.989-2.989V8.783
			c0-1.65-1.338-2.989-2.989-2.989H7.971c-1.65,0-2.989,1.339-2.989,2.989v16.938C4.981,27.371,6.32,28.71,7.971,28.71z
			 M30.886,7.787h4.981v18.93h-4.981V7.787z M6.974,7.787h22.915v18.93H6.974V7.787z M31.882,10.776h0.996V9.78h-0.996V10.776z
			 M32.878,8.783V9.78h0.996V8.783H32.878z M33.874,10.776h0.996V9.78h-0.996V10.776z"/>
	</g>
</g>
<g>
	<g>
		<path fill="#9DA4B8" d="M31.882,18.244h2.988v-5.978h-2.988V18.244z M32.878,25.219h0.996v-0.998h-0.996V25.219z M31.882,23.226
			v0.995h0.996v-0.995H31.882z M33.874,24.221h0.996v-0.995h-0.996V24.221z M32.878,8.281v0.996h0.996V8.281H32.878z M39.852,0.31
			H2.989C1.339,0.31,0,1.649,0,3.299v26.9c0,1.65,1.339,2.988,2.989,2.988h36.862c1.651,0,2.989-1.338,2.989-2.988v-26.9
			C42.841,1.649,41.503,0.31,39.852,0.31z M39.852,30.199H2.989v-26.9h36.862V30.199z M7.971,28.207H34.87
			c1.651,0,2.989-1.338,2.989-2.988V8.281c0-1.65-1.338-2.989-2.989-2.989H7.971c-1.65,0-2.989,1.338-2.989,2.989v16.938
			C4.981,26.869,6.32,28.207,7.971,28.207z M30.886,7.284h4.981v18.93h-4.981V7.284z M6.974,7.284h22.915v18.93H6.974V7.284z
			 M31.882,10.273h0.996V9.277h-0.996V10.273z M33.874,10.273h0.996V9.277h-0.996V10.273z"/>
	</g>
</g>
</svg>
