<?xml version="1.0" encoding="utf-8"?>
<!-- Generator: Adobe Illustrator 21.0.2, SVG Export Plug-In . SVG Version: 6.00 Build 0)  -->
<svg version="1.1" id="Forma_1_1_" xmlns="http://www.w3.org/2000/svg" xmlns:xlink="http://www.w3.org/1999/xlink" x="0px" y="0px"
	 width="42px" height="25px" viewBox="0 0 42 25" enable-background="new 0 0 42 25" xml:space="preserve">
<g id="Forma_1">
	<g>
		<path fill="#FFFFFF" d="M41.4,12l-7.5-8.8c-0.9-1.1-2.2-1.7-3.6-1.7h-28C1.1,1.6,0,2.7,0,4v19.1c0,1.3,1.1,2.4,2.4,2.4h28
			c1.4,0,2.7-0.6,3.6-1.7l7.5-8.8C42.2,14.2,42.2,12.9,41.4,12z M24.7,21.7h-8.2v-0.4h0.3c0.7,0,1.1-0.1,1.4-0.3
			c0.2-0.1,0.3-0.3,0.3-0.5c0-0.1,0-0.3-0.1-0.4c0-0.1-0.1-0.4-0.4-0.9l-0.9-2h-6l-0.7,1.5c-0.2,0.5-0.3,0.9-0.3,1.3
			c0,0.4,0.2,0.8,0.6,1c0.2,0.1,0.8,0.2,1.7,0.3v0.4H6.8v-0.4c0.6-0.1,1.1-0.3,1.5-0.7c0.4-0.4,0.9-1.2,1.4-2.4l6.1-12.5H16
			l6.1,12.8c0.6,1.2,1.1,2,1.4,2.3c0.3,0.2,0.7,0.4,1.2,0.4V21.7z M33.7,15.9c-1.3,0-2.4-1.1-2.4-2.4s1.1-2.4,2.4-2.4
			c1.3,0,2.4,1.1,2.4,2.4C36.1,14.8,35,15.9,33.7,15.9z M11.6,16.3h5.1L14.2,11L11.6,16.3z"/>
	</g>
</g>
<g id="Forma_1_3_">
	<g>
		<path fill="#9EA6BB" d="M41.4,11l-7.5-8.8c-0.9-1.1-2.2-1.7-3.6-1.7h-28C1.1,0.6,0,1.7,0,3v19.1c0,1.3,1.1,2.4,2.4,2.4h28
			c1.4,0,2.7-0.6,3.6-1.7l7.5-8.8C42.2,13.2,42.2,11.9,41.4,11z M24.7,20.7h-8.2v-0.4h0.3c0.7,0,1.1-0.1,1.4-0.3
			c0.2-0.1,0.3-0.3,0.3-0.5c0-0.1,0-0.3-0.1-0.4c0-0.1-0.1-0.4-0.4-0.9l-0.9-2h-6l-0.7,1.5c-0.2,0.5-0.3,0.9-0.3,1.3
			c0,0.4,0.2,0.8,0.6,1c0.2,0.1,0.8,0.2,1.7,0.3v0.4H6.8v-0.4c0.6-0.1,1.1-0.3,1.5-0.7s0.9-1.2,1.4-2.4l6.1-12.5H16l6.1,12.8
			c0.6,1.2,1.1,2,1.4,2.3c0.3,0.2,0.7,0.4,1.2,0.4V20.7z M33.7,14.9c-1.3,0-2.4-1.1-2.4-2.4s1.1-2.4,2.4-2.4c1.3,0,2.4,1.1,2.4,2.4
			C36.1,13.8,35,14.9,33.7,14.9z M11.6,15.3h5.1L14.2,10L11.6,15.3z"/>
	</g>
</g>
</svg>
