<?xml version="1.0" encoding="utf-8"?>
<!-- Generator: Adobe Illustrator 16.0.0, SVG Export Plug-In . SVG Version: 6.00 Build 0)  -->
<!DOCTYPE svg PUBLIC "-//W3C//DTD SVG 1.1//EN" "http://www.w3.org/Graphics/SVG/1.1/DTD/svg11.dtd">
<svg version="1.1" id="Layer_1" xmlns="http://www.w3.org/2000/svg" xmlns:xlink="http://www.w3.org/1999/xlink" x="0px" y="0px"
	 width="28px" height="35px" viewBox="0 0 28 35" enable-background="new 0 0 28 35" xml:space="preserve">
<path fill="#9DA6BC" d="M5.198,20.128c1.724-2.869-0.554-3.499-0.911-5.577C2.825,6.057,14.704,0.254,20.923,6.19
	c4.308,4.111,1.472,16.75-5.468,15.436c-6.648-1.254,3.254-11.316-2.05-13.29c-4.312-1.606-6.602,4.909-4.558,8.146
	c-1.2,5.571-3.782,10.812-2.736,17.793c3.389-2.313,4.534-6.742,5.47-11.364c1.703,0.975,2.615,1.987,4.788,2.146
	c8.012,0.583,12.488-7.523,11.39-15.007C26.788,3.419,19.76,0.04,12.263,0.833C6.336,1.457,0.426,5.964,0.181,12.41
	C0.031,16.345,1.218,19.298,5.198,20.128z"/>
</svg>
