<?xml version="1.0" encoding="utf-8"?>
<!-- Generator: Adobe Illustrator 16.0.0, SVG Export Plug-In . SVG Version: 6.00 Build 0)  -->
<!DOCTYPE svg PUBLIC "-//W3C//DTD SVG 1.1//EN" "http://www.w3.org/Graphics/SVG/1.1/DTD/svg11.dtd">
<svg version="1.1" id="Layer_1" xmlns="http://www.w3.org/2000/svg" xmlns:xlink="http://www.w3.org/1999/xlink" x="0px" y="0px"
	 width="34px" height="34px" viewBox="0 0 34 34" enable-background="new 0 0 34 34" xml:space="preserve">
<g>
	<g>
		<path fill="#FFFFFF" d="M28.529,24.761l-4.01-13.035l-5.014,9.024l-3.007-3.008l-5.013,8.021l-3.008-2.005l-3.008,5.013h23.06
			V24.761z M30.537,0.697H3.464c-1.662,0-3.008,1.347-3.008,3.007v27.073c0,1.661,1.347,3.007,3.008,3.007h27.073
			c1.66,0,3.007-1.346,3.007-3.007V3.705C33.544,2.044,32.197,0.697,30.537,0.697z M30.537,30.777H3.464V3.705h27.073V30.777
			L30.537,30.777z M9.981,14.734c1.938,0,3.51-1.57,3.51-3.509c0-1.938-1.571-3.51-3.51-3.51c-1.938,0-3.509,1.571-3.509,3.51
			S8.043,14.734,9.981,14.734z"/>
	</g>
</g>
<g>
	<g>
		<path fill="#9DA4B8" d="M28.529,24.278l-4.01-13.035l-5.014,9.023l-3.007-3.007l-5.013,8.021l-3.008-2.006l-3.008,5.014h23.06
			V24.278z M30.537,0.214H3.464c-1.662,0-3.008,1.348-3.008,3.008v27.071c0,1.662,1.347,3.008,3.008,3.008h27.073
			c1.66,0,3.007-1.346,3.007-3.008V3.223C33.544,1.562,32.197,0.214,30.537,0.214z M30.537,30.294H3.464V3.223h27.073V30.294
			L30.537,30.294z M9.981,14.252c1.938,0,3.51-1.57,3.51-3.509c0-1.939-1.571-3.51-3.51-3.51c-1.938,0-3.509,1.571-3.509,3.51
			C6.472,12.682,8.043,14.252,9.981,14.252z"/>
	</g>
</g>
</svg>
