<?xml version="1.0" encoding="utf-8"?>
<!-- Generator: Adobe Illustrator 17.0.0, SVG Export Plug-In . SVG Version: 6.00 Build 0)  -->
<!DOCTYPE svg PUBLIC "-//W3C//DTD SVG 1.1//EN" "http://www.w3.org/Graphics/SVG/1.1/DTD/svg11.dtd">
<svg version="1.1" xmlns="http://www.w3.org/2000/svg" xmlns:xlink="http://www.w3.org/1999/xlink" x="0px" y="0px" width="20px"
	 height="20px" viewBox="0 0 20 20" enable-background="new 0 0 20 20" xml:space="preserve">
<g id="Layer_1" display="none">
	<circle display="inline" fill="#FFFFFF" cx="10" cy="10" r="10"/>
	<g id="XMLID_7_" display="inline" opacity="0.2">
		<path id="XMLID_9_" fill="#010101" d="M10,0C4.5,0,0,4.5,0,10s4.5,10,10,10s10-4.5,10-10S15.5,0,10,0z M10,18.5
			c-4.7,0-8.5-3.8-8.5-8.5S5.3,1.5,10,1.5s8.5,3.8,8.5,8.5S14.7,18.5,10,18.5z"/>
		<polygon id="XMLID_8_" fill="#010101" points="7.4,14 14.3,10.1 7.4,6.1 		"/>
	</g>
</g>
<g id="Layer_2">
	<path opacity="0.2" fill="#010101" d="M10,1c-5.247,0-9.5,4.253-9.5,9.5c0,5.247,4.253,9.5,9.5,9.5s9.5-4.253,9.5-9.5
		C19.5,5.253,15.247,1,10,1z M10,18.575c-4.46,0-8.075-3.615-8.075-8.075c0-4.46,3.615-8.075,8.075-8.075s8.075,3.615,8.075,8.075
		C18.075,14.96,14.46,18.575,10,18.575z"/>
	<path fill="#FFFFFF" d="M10,0C4.753,0,0.5,4.253,0.5,9.5c0,5.247,4.253,9.5,9.5,9.5s9.5-4.253,9.5-9.5C19.5,4.253,15.247,0,10,0z
		 M10,17.575c-4.46,0-8.075-3.615-8.075-8.075c0-4.46,3.615-8.075,8.075-8.075S18.075,5.04,18.075,9.5
		C18.075,13.96,14.46,17.575,10,17.575z"/>
	<polygon opacity="0.2" points="7.5,6 14.5,10 7.5,14 	"/>
	<polygon fill="#FFFFFF" points="7.5,5 14.5,9 7.5,13 	"/>
</g>
</svg>
