<?xml version="1.0" encoding="utf-8"?>
<!-- Generator: Adobe Illustrator 17.0.0, SVG Export Plug-In . SVG Version: 6.00 Build 0)  -->
<!DOCTYPE svg PUBLIC "-//W3C//DTD SVG 1.1//EN" "http://www.w3.org/Graphics/SVG/1.1/DTD/svg11.dtd">
<svg version="1.1" id="Layer_1" xmlns="http://www.w3.org/2000/svg" xmlns:xlink="http://www.w3.org/1999/xlink" x="0px" y="0px"
	 width="35px" height="24px" viewBox="0 0 35 24" enable-background="new 0 0 35 24" xml:space="preserve">
<g>
	<path fill="#FFFFFF" d="M2.219,14.064c0-0.001-0.005-0.003-0.005-0.005c-0.045-0.09-0.159-0.157-0.296-0.157
		c-0.136,0-0.25,0.067-0.293,0.157c0,0.003-0.003,0.004-0.005,0.005c-0.235,0.538-0.392,1.103-0.505,1.838
		c-0.096,0.629-0.144,1.239-0.139,1.814c-0.003,0.59,0.045,1.201,0.141,1.819c0.114,0.733,0.268,1.298,0.503,1.835
		c0,0,0.005,0.003,0.005,0.005c0.02,0.042,0.056,0.075,0.101,0.101c0.01,0.008,0.018,0.01,0.03,0.015
		c0.048,0.025,0.104,0.039,0.164,0.039c0.061,0,0.116-0.015,0.164-0.039c0.01-0.005,0.02-0.008,0.03-0.015
		c0.045-0.027,0.078-0.06,0.101-0.101c0-0.003,0.003-0.005,0.005-0.005c0.232-0.538,0.389-1.102,0.503-1.835
		c0.096-0.616,0.144-1.229,0.142-1.816c0.003-0.577-0.043-1.187-0.139-1.816C2.61,15.167,2.454,14.601,2.219,14.064z"/>
	<path fill="#FFFFFF" d="M5.293,12.025c0-0.002-0.005-0.005-0.005-0.009c-0.048-0.14-0.166-0.245-0.313-0.245
		c-0.145,0-0.263,0.105-0.311,0.245c0,0.004-0.005,0.007-0.005,0.009c-0.251,0.835-0.414,1.718-0.535,2.856
		c-0.101,0.979-0.152,1.929-0.149,2.824c-0.002,0.917,0.048,1.867,0.152,2.828c0.121,1.139,0.284,2.023,0.533,2.855
		c0,0.004,0.005,0.007,0.005,0.011c0.022,0.064,0.058,0.115,0.106,0.156c0.01,0.011,0.019,0.018,0.031,0.025
		c0.051,0.037,0.108,0.062,0.174,0.062s0.125-0.025,0.176-0.062c0.012-0.007,0.022-0.014,0.031-0.025
		c0.048-0.041,0.084-0.094,0.106-0.156c0-0.004,0.002-0.007,0.005-0.011c0.248-0.833,0.41-1.718,0.533-2.855
		c0.101-0.961,0.152-1.911,0.149-2.824c0.002-0.899-0.046-1.849-0.149-2.828C5.708,13.743,5.542,12.858,5.293,12.025z"/>
	<path fill="#FFFFFF" d="M8.555,9.368c0-0.003-0.007-0.007-0.007-0.01c-0.055-0.174-0.2-0.3-0.374-0.3
		c-0.172,0-0.317,0.128-0.372,0.3c0,0.003-0.005,0.007-0.007,0.01c-0.299,1.026-0.496,2.109-0.641,3.51
		c-0.122,1.203-0.181,2.37-0.177,3.47c-0.002,1.125,0.057,2.292,0.179,3.475c0.145,1.398,0.342,2.482,0.638,3.507
		c0,0.003,0.007,0.007,0.007,0.014c0.025,0.078,0.069,0.142,0.126,0.193c0.011,0.014,0.023,0.017,0.037,0.031
		c0.06,0.043,0.131,0.075,0.209,0.075c0.078,0,0.149-0.031,0.209-0.075c0.014-0.014,0.025-0.017,0.039-0.031
		c0.055-0.05,0.099-0.115,0.126-0.193c0-0.007,0.007-0.01,0.007-0.014c0.296-1.024,0.491-2.109,0.638-3.507
		c0.119-1.184,0.181-2.351,0.181-3.472c0.002-1.104-0.055-2.271-0.179-3.472C9.051,11.477,8.854,10.394,8.555,9.368z"/>
	<path fill="#FFFFFF" d="M28.506,8.406c-1.286-3.398-4.327-5.787-7.879-5.787c-2.939,0-5.526,1.637-7.059,4.125v16.934
		c0.124,0,0.247,0,0.373,0c6.936,0,16.261,0,16.704,0c1.17,0,1.759-0.774,1.759-0.774c1.564-1.53,2.552-3.758,2.552-6.241
		C34.955,12.476,32.158,9.017,28.506,8.406z"/>
	<path fill="#FFFFFF" d="M12.031,7.119c0-0.004-0.007-0.009-0.007-0.014c-0.063-0.202-0.23-0.349-0.43-0.349
		c-0.197,0-0.364,0.148-0.427,0.349c0,0.005-0.007,0.009-0.007,0.014c-0.343,1.196-0.57,2.46-0.737,4.097
		c-0.141,1.401-0.209,2.762-0.204,4.048c-0.002,1.315,0.066,2.676,0.207,4.055c0.167,1.632,0.392,2.897,0.735,4.093
		c0,0.004,0.007,0.007,0.007,0.014c0.031,0.092,0.08,0.166,0.146,0.225c0.014,0.018,0.028,0.022,0.045,0.036
		c0.07,0.052,0.15,0.088,0.24,0.088c0.092,0,0.171-0.036,0.242-0.088c0.016-0.014,0.028-0.018,0.042-0.036
		c0.066-0.059,0.115-0.133,0.146-0.225c0-0.007,0.007-0.011,0.007-0.014c0.34-1.196,0.566-2.462,0.735-4.093
		c0.139-1.379,0.207-2.739,0.207-4.048c0.005-1.291-0.063-2.653-0.204-4.054C12.604,9.577,12.376,8.315,12.031,7.119z"/>
</g>
<g>
	<path fill="#9DA6BB" d="M2.219,13.064c0-0.001-0.005-0.003-0.005-0.005c-0.045-0.09-0.159-0.157-0.296-0.157
		c-0.136,0-0.25,0.067-0.293,0.157c0,0.003-0.003,0.004-0.005,0.005c-0.235,0.538-0.392,1.103-0.505,1.838
		c-0.096,0.629-0.144,1.239-0.139,1.814c-0.003,0.59,0.045,1.201,0.141,1.819c0.114,0.733,0.268,1.298,0.503,1.835
		c0,0,0.005,0.003,0.005,0.005c0.02,0.042,0.056,0.075,0.101,0.101c0.01,0.008,0.018,0.01,0.03,0.015
		c0.048,0.025,0.104,0.039,0.164,0.039c0.061,0,0.116-0.015,0.164-0.039c0.01-0.005,0.02-0.008,0.03-0.015
		c0.045-0.027,0.078-0.06,0.101-0.101c0-0.003,0.003-0.005,0.005-0.005c0.232-0.538,0.389-1.102,0.503-1.835
		c0.096-0.616,0.144-1.229,0.142-1.816c0.003-0.577-0.043-1.187-0.139-1.816C2.61,14.167,2.454,13.601,2.219,13.064z"/>
	<path fill="#9DA6BB" d="M5.293,11.025c0-0.002-0.005-0.005-0.005-0.009c-0.048-0.14-0.166-0.245-0.313-0.245
		c-0.145,0-0.263,0.105-0.311,0.245c0,0.004-0.005,0.007-0.005,0.009c-0.251,0.835-0.414,1.718-0.535,2.856
		c-0.101,0.979-0.152,1.929-0.149,2.824c-0.002,0.917,0.048,1.867,0.152,2.828c0.121,1.139,0.284,2.023,0.533,2.855
		c0,0.004,0.005,0.007,0.005,0.011c0.022,0.064,0.058,0.115,0.106,0.156c0.01,0.011,0.019,0.018,0.031,0.025
		c0.051,0.037,0.108,0.062,0.174,0.062s0.125-0.025,0.176-0.062c0.012-0.007,0.022-0.014,0.031-0.025
		c0.048-0.041,0.084-0.094,0.106-0.156c0-0.004,0.002-0.007,0.005-0.011c0.248-0.833,0.41-1.718,0.533-2.855
		c0.101-0.961,0.152-1.911,0.149-2.824c0.002-0.899-0.046-1.849-0.149-2.828C5.708,12.743,5.542,11.858,5.293,11.025z"/>
	<path fill="#9DA6BB" d="M8.555,8.368c0-0.003-0.007-0.007-0.007-0.01c-0.055-0.174-0.2-0.3-0.374-0.3
		c-0.172,0-0.317,0.128-0.372,0.3c0,0.003-0.005,0.007-0.007,0.01c-0.299,1.026-0.496,2.109-0.641,3.51
		c-0.122,1.203-0.181,2.37-0.177,3.47c-0.002,1.125,0.057,2.292,0.179,3.475c0.145,1.398,0.342,2.482,0.638,3.507
		c0,0.003,0.007,0.007,0.007,0.014c0.025,0.078,0.069,0.142,0.126,0.193c0.011,0.014,0.023,0.017,0.037,0.031
		c0.06,0.043,0.131,0.075,0.209,0.075c0.078,0,0.149-0.031,0.209-0.075c0.014-0.014,0.025-0.017,0.039-0.031
		c0.055-0.05,0.099-0.115,0.126-0.193c0-0.007,0.007-0.01,0.007-0.014c0.296-1.024,0.491-2.109,0.638-3.507
		c0.119-1.184,0.181-2.351,0.181-3.472c0.002-1.104-0.055-2.271-0.179-3.472C9.051,10.477,8.854,9.394,8.555,8.368z"/>
	<path fill="#9DA6BB" d="M28.506,7.406c-1.286-3.398-4.327-5.787-7.879-5.787c-2.939,0-5.526,1.637-7.059,4.125v16.934
		c0.124,0,0.247,0,0.373,0c6.936,0,16.261,0,16.704,0c1.17,0,1.759-0.774,1.759-0.774c1.564-1.53,2.552-3.758,2.552-6.241
		C34.955,11.476,32.158,8.017,28.506,7.406z"/>
	<path fill="#9DA6BB" d="M12.031,6.119c0-0.004-0.007-0.009-0.007-0.014c-0.063-0.202-0.23-0.349-0.43-0.349
		c-0.197,0-0.364,0.148-0.427,0.349c0,0.005-0.007,0.009-0.007,0.014c-0.343,1.196-0.57,2.46-0.737,4.097
		c-0.141,1.401-0.209,2.762-0.204,4.048c-0.002,1.315,0.066,2.676,0.207,4.055c0.167,1.632,0.392,2.897,0.735,4.093
		c0,0.004,0.007,0.007,0.007,0.014c0.031,0.092,0.08,0.166,0.146,0.225c0.014,0.018,0.028,0.022,0.045,0.036
		c0.07,0.052,0.15,0.088,0.24,0.088c0.092,0,0.171-0.036,0.242-0.088c0.016-0.014,0.028-0.018,0.042-0.036
		c0.066-0.059,0.115-0.133,0.146-0.225c0-0.007,0.007-0.011,0.007-0.014c0.34-1.196,0.566-2.462,0.735-4.093
		c0.139-1.379,0.207-2.739,0.207-4.048c0.005-1.291-0.063-2.653-0.204-4.054C12.604,8.577,12.376,7.315,12.031,6.119z"/>
</g>
</svg>
