<?xml version="1.0" encoding="utf-8"?>
<!-- Generator: Adobe Illustrator 16.0.0, SVG Export Plug-In . SVG Version: 6.00 Build 0)  -->
<!DOCTYPE svg PUBLIC "-//W3C//DTD SVG 1.1//EN" "http://www.w3.org/Graphics/SVG/1.1/DTD/svg11.dtd">
<svg version="1.1" id="Layer_1" xmlns="http://www.w3.org/2000/svg" xmlns:xlink="http://www.w3.org/1999/xlink" x="0px" y="0px"
	 width="56px" height="34px" viewBox="0 0 56 34" enable-background="new 0 0 56 34" xml:space="preserve">
<g>
	<g>
		<path fill="#FFFFFF" d="M39.839,23.189h-6.877c0,0-0.983-0.089-0.983-0.985c0-0.897,0-2.96,0-2.96
			c1.909-1.417,3.93-1.246,3.93-7.183c0-10.31-4.953-10.494-7.859-10.494c-0.008,0-0.013,0.126-0.016,0.324
			c-0.002-0.162-0.007-0.263-0.015-0.263c-2.912,0-7.875,0.184-7.875,10.474c0,5.925,2.025,5.755,3.938,7.17c0,0,0,2.058,0,2.951
			c0,0.895-0.984,0.986-0.984,0.986h-6.89c0,0-3.815,0.107-3.938,2.857c0,1.245,0,3.006,0,5.017c0,2.01,1.575,1.967,1.575,1.967
			l14.174,0.002V30.1H15.222c-0.022,0.002,0-2.953,0-2.953s-0.032-0.985,0.985-0.985c1.016,0,6.89,0,6.89,0s3.937,0.008,3.937-3.938
			c0-3.944,0-3.937,0-3.937c-1.881-0.921-3.937-1.746-3.937-6.89c0-5.25,2.051-6.89,4.921-6.89c0,0,0.011-0.761,0.016-1.5
			c0.005,0.721,0.015,1.444,0.015,1.444c2.866,0,4.912,1.644,4.912,6.904c0,5.152-2.052,5.98-3.93,6.905c0,0,0-0.009,0,3.944
			c0,3.951,3.93,3.943,3.93,3.943s5.861,0,6.878,0c1.015,0,0.981,0.987,0.981,0.987s0.022,2.961,0,2.959H28.049v2.959l14.147-0.002
			c0,0,1.571,0.043,1.571-1.971c0-2.015,0.001-3.779,0.001-5.024C43.646,23.297,39.839,23.189,39.839,23.189z M53.611,25.179h-6.891
			v-2.955c1.431-1.061,2.965-1.938,2.965-4.914c0-5.047-3.003-7.872-5.895-7.872c-0.016,0-1.008-0.01-1.008-0.01
			s-0.002,0.082-0.005,0.197c-0.004-0.11-0.009-0.188-0.018-0.188c-2.892,0-5.895,2.824-5.895,7.872
			c0,2.976,1.532,3.854,2.964,4.914h1.969c0,0-3.938-1.896-3.938-4.92c0-3.945,2.771-6.891,4.922-6.891h0.984
			c2.149,0,4.922,2.946,4.922,6.891c0,3.024-3.938,4.92-3.938,4.92v1.97c0,2.965,2.954,2.953,2.954,2.953h5.906v3.938h-8.86v1.969
			l9.65-0.002c0,0,1.178-0.458,1.178-1.967v-3.938C55.488,25.079,53.611,25.179,53.611,25.179z M7.348,17.303
			c0-3.946,2.773-6.891,4.921-6.891h0.985c2.149,0,4.921,2.945,4.921,6.891c0,3.024-3.937,4.92-3.937,4.92h1.969
			c1.431-1.061,2.964-1.938,2.964-4.914c0-5.047-3.003-7.872-5.895-7.872c-0.009,0-0.014,0.077-0.018,0.187
			c-0.002-0.114-0.005-0.196-0.005-0.196s-0.992,0.01-1.007,0.01c-2.892,0-5.894,2.824-5.894,7.872c0,2.976,1.533,3.854,2.964,4.914
			v2.955H2.426c0,0-1.876-0.102-1.969,1.968v3.938c0,1.509,1.178,1.967,1.178,1.967l9.649,0.002v-1.969H2.426v-3.938h5.906
			c0,0,2.953,0.012,2.953-2.953v-1.97C11.285,22.224,7.348,20.327,7.348,17.303z"/>
	</g>
</g>
<g>
	<g>
		<path fill="#9DA3B7" d="M39.839,22.571h-6.877c0,0-0.983-0.092-0.983-0.988c0-0.896,0-2.958,0-2.958
			c1.909-1.417,3.93-1.246,3.93-7.183c0-10.311-4.953-10.494-7.859-10.494c-0.008,0-0.013,0.126-0.016,0.324
			c-0.002-0.163-0.007-0.263-0.015-0.263c-2.912,0-7.875,0.183-7.875,10.473c0,5.926,2.025,5.755,3.938,7.168c0,0,0,2.061,0,2.955
			c0,0.894-0.984,0.983-0.984,0.983h-6.89c0,0-3.815,0.107-3.938,2.859c0,1.243,0,3.006,0,5.015c0,2.011,1.575,1.969,1.575,1.969
			h14.174v-2.952H15.222c-0.022,0.002,0-2.954,0-2.954s-0.032-0.983,0.985-0.983c1.016,0,6.89,0,6.89,0s3.937,0.008,3.937-3.937
			c0-3.945,0-3.938,0-3.938c-1.881-0.922-3.937-1.748-3.937-6.891c0-5.25,2.051-6.89,4.921-6.89c0,0,0.011-0.762,0.016-1.5
			c0.005,0.722,0.015,1.444,0.015,1.444c2.866,0,4.912,1.645,4.912,6.904c0,5.153-2.052,5.981-3.93,6.903c0,0,0-0.008,0,3.945
			s3.93,3.945,3.93,3.945s5.861,0,6.878,0c1.015,0,0.981,0.987,0.981,0.987s0.022,2.96,0,2.958H28.049v2.958h14.147
			c0,0,1.571,0.042,1.571-1.973c0-2.013,0.001-3.778,0.001-5.024C43.646,22.679,39.839,22.571,39.839,22.571z M53.611,24.557h-6.891
			v-2.951c1.431-1.063,2.965-1.938,2.965-4.915c0-5.048-3.003-7.872-5.895-7.872c-0.016,0-1.008-0.009-1.008-0.009
			s-0.002,0.081-0.005,0.196c-0.004-0.11-0.009-0.187-0.018-0.187c-2.892,0-5.895,2.824-5.895,7.872
			c0,2.977,1.532,3.852,2.964,4.915h1.969c0,0-3.938-1.897-3.938-4.923c0-3.944,2.771-6.89,4.922-6.89h0.984
			c2.149,0,4.922,2.946,4.922,6.89c0,3.025-3.938,4.923-3.938,4.923v1.969c0,2.963,2.954,2.951,2.954,2.951h5.906v3.938h-8.86v1.969
			h9.65c0,0,1.178-0.458,1.178-1.969v-3.938C55.488,24.457,53.611,24.557,53.611,24.557z M7.348,16.683
			c0-3.944,2.773-6.89,4.921-6.89h0.985c2.149,0,4.921,2.946,4.921,6.89c0,3.025-3.937,4.923-3.937,4.923h1.969
			c1.431-1.063,2.964-1.938,2.964-4.915c0-5.048-3.003-7.872-5.895-7.872c-0.009,0-0.014,0.077-0.018,0.186
			C13.256,8.89,13.254,8.81,13.254,8.81s-0.992,0.009-1.007,0.009c-2.892,0-5.894,2.824-5.894,7.872
			c0,2.977,1.533,3.852,2.964,4.915v2.951H2.426c0,0-1.876-0.1-1.969,1.969v3.938c0,1.511,1.178,1.969,1.178,1.969h9.649v-1.969
			H2.426v-3.938h5.906c0,0,2.953,0.012,2.953-2.951v-1.969C11.285,21.605,7.348,19.708,7.348,16.683z"/>
	</g>
</g>
</svg>
