<?xml version="1.0" encoding="utf-8"?>
<!-- Generator: Adobe Illustrator 21.0.2, SVG Export Plug-In . SVG Version: 6.00 Build 0)  -->
<svg version="1.1" id="Rounded_Rectangle_4_copy_2_1_"
	 xmlns="http://www.w3.org/2000/svg" xmlns:xlink="http://www.w3.org/1999/xlink" x="0px" y="0px" width="31px" height="23px"
	 viewBox="0 0 31 23" enable-background="new 0 0 31 23" xml:space="preserve">
<g id="Tag_description_2_">
	<g>
		<path fill="#FFFFFF" d="M29.5,21.6H0.7c-0.4,0-0.7,0.3-0.7,0.7S0.3,23,0.7,23h28.8c0.4,0,0.7-0.3,0.7-0.7S30,21.6,29.5,21.6z
			 M1,10.1h24.8c0.6,0,1.2-0.3,1.6-0.7l3.3-3.7c0.4-0.4,0.4-0.9,0-1.3l-3.2-3c-0.4-0.4-1-0.7-1.6-0.7H1c-0.6,0-1,0.4-1,1V9
			C0,9.6,0.4,10.1,1,10.1z M26.2,4.3c0.6,0,1.1,0.5,1.1,1.1s-0.5,1.1-1.1,1.1S25.1,6,25.1,5.4S25.6,4.3,26.2,4.3z M29.5,14.4H0.7
			c-0.4,0-0.7,0.3-0.7,0.7s0.3,0.7,0.7,0.7h28.8c0.4,0,0.7-0.3,0.7-0.7C30.3,14.7,30,14.4,29.5,14.4z M29.5,18H0.7
			C0.3,18,0,18.3,0,18.7s0.3,0.7,0.7,0.7h28.8c0.4,0,0.7-0.3,0.7-0.7S30,18,29.5,18z"/>
	</g>
</g>
<g id="Tag_description_1_">
	<g>
		<path fill="#9EA6BB" d="M29.5,20.8H0.7c-0.4,0-0.7,0.3-0.7,0.7s0.3,0.7,0.7,0.7h28.8c0.4,0,0.7-0.3,0.7-0.7S30,20.8,29.5,20.8z
			 M1,9.3h24.8c0.6,0,1.2-0.3,1.6-0.7l3.3-3.7c0.4-0.4,0.4-0.9,0-1.3l-3.2-2.9c-0.4-0.4-1-0.7-1.6-0.7H1C0.4,0,0,0.4,0,1v7.3
			C0,8.9,0.4,9.3,1,9.3z M26.2,3.6c0.6,0,1.1,0.5,1.1,1.1s-0.5,1.1-1.1,1.1s-1.1-0.5-1.1-1.1S25.6,3.6,26.2,3.6z M29.5,13.7H0.7
			C0.3,13.7,0,14,0,14.4s0.3,0.7,0.7,0.7h28.8c0.4,0,0.7-0.3,0.7-0.7S30,13.7,29.5,13.7z M29.5,17.3H0.7C0.3,17.3,0,17.6,0,18
			s0.3,0.7,0.7,0.7h28.8c0.4,0,0.7-0.3,0.7-0.7S30,17.3,29.5,17.3z"/>
	</g>
</g>
</svg>
