<?xml version="1.0" encoding="utf-8"?>
<!-- Generator: Adobe Illustrator 16.0.0, SVG Export Plug-In . SVG Version: 6.00 Build 0)  -->
<!DOCTYPE svg PUBLIC "-//W3C//DTD SVG 1.1//EN" "http://www.w3.org/Graphics/SVG/1.1/DTD/svg11.dtd">
<svg version="1.1" id="Layer_1" xmlns="http://www.w3.org/2000/svg" xmlns:xlink="http://www.w3.org/1999/xlink" x="0px" y="0px"
	 width="228px" height="90px" viewBox="0 0 228 90" enable-background="new 0 0 228 90" xml:space="preserve">
<path fill="#FBAB29" d="M37.481,12.166h42.095c3.875,0,7.015,3.141,7.015,7.015v43.097c0,3.874-3.141,7.015-7.015,7.015H37.481
	c-3.875,0-7.016-3.139-7.016-7.015V19.181C30.466,15.306,33.607,12.166,37.481,12.166z"/>
<g>
	<g>
		<path fill="#FFFFFF" d="M55.325,29.963h-6.083c-1.119,0-2.027,0.909-2.027,2.027v6.084c0,1.119,0.908,2.028,2.027,2.028h6.083
			c1.12,0,2.028-0.909,2.028-2.028V31.99C57.353,30.872,56.445,29.963,55.325,29.963z M61.408,40.102h6.083
			c1.119,0,2.028-0.909,2.028-2.028V31.99c0-1.119-0.909-2.027-2.028-2.027h-6.083c-1.12,0-2.027,0.909-2.027,2.027v6.084
			C59.381,39.193,60.288,40.102,61.408,40.102z M69.519,50.238v-6.082c0-1.121-0.909-2.027-2.028-2.027h-6.083
			c-1.12,0-2.027,0.906-2.027,2.027v6.082c0,1.121,0.907,2.027,2.027,2.027h6.083C68.61,52.266,69.519,51.357,69.519,50.238z
			 M55.325,42.127h-6.083c-1.119,0-2.027,0.908-2.027,2.027v6.083c0,1.119,0.908,2.027,2.027,2.027h6.083
			c1.12,0,2.028-0.908,2.028-2.027v-6.083C57.353,43.036,56.445,42.127,55.325,42.127z M98.955,51.46c-0.717,0-1.797,0-2.154,0
			c0-0.729-0.72-2.18-1.44-2.903c-0.716-0.726-2.156-1.453-3.952-1.453c-0.721,0-1.439,0-2.156,0.363
			c-0.362-0.726-0.719-1.09-1.082-1.815c-0.717-0.724-1.796-1.452-3.952-1.452c-0.72,0-1.797,0.364-1.797,0.364
			s-1.438-5.477-5.033-5.477c-1.437,0-2.875,0.728-3.955,1.452c-1.796,2.179-1.796,5.08-1.796,5.08v9.834
			c-2.158,0.362-3.955,1.088-5.033,2.177c-2.156,2.54-2.156,5.807-2.156,10.161c0,0.726,0,1.815,0,2.541
			c0,5.08,2.517,7.619,5.031,10.16l1.08,1.453c4.673,4.353,8.627,5.807,18.33,5.807c10.426,0,15.099-5.807,15.099-18.508v-9.074
			C103.989,57.627,103.268,52.547,98.955,51.46z"/>
	</g>
</g>
<g>
	<g>
		<path fill="#9DA6BC" d="M99.378,50.911c-0.744,0-1.869,0-2.241,0c0-0.75-0.748-2.242-1.497-2.99
			c-0.744-0.749-2.24-1.496-4.108-1.496c-0.749,0-1.498,0-2.241,0.373c-0.377-0.745-0.749-1.121-1.125-1.868
			c-0.747-0.747-1.868-1.495-4.11-1.495c-0.748,0-1.494,0-1.868,0.374V43.4c0-2.244-1.494-5.233-5.233-5.233
			c-1.494,0-2.99,0.75-4.11,1.495c-1.868,2.244-1.868,5.233-1.868,5.233v10.131c-2.244,0.374-4.113,1.121-5.233,2.244
			c-2.242,2.613-2.242,5.979-2.242,10.467c0,0.75,0,1.869,0,2.618c0,5.231,2.617,7.85,5.232,10.469l1.123,1.497
			c4.858,4.482,8.969,5.979,19.058,5.979c10.84,0,15.699-5.979,15.699-19.065v-9.351C104.613,57.268,103.865,52.032,99.378,50.911z
			 M100.875,69.605c0,12.715-4.857,15.329-11.96,15.329c-8.969,0-12.333-1.121-16.068-4.86c-0.375-0.374-0.749-0.749-1.495-1.495
			c-2.617-2.993-4.112-4.485-4.112-8.225c0-0.749,0-1.87,0-2.618c0-3.738,0-6.356,1.121-7.854c0.374-0.373,1.496-0.745,2.617-0.745
			v1.868l-1.121,5.609c0,0.372,0,0.372,0.374,0.748c0.374,0.373,0.748,0,0.748,0l3.736-4.486c0-0.374,0-0.75,0-0.75V44.895
			c0-0.372,0-1.871,0.747-2.616c0.373,0,0.748-0.374,1.495-0.374c1.121,0,1.496,1.119,1.496,1.495v5.642v4.486
			c0,1.123,0.747,2.242,1.868,2.242c1.12,0,1.869-1.119,1.869-1.868v-4.86c0-0.373,0.375-1.87,1.868-1.87
			c1.12,0,1.868,0.374,1.868,1.497v4.859c0,1.123,0.749,2.242,1.871,2.242c1.119,0,1.867-1.119,1.867-1.868v-2.616
			c0-0.375,0.373-1.125,1.87-1.125c0.747,0,1.12,0.376,1.12,0.376c0.748,0.374,0.748,1.495,0.748,1.495v2.993
			c0,1.121,0.749,1.868,1.496,1.868c1.121,0,1.868-0.375,1.868-1.494c0-0.374,0.373-0.748,0.745-1.123c0,0,0.375,0,0.749,0
			c2.244,0.749,2.616,4.488,2.616,5.606V69.605L100.875,69.605z M21.388,59.223h6.016v-2.006h-6.016V59.223z M17.378,48.192h-2.005
			v5.014h2.005V48.192z M17.378,40.171h-2.005v5.013h2.005V40.171z M17.378,32.15h-2.005v5.014h2.005V32.15z M17.378,24.128h-2.005
			v5.013h2.005V24.128z M17.378,16.107h-2.005v5.013h2.005V16.107z M17.378,8.085h-2.005v5.013h2.005V8.085z M22.392,4.074h5.013
			V2.069h-5.013V4.074z M30.413,4.074h5.014V2.069h-5.014V4.074z M38.435,4.074h5.014V2.069h-5.014V4.074z M46.456,4.074h5.013
			V2.069h-5.013V4.074z M54.478,4.074h5.013V2.069h-5.013V4.074z M67.513,2.068H62.5v2.005h5.013V2.068z M71.523,10.09h-2.005v2.005
			h2.005V10.09z M71.523,3.071h-2.005v5.014h2.005V3.071z M15.373,4.074v2.005c0,0,1.116,0,2.005,0c0-0.964,0.931-2.005,2.005-2.005
			c0.893,0,0.994,0,1.003,0V2.069h-3.008C16.271,2.068,15.373,2.967,15.373,4.074z M17.378,55.21c-0.889,0-2.005,0-2.005,0v2.007
			c0,1.106,0.898,2.004,2.005,2.004h2.005c0,0,0-0.563,0-2.004C18.308,57.217,17.378,56.174,17.378,55.21z M142.339,23.629
			c-0.848-0.154-1.652,0.395-1.806,1.241l-1.143,6.238c-3.324-4.228-7.9-7.266-13.191-8.727c-6.553-1.813-13.431-0.961-19.336,2.396
			c-6.18,3.508-13.922,9.309-12.277,11.384c1.079,0.801,2.556-1.048,5.013-3.008c2.483-1.979,5.956-4.083,8.792-5.687
			c9.724-5.512,21.862-2.925,28.583,5.581l-6.56-1.202c-0.85-0.154-1.651,0.395-1.806,1.241c-0.147,0.824,0.382,1.612,1.188,1.791
			c0.021,0.005,0.033,0.007,0.055,0.012l10.07,1.855c0.824,0.149,1.608-0.369,1.792-1.185l0.025-0.111
			c0.006-0.023,0.008-0.035,0.012-0.057l0.002-0.011l1.829-9.948C143.737,24.585,143.175,23.78,142.339,23.629z"/>
	</g>
</g>
<g>
	<g>
		<path fill="#FBAB29" d="M164.495,68.268h6.025v-1.922h-6.025V68.268z M160.477,57.694h-2.008v4.807h2.008V57.694z M160.477,50.006
			h-2.008v4.805h2.008V50.006z M160.477,42.316h-2.008v4.807h2.008V42.316z M160.477,34.629h-2.008v4.806h2.008V34.629z
			 M160.477,26.94h-2.008v4.806h2.008V26.94z M160.477,19.25h-2.008v4.806h2.008V19.25z M165.5,15.407h5.021v-1.923H165.5V15.407z
			 M173.534,15.407h5.022v-1.923h-5.022V15.407z M181.57,15.407h5.021v-1.923h-5.021V15.407z M189.606,15.407h5.021v-1.923h-5.021
			V15.407z M197.641,15.407h5.023v-1.923h-5.023V15.407z M210.698,13.483h-5.021v1.923h5.021V13.483z M212.708,26.94h2.009v-5.767
			h-2.009V26.94z M212.708,14.445v4.806h2.009v-4.806H212.708z M158.469,15.407v1.921c0,0,1.117,0,2.008,0
			c0-0.923,0.933-1.921,2.008-1.921c0.896,0,0.997,0,1.005,0v-1.923h-3.013C159.367,13.483,158.469,14.345,158.469,15.407z
			 M160.477,64.423c-0.891,0-2.008,0-2.008,0v1.923c0,1.061,0.898,1.922,2.008,1.922h2.008c0,0,0-0.541,0-1.922
			C161.409,66.346,160.477,65.347,160.477,64.423z M172.531,68.268h6.025v-1.922h-6.025V68.268z M180.565,68.268h6.026v-1.922
			h-6.026V68.268z M188.602,68.268h6.026v-1.922h-6.026V68.268z M196.638,68.268h6.026v-1.922h-6.026V68.268z M212.708,42.316h2.009
			V36.55h-2.009V42.316z M212.708,34.629h2.009v-5.767h-2.009V34.629z M212.708,50.006h2.009V44.24h-2.009V50.006z M212.708,57.694
			h2.009v-5.767h-2.009V57.694z M212.708,65.385h2.009v-5.767h-2.009V65.385z M204.672,68.268h8.036v-1.922h-8.036V68.268z"/>
	</g>
</g>
</svg>
