<?xml version="1.0" encoding="utf-8"?>
<!-- Generator: Adobe Illustrator 16.0.0, SVG Export Plug-In . SVG Version: 6.00 Build 0)  -->
<!DOCTYPE svg PUBLIC "-//W3C//DTD SVG 1.1//EN" "http://www.w3.org/Graphics/SVG/1.1/DTD/svg11.dtd">
<svg version="1.1" id="Layer_1" xmlns="http://www.w3.org/2000/svg" xmlns:xlink="http://www.w3.org/1999/xlink" x="0px" y="0px"
	 width="22px" height="29px" viewBox="0 0 22 29" enable-background="new 0 0 22 29" xml:space="preserve">
<g>
	<g>
		<path fill="#FBAA28" d="M5.471,3.5c0-1.4,1.091-2.5,2.48-2.5s2.479,1.1,2.479,2.5v2.4c0.596-0.6,0.992-1.5,0.992-2.4
			c0-1.9-1.587-3.5-3.472-3.5C6.066,0,4.479,1.6,4.479,3.5c0,1,0.396,1.8,0.992,2.4V3.5z M19.853,11c-0.793,0-1.486,0.7-1.486,1.5
			V15h-0.992v-4.5c0-0.8-0.695-1.5-1.488-1.5s-1.488,0.7-1.488,1.5V14h-0.992V9.5c0-0.8-0.693-1.5-1.487-1.5
			c-0.794,0-1.488,0.7-1.488,1.5V15H9.438V3.5c0-0.8-0.694-1.5-1.488-1.5S6.463,2.7,6.463,3.5v13.3c-2.083-2.2-4.761-4.6-5.853-3.5
			C-0.48,14.4,2.296,17.4,6.165,24c1.786,3,3.968,5,7.736,5c4.068,0,7.439-3.4,7.439-7.5v-9C21.341,11.7,20.647,11,19.853,11z"/>
	</g>
</g>
</svg>
