<?xml version="1.0" encoding="utf-8"?>
<!-- Generator: Adobe Illustrator 16.0.0, SVG Export Plug-In . SVG Version: 6.00 Build 0)  -->
<!DOCTYPE svg PUBLIC "-//W3C//DTD SVG 1.1//EN" "http://www.w3.org/Graphics/SVG/1.1/DTD/svg11.dtd">
<svg version="1.1" id="Layer_1" xmlns="http://www.w3.org/2000/svg" xmlns:xlink="http://www.w3.org/1999/xlink" x="0px" y="0px"
	 width="34px" height="34px" viewBox="0 0 34 34" enable-background="new 0 0 34 34" xml:space="preserve">
<g>
	<g>
		<path fill="#FFFFFF" d="M30.541,0.71H3.458c-1.661,0-3.009,1.349-3.009,3.009v3.009c0,1.662,1.348,3.01,3.009,3.01h27.083
			c1.661,0,3.011-1.348,3.011-3.01V3.719C33.552,2.059,32.202,0.71,30.541,0.71z M30.541,12.747H3.458
			c-1.661,0-3.009,1.347-3.009,3.009v3.01c0,1.662,1.348,3.009,3.009,3.009h27.083c1.661,0,3.011-1.347,3.011-3.009v-3.01
			C33.552,14.094,32.202,12.747,30.541,12.747z M30.541,24.783H3.458c-1.661,0-3.009,1.348-3.009,3.01v3.009
			c0,1.662,1.348,3.009,3.009,3.009h27.083c1.661,0,3.011-1.347,3.011-3.009v-3.009C33.552,26.131,32.202,24.783,30.541,24.783z"/>
	</g>
</g>
<g>
	<g>
		<path fill="#9DA6BC" d="M30.541,0.189H3.458c-1.661,0-3.009,1.348-3.009,3.009v3.01c0,1.661,1.348,3.008,3.009,3.008h27.083
			c1.661,0,3.011-1.348,3.011-3.008v-3.01C33.552,1.537,32.202,0.189,30.541,0.189z M30.541,12.226H3.458
			c-1.661,0-3.009,1.347-3.009,3.009v3.01c0,1.662,1.348,3.009,3.009,3.009h27.083c1.661,0,3.011-1.347,3.011-3.009v-3.01
			C33.552,13.573,32.202,12.226,30.541,12.226z M30.541,24.263H3.458c-1.661,0-3.009,1.347-3.009,3.01v3.008
			c0,1.663,1.348,3.01,3.009,3.01h27.083c1.661,0,3.011-1.347,3.011-3.01v-3.008C33.552,25.609,32.202,24.263,30.541,24.263z"/>
	</g>
</g>
</svg>
