<?xml version="1.0" encoding="utf-8"?>
<!-- Generator: Adobe Illustrator 16.0.0, SVG Export Plug-In . SVG Version: 6.00 Build 0)  -->
<!DOCTYPE svg PUBLIC "-//W3C//DTD SVG 1.1//EN" "http://www.w3.org/Graphics/SVG/1.1/DTD/svg11.dtd">
<svg version="1.1" id="Layer_1" xmlns="http://www.w3.org/2000/svg" xmlns:xlink="http://www.w3.org/1999/xlink" x="0px" y="0px"
	 width="18px" height="35px" viewBox="0 0 18 35" enable-background="new 0 0 18 35" xml:space="preserve">
<path fill="#495162" d="M17.326,0.859l-4.289-0.006c-4.819,0-7.933,3.261-7.933,8.313v3.833H0.792c-0.373,0-0.675,0.308-0.675,0.69
	v5.553c0,0.381,0.303,0.689,0.675,0.689h4.312v14.012c0,0.383,0.303,0.69,0.675,0.69h5.627c0.371,0,0.674-0.308,0.674-0.69V19.931
	h5.041c0.373,0,0.676-0.309,0.676-0.689l0.002-5.553c0-0.184-0.072-0.358-0.197-0.488c-0.129-0.129-0.299-0.202-0.479-0.202H12.08
	V9.75c0-1.562,0.363-2.355,2.355-2.355l2.891,0C17.699,7.394,18,7.085,18,6.705V1.547C18,1.168,17.699,0.861,17.326,0.859z"/>
<path fill="#9DA6BA" d="M17.326,0.374l-4.289-0.007c-4.819,0-7.933,3.262-7.933,8.313v3.833H0.792c-0.373,0-0.675,0.308-0.675,0.689
	v5.554c0,0.381,0.303,0.688,0.675,0.688h4.312v14.014c0,0.381,0.303,0.688,0.675,0.688h5.627c0.371,0,0.674-0.308,0.674-0.688
	V19.444h5.041c0.373,0,0.676-0.308,0.676-0.688l0.002-5.554c0-0.183-0.072-0.357-0.197-0.487c-0.129-0.129-0.299-0.203-0.479-0.203
	H12.08V9.264c0-1.562,0.363-2.354,2.355-2.354l2.891-0.001C17.699,6.908,18,6.6,18,6.22V1.063C18,0.683,17.699,0.375,17.326,0.374z"
	/>
</svg>
