<?xml version="1.0" encoding="utf-8"?>
<!-- Generator: Adobe Illustrator 16.0.0, SVG Export Plug-In . SVG Version: 6.00 Build 0)  -->
<!DOCTYPE svg PUBLIC "-//W3C//DTD SVG 1.1//EN" "http://www.w3.org/Graphics/SVG/1.1/DTD/svg11.dtd">
<svg version="1.1" id="Layer_1" xmlns="http://www.w3.org/2000/svg" xmlns:xlink="http://www.w3.org/1999/xlink" x="0px" y="0px"
	 width="34px" height="29px" viewBox="0 0 34 29" enable-background="new 0 0 34 29" xml:space="preserve">
<path fill="#495162" d="M32.334,1.409c-1.288,0.774-2.714,1.336-4.23,1.64c-1.215-1.315-2.944-2.134-4.859-2.134
	c-3.679,0-6.66,3.026-6.66,6.755c0,0.529,0.059,1.045,0.172,1.539C11.224,8.927,6.317,6.237,3.033,2.15
	c-0.573,0.996-0.9,2.156-0.9,3.395c0,2.345,1.177,4.413,2.961,5.623c-1.091-0.037-2.118-0.341-3.016-0.848v0.084
	c0,3.273,2.296,6.002,5.34,6.625c-0.558,0.154-1.146,0.238-1.754,0.238c-0.43,0-0.846-0.045-1.254-0.123
	c0.848,2.684,3.306,4.637,6.219,4.693c-2.278,1.811-5.15,2.891-8.269,2.891c-0.538,0-1.068-0.033-1.589-0.094
	c2.948,1.916,6.446,3.035,10.208,3.035c12.248,0,18.944-10.295,18.944-19.222l-0.021-0.875c1.306-0.949,2.437-2.139,3.328-3.492
	c-1.194,0.537-2.477,0.901-3.823,1.064C30.781,4.309,31.835,2.983,32.334,1.409z"/>
<path fill="#9DA3B7" d="M32.334,1.161c-1.288,0.774-2.714,1.336-4.23,1.64c-1.215-1.315-2.944-2.135-4.859-2.135
	c-3.679,0-6.66,3.026-6.66,6.755c0,0.529,0.059,1.045,0.172,1.539C11.224,8.679,6.317,5.989,3.033,1.902
	c-0.573,0.996-0.9,2.156-0.9,3.396c0,2.345,1.177,4.413,2.961,5.623c-1.091-0.037-2.118-0.342-3.016-0.848v0.084
	c0,3.273,2.296,6.002,5.34,6.625C6.86,16.934,6.272,17.02,5.664,17.02c-0.43,0-0.846-0.045-1.254-0.123
	c0.848,2.684,3.306,4.637,6.219,4.693c-2.278,1.811-5.15,2.889-8.269,2.889c-0.538,0-1.068-0.031-1.589-0.092
	c2.948,1.916,6.446,3.035,10.208,3.035c12.248,0,18.944-10.295,18.944-19.222l-0.021-0.875c1.306-0.949,2.437-2.139,3.328-3.492
	c-1.194,0.536-2.477,0.901-3.823,1.064C30.781,4.061,31.835,2.735,32.334,1.161z"/>
</svg>
