<?xml version="1.0" encoding="utf-8"?>
<!-- Generator: Adobe Illustrator 16.0.0, SVG Export Plug-In . SVG Version: 6.00 Build 0)  -->
<!DOCTYPE svg PUBLIC "-//W3C//DTD SVG 1.1//EN" "http://www.w3.org/Graphics/SVG/1.1/DTD/svg11.dtd">
<svg version="1.1" id="Layer_1" xmlns="http://www.w3.org/2000/svg" xmlns:xlink="http://www.w3.org/1999/xlink" x="0px" y="0px"
	 width="20px" height="16.063px" viewBox="0 0 20 16.063" enable-background="new 0 0 20 16.063" xml:space="preserve">
<g>
	<path fill="#485061" d="M12.828,1.313c-0.329-0.335-0.861-0.335-1.19,0l-0.392,0.41c-0.328,0.34-0.328,0.894,0,1.234l5.59,5.817
		l-5.59,5.449c-0.328,0.34-0.328,0.705,0,1.047l0.392,0.313c0.329,0.346,0.861,0.678,1.185,0.332L20,8.779L12.828,1.313z"/>
	<path fill="#485061" d="M8.754,1.724l-0.392-0.41c-0.329-0.335-0.862-0.335-1.19,0L0,8.779l7.178,7.137
		c0.322,0.346,0.855,0.014,1.184-0.332l0.392-0.313c0.328-0.342,0.328-0.707,0-1.047L3.165,8.775l5.589-5.817
		C9.082,2.617,9.082,2.064,8.754,1.724z"/>
</g>
<g>
	<path fill="#FFFFFF" d="M12.828,0.251c-0.329-0.335-0.861-0.335-1.19,0l-0.392,0.41c-0.328,0.34-0.328,0.894,0,1.234l5.59,5.817
		l-5.59,5.449c-0.328,0.34-0.328,0.705,0,1.047l0.392,0.313c0.329,0.346,0.861,0.678,1.185,0.332L20,7.716L12.828,0.251z"/>
	<path fill="#FFFFFF" d="M8.754,0.661l-0.392-0.41c-0.329-0.335-0.862-0.335-1.19,0L0,7.716l7.178,7.137
		c0.322,0.346,0.855,0.014,1.184-0.332l0.392-0.313c0.328-0.342,0.328-0.707,0-1.047L3.165,7.713l5.589-5.817
		C9.083,1.555,9.083,1.001,8.754,0.661z"/>
</g>
</svg>
