<?xml version="1.0" encoding="utf-8"?>
<!-- Generator: Adobe Illustrator 16.0.0, SVG Export Plug-In . SVG Version: 6.00 Build 0)  -->
<!DOCTYPE svg PUBLIC "-//W3C//DTD SVG 1.1//EN" "http://www.w3.org/Graphics/SVG/1.1/DTD/svg11.dtd">
<svg version="1.1" id="Layer_1" xmlns="http://www.w3.org/2000/svg" xmlns:xlink="http://www.w3.org/1999/xlink" x="0px" y="0px"
	 width="33px" height="33px" viewBox="0 0 33 33" enable-background="new 0 0 33 33" xml:space="preserve">
<g>
	<g>
		<path fill="#FFFFFF" d="M6.257,0.67H3.334c-1.614,0-2.923,1.309-2.923,2.923v2.922c0,1.615,1.309,2.923,2.923,2.923h2.922
			c1.614,0,2.923-1.309,2.923-2.923V3.593C9.18,1.979,7.871,0.67,6.257,0.67z M29.642,0.67h-15.59c-1.614,0-2.922,1.309-2.922,2.923
			v2.922c0,1.615,1.309,2.923,2.922,2.923h15.59c1.614,0,2.923-1.309,2.923-2.923V3.593C32.564,1.979,31.256,0.67,29.642,0.67z
			 M29.642,12.362h-15.59c-1.614,0-2.922,1.309-2.922,2.923v2.923c0,1.614,1.309,2.923,2.922,2.923h15.59
			c1.614,0,2.923-1.309,2.923-2.923v-2.923C32.564,13.671,31.256,12.362,29.642,12.362z M6.257,12.362H3.334
			c-1.614,0-2.923,1.309-2.923,2.923v2.923c0,1.614,1.309,2.923,2.923,2.923h2.922c1.614,0,2.923-1.309,2.923-2.923v-2.923
			C9.18,13.671,7.871,12.362,6.257,12.362z M6.257,24.054H3.334c-1.614,0-2.923,1.31-2.923,2.924V29.9
			c0,1.615,1.309,2.923,2.923,2.923h2.922c1.614,0,2.923-1.308,2.923-2.923v-2.923C9.18,25.363,7.871,24.054,6.257,24.054z
			 M29.642,24.054h-15.59c-1.614,0-2.922,1.31-2.922,2.924V29.9c0,1.615,1.309,2.923,2.922,2.923h15.59
			c1.614,0,2.923-1.308,2.923-2.923v-2.923C32.564,25.363,31.256,24.054,29.642,24.054z"/>
	</g>
</g>
<g>
	<g>
		<path fill="#9DA6BA" d="M6.257,0.208H3.334c-1.614,0-2.923,1.309-2.923,2.923v2.922c0,1.614,1.309,2.923,2.923,2.923h2.922
			c1.614,0,2.923-1.309,2.923-2.923V3.132C9.18,1.518,7.871,0.208,6.257,0.208z M29.642,0.208h-15.59
			c-1.614,0-2.922,1.309-2.922,2.923v2.922c0,1.614,1.309,2.923,2.922,2.923h15.59c1.614,0,2.923-1.309,2.923-2.923V3.132
			C32.564,1.518,31.256,0.208,29.642,0.208z M29.642,11.901h-15.59c-1.614,0-2.922,1.309-2.922,2.923v2.923
			c0,1.615,1.309,2.923,2.922,2.923h15.59c1.614,0,2.923-1.308,2.923-2.923v-2.923C32.564,13.21,31.256,11.901,29.642,11.901z
			 M6.257,11.901H3.334c-1.614,0-2.923,1.309-2.923,2.923v2.923c0,1.615,1.309,2.923,2.923,2.923h2.922
			c1.614,0,2.923-1.308,2.923-2.923v-2.923C9.18,13.21,7.871,11.901,6.257,11.901z M6.257,23.593H3.334
			c-1.614,0-2.923,1.309-2.923,2.924v2.923c0,1.614,1.309,2.922,2.923,2.922h2.922c1.614,0,2.923-1.308,2.923-2.922v-2.923
			C9.18,24.901,7.871,23.593,6.257,23.593z M29.642,23.593h-15.59c-1.614,0-2.922,1.309-2.922,2.924v2.923
			c0,1.614,1.309,2.922,2.922,2.922h15.59c1.614,0,2.923-1.308,2.923-2.922v-2.923C32.564,24.901,31.256,23.593,29.642,23.593z"/>
	</g>
</g>
</svg>
