<?xml version="1.0" encoding="utf-8"?>
<!-- Generator: Adobe Illustrator 16.0.0, SVG Export Plug-In . SVG Version: 6.00 Build 0)  -->
<!DOCTYPE svg PUBLIC "-//W3C//DTD SVG 1.1//EN" "http://www.w3.org/Graphics/SVG/1.1/DTD/svg11.dtd">
<svg version="1.1" id="Layer_1" xmlns="http://www.w3.org/2000/svg" xmlns:xlink="http://www.w3.org/1999/xlink" x="0px" y="0px"
	 width="32px" height="24px" viewBox="0 0 32 24" enable-background="new 0 0 32 24" xml:space="preserve">
<g>
	<g>
		<path fill="#FFFFFF" d="M18.664,16.347c1.785-0.754,3.196-1.779,4.229-3.076c1.034-1.297,1.551-2.709,1.551-4.238
			s-0.517-2.941-1.551-4.238c-1.033-1.297-2.443-2.323-4.229-3.076c-1.787-0.753-3.73-1.129-5.83-1.129s-4.043,0.376-5.83,1.129
			C5.219,2.472,3.809,3.498,2.776,4.795C1.742,6.092,1.225,7.504,1.225,9.033c0,1.308,0.391,2.541,1.171,3.695
			c0.78,1.153,1.852,2.127,3.216,2.919c-0.11,0.264-0.223,0.505-0.338,0.725c-0.115,0.22-0.252,0.431-0.412,0.635
			c-0.16,0.203-0.283,0.362-0.371,0.479C4.403,17.6,4.26,17.762,4.062,17.971c-0.197,0.208-0.324,0.346-0.379,0.411
			c0-0.01-0.022,0.015-0.066,0.074c-0.044,0.062-0.069,0.09-0.074,0.084s-0.027,0.021-0.066,0.082
			c-0.039,0.06-0.058,0.089-0.058,0.089l-0.042,0.084c-0.017,0.032-0.027,0.066-0.033,0.098c-0.005,0.034-0.008,0.07-0.008,0.108
			s0.005,0.073,0.017,0.105c0.022,0.144,0.084,0.26,0.189,0.348c0.104,0.087,0.217,0.131,0.338,0.131h0.05
			c0.549-0.077,1.022-0.165,1.417-0.263c1.693-0.441,3.222-1.144,4.584-2.111c0.989,0.176,1.957,0.264,2.902,0.264
			C14.934,17.477,16.877,17.1,18.664,16.347z M29.604,16.955c0.781-1.146,1.171-2.382,1.171-3.701c0-1.352-0.413-2.617-1.237-3.793
			c-0.824-1.176-1.946-2.154-3.363-2.935c0.252,0.824,0.379,1.66,0.379,2.506c0,1.473-0.368,2.87-1.104,4.188
			c-0.737,1.319-1.793,2.484-3.167,3.496c-1.274,0.924-2.727,1.633-4.353,2.127c-1.627,0.495-3.326,0.742-5.096,0.742
			c-0.33,0-0.813-0.021-1.451-0.065c2.21,1.45,4.804,2.177,7.783,2.177c0.945,0,1.913-0.088,2.902-0.264
			c1.363,0.968,2.891,1.671,4.584,2.111c0.396,0.098,0.869,0.186,1.419,0.264c0.132,0.01,0.252-0.028,0.362-0.116
			c0.11-0.087,0.181-0.207,0.215-0.362c-0.006-0.066,0-0.103,0.017-0.106c0.016-0.006,0.013-0.042-0.009-0.107s-0.032-0.1-0.032-0.1
			l-0.042-0.082c-0.012-0.021-0.03-0.052-0.057-0.09c-0.028-0.038-0.051-0.065-0.067-0.084c-0.016-0.016-0.04-0.042-0.074-0.082
			c-0.032-0.037-0.055-0.062-0.065-0.073c-0.055-0.066-0.182-0.204-0.379-0.411c-0.197-0.21-0.341-0.371-0.429-0.487
			c-0.088-0.115-0.212-0.275-0.371-0.479s-0.297-0.415-0.412-0.635c-0.115-0.219-0.228-0.461-0.338-0.726
			C27.753,19.074,28.824,18.104,29.604,16.955z"/>
	</g>
</g>
<g>
	<g>
		<path fill="#9DA6BC" d="M18.664,15.948c1.785-0.755,3.196-1.78,4.229-3.077c1.034-1.297,1.551-2.71,1.551-4.238
			s-0.517-2.94-1.551-4.238c-1.033-1.297-2.443-2.322-4.229-3.076c-1.787-0.753-3.73-1.129-5.83-1.129S8.792,0.567,7.005,1.32
			C5.219,2.073,3.809,3.098,2.776,4.396c-1.034,1.297-1.551,2.71-1.551,4.238c0,1.308,0.391,2.54,1.171,3.694
			c0.78,1.154,1.852,2.127,3.216,2.917c-0.11,0.266-0.223,0.507-0.338,0.727c-0.115,0.22-0.252,0.431-0.412,0.635
			c-0.16,0.203-0.283,0.363-0.371,0.479c-0.088,0.116-0.231,0.277-0.429,0.485c-0.197,0.209-0.324,0.347-0.379,0.413
			c0-0.011-0.022,0.014-0.066,0.073c-0.044,0.063-0.069,0.088-0.074,0.084c-0.005-0.006-0.027,0.021-0.066,0.082
			c-0.039,0.06-0.058,0.09-0.058,0.09l-0.042,0.084c-0.017,0.031-0.027,0.063-0.033,0.098c-0.005,0.031-0.008,0.069-0.008,0.107
			s0.005,0.074,0.017,0.105c0.022,0.145,0.084,0.26,0.189,0.348c0.104,0.088,0.217,0.132,0.338,0.132h0.05
			c0.549-0.078,1.022-0.166,1.417-0.264c1.693-0.44,3.222-1.144,4.584-2.111c0.989,0.176,1.957,0.264,2.902,0.264
			C14.934,17.077,16.877,16.7,18.664,15.948z M29.604,16.557c0.781-1.149,1.171-2.383,1.171-3.702c0-1.353-0.413-2.617-1.237-3.793
			c-0.824-1.177-1.946-2.155-3.363-2.936c0.252,0.825,0.379,1.66,0.379,2.507c0,1.473-0.368,2.869-1.104,4.189
			c-0.737,1.318-1.793,2.484-3.167,3.496c-1.274,0.924-2.727,1.632-4.353,2.127c-1.627,0.494-3.326,0.742-5.096,0.742
			c-0.33,0-0.813-0.022-1.451-0.066c2.21,1.451,4.804,2.178,7.783,2.178c0.945,0,1.913-0.088,2.902-0.264
			c1.363,0.968,2.891,1.67,4.584,2.109c0.396,0.1,0.869,0.188,1.419,0.265c0.132,0.011,0.252-0.027,0.362-0.115
			s0.181-0.21,0.215-0.363c-0.006-0.065,0-0.102,0.017-0.107c0.016-0.004,0.013-0.04-0.009-0.106c-0.021-0.065-0.032-0.1-0.032-0.1
			l-0.042-0.082c-0.012-0.021-0.03-0.052-0.057-0.09c-0.028-0.037-0.051-0.065-0.067-0.083c-0.016-0.017-0.04-0.044-0.074-0.082
			c-0.032-0.038-0.055-0.063-0.065-0.074c-0.055-0.065-0.182-0.203-0.379-0.413c-0.197-0.207-0.341-0.369-0.429-0.484
			c-0.088-0.116-0.212-0.275-0.371-0.479c-0.159-0.203-0.297-0.415-0.412-0.634c-0.115-0.22-0.228-0.461-0.338-0.727
			C27.753,18.676,28.824,17.706,29.604,16.557z"/>
	</g>
</g>
</svg>
