<?xml version="1.0" encoding="utf-8"?>
<!-- Generator: Adobe Illustrator 16.0.0, SVG Export Plug-In . SVG Version: 6.00 Build 0)  -->
<!DOCTYPE svg PUBLIC "-//W3C//DTD SVG 1.1//EN" "http://www.w3.org/Graphics/SVG/1.1/DTD/svg11.dtd">
<svg version="1.1" id="Layer_1" xmlns="http://www.w3.org/2000/svg" xmlns:xlink="http://www.w3.org/1999/xlink" x="0px" y="0px"
	 width="20px" height="20px" viewBox="0 0 20 20" enable-background="new 0 0 20 20" xml:space="preserve">
<g>
	<g>
		<path fill="#495262" d="M16.855,13.151h-3.918v-1.797c1.19-0.79,1.959-2.075,1.959-4.079c0-5.922-3.914-5.876-4.897-5.876
			c-0.94,0-4.897,0.103-4.897,5.876c0,1.993,0.77,3.28,1.959,4.074v1.802H3.144c0,0-2.938-0.189-2.938,1.959c0,2.15,0,2.938,0,2.938
			s0.075,0.979,0.979,0.979s7.836,0,7.836,0s8.889,0,9.794,0s0.979-0.979,0.979-0.979s0-0.788,0-2.938
			C19.794,12.962,16.855,13.151,16.855,13.151z M17.835,17.069H2.164c0,0-0.243-1.959,0.979-1.959s3.918,0,3.918,0
			s1.959,0,1.959-0.979v-3.918c-1.17-0.516-1.959-0.052-1.959-2.938c0-2.945,0.18-3.917,2.938-3.917c2.769,0,2.938,1.06,2.938,3.917
			c0,2.986-0.802,2.411-1.958,2.938v3.918c0,0.979,1.958,0.979,1.958,0.979s2.695,0,3.918,0
			C18.077,15.11,17.835,17.069,17.835,17.069z"/>
	</g>
</g>
<g>
	<g>
		<path fill="#FFFFFF" d="M16.855,12.726h-3.918v-1.798c1.19-0.79,1.959-2.076,1.959-4.08c0-5.922-3.914-5.876-4.897-5.876
			c-0.94,0-4.897,0.104-4.897,5.876c0,1.993,0.77,3.28,1.959,4.074v1.804H3.144c0,0-2.938-0.191-2.938,1.957c0,2.15,0,2.939,0,2.939
			s0.075,0.979,0.979,0.979s7.836,0,7.836,0s8.889,0,9.794,0s0.979-0.979,0.979-0.979s0-0.789,0-2.939
			C19.794,12.534,16.855,12.726,16.855,12.726z M17.835,16.643H2.164c0,0-0.243-1.96,0.979-1.96s3.918,0,3.918,0
			s1.959,0,1.959-0.979V9.787C7.85,9.27,7.062,9.734,7.062,6.848c0-2.945,0.18-3.917,2.938-3.917c2.769,0,2.938,1.061,2.938,3.917
			c0,2.985-0.802,2.411-1.958,2.939v3.917c0,0.979,1.958,0.979,1.958,0.979s2.695,0,3.918,0
			C18.077,14.683,17.835,16.643,17.835,16.643z"/>
	</g>
</g>
</svg>
