<?xml version="1.0" encoding="utf-8"?>
<!-- Generator: Adobe Illustrator 21.0.2, SVG Export Plug-In . SVG Version: 6.00 Build 0)  -->
<svg version="1.1" id="Breadcrumbs_1_" xmlns="http://www.w3.org/2000/svg" xmlns:xlink="http://www.w3.org/1999/xlink" x="0px"
	 y="0px" width="56px" height="34px" viewBox="0 0 56 34" enable-background="new 0 0 56 34" xml:space="preserve">
<g id="Breadcrumbs">
	<g>
		<path fill="#545C6C" d="M28,3.5l-16,0H6.8C5.8,3.5,5,4.3,5,5.2v24.5c0,1,0.8,1.8,1.8,1.8H12l16,0l9.5-14L28,3.5z M26,25.5h-5v-5
			h-4v5h-5v-7l7-6l7,6V25.5z M19,11l-9.4,7.6c0,0-0.2-0.1-0.3-0.1l-0.8-1c-0.1-0.1-0.1-0.3-0.1-0.3L19,8.7l5,3.8v-4h2v6l3.4,2.3
			L28,18.5L19,11z M41,3.5H31l10,14l-10,14h10l10-14L41,3.5z"/>
	</g>
</g>
<g id="Breadcrumbs_3_">
	<g>
		<path fill="#FFFFFF" d="M28,2.5l-16,0H6.8C5.8,2.5,5,3.3,5,4.2v24.5c0,1,0.8,1.8,1.8,1.8H12l16,0l9.5-14L28,2.5z M26,24.5h-5v-5
			h-4v5h-5v-7l7-6l7,6V24.5z M19,10l-9.4,7.6c0,0-0.2-0.1-0.3-0.1l-0.8-1c-0.1-0.1-0.1-0.3-0.1-0.3L19,7.7l5,3.8v-4h2v6l3.4,2.3
			L28,17.5L19,10z M41,2.5H31l10,14l-10,14h10l10-14L41,2.5z"/>
	</g>
</g>
</svg>
