<?xml version="1.0" encoding="utf-8"?>
<!-- Generator: Adobe Illustrator 22.1.0, SVG Export Plug-In . SVG Version: 6.00 Build 0)  -->
<svg version="1.1" id="Breadcrumbs_1_" xmlns="http://www.w3.org/2000/svg" xmlns:xlink="http://www.w3.org/1999/xlink" x="0px"
	 y="0px" width="24px" height="24px" viewBox="0 0 24 24" enable-background="new 0 0 24 24" xml:space="preserve">
<g id="Breadcrumbs_3_" opacity="0.2">
	<g>
		<path fill="#020202" d="M12,5.2H3.7H0.9C0.4,5.2,0,5.6,0,6.1v12.8c0,0.5,0.4,0.9,0.9,0.9h2.7H12l5-7.3L12,5.2z M11,16.7H8.3v-2.6
			H6.3v2.6H3.7V13l3.7-3.1L11,13V16.7z M7.3,9.1l-4.9,4c0,0-0.1-0.1-0.2-0.1l-0.4-0.5c-0.1-0.1-0.1-0.2-0.1-0.2l5.5-4.4l2.6,2V7.8h1
			v3.1l1.8,1.2L12,13L7.3,9.1z M18.8,5.2h-5.2l5.2,7.3l-5.2,7.3h5.2l5.2-7.3L18.8,5.2z"/>
	</g>
</g>
<g id="Breadcrumbs_2_">
	<g>
		<path fill="#FFFFFF" d="M12,4.2H3.7H0.9C0.4,4.2,0,4.6,0,5.1v12.8c0,0.5,0.4,0.9,0.9,0.9h2.7H12l5-7.3L12,4.2z M11,15.7H8.3v-2.6
			H6.3v2.6H3.7V12l3.7-3.1L11,12V15.7z M7.3,8.1l-4.9,4c0,0-0.1-0.1-0.2-0.1l-0.4-0.5c-0.1-0.1-0.1-0.2-0.1-0.2l5.5-4.4l2.6,2V6.8h1
			v3.1l1.8,1.2L12,12L7.3,8.1z M18.8,4.2h-5.2l5.2,7.3l-5.2,7.3h5.2l5.2-7.3L18.8,4.2z"/>
	</g>
</g>
</svg>
